<svg xmlns="http://www.w3.org/2000/svg" viewBox="138 139 926 1650" fill="#F59E0B" role="img" aria-label="Amber">
<g transform="translate(0.000000,1902.000000) scale(0.100000,-0.100000)" fill="#F59E0B" stroke="none">
<path d="M2839 17277 c-35 -35 -85 -88 -111 -118 -27 -30 -86 -97 -133 -149&#xA;-46 -52 -99 -121 -116 -153 -17 -32 -44 -73 -59 -90 -15 -18 -35 -49 -44 -70&#xA;-9 -22 -27 -52 -41 -68 -13 -17 -59 -101 -101 -187 -42 -86 -96 -195 -119&#xA;-242 -23 -47 -48 -103 -55 -125 -7 -22 -23 -61 -36 -87 -29 -58 -81 -195 -99&#xA;-263 -8 -27 -23 -81 -35 -120 -35 -118 -111 -416 -126 -490 -23 -124 -63 -398&#xA;-79 -548 -19 -182 -19 -582 -1 -722 8 -55 25 -199 40 -320 15 -121 31 -233 37&#xA;-250 6 -16 19 -68 29 -115 10 -47 34 -136 54 -198 20 -63 36 -120 36 -128 0&#xA;-7 9 -33 19 -56 22 -49 63 -178 81 -252 6 -27 24 -75 41 -105 16 -31 29 -64&#xA;29 -73 0 -9 22 -61 49 -115 26 -54 85 -174 131 -268 91 -187 183 -345 240&#xA;-415 21 -25 45 -58 53 -75 8 -16 39 -61 68 -100 29 -38 57 -83 63 -100 13 -35&#xA;100 -148 169 -216 26 -27 47 -53 47 -58 0 -5 21 -31 48 -59 26 -27 90 -100&#xA;142 -162 155 -184 222 -260 229 -260 16 0 156 -133 348 -332 56 -57 139 -133&#xA;185 -167 45 -35 87 -69 91 -77 4 -8 68 -59 141 -113 133 -100 275 -218 351&#xA;-292 89 -87 234 -209 308 -258 43 -29 81 -59 84 -67 3 -8 49 -47 101 -87 53&#xA;-39 129 -103 169 -142 77 -74 85 -93 62 -152 -6 -15 -15 -64 -20 -107 -9 -79&#xA;-20 -106 -43 -106 -13 0 -103 65 -151 109 -16 15 -58 45 -92 67 -35 21 -93 63&#xA;-130 92 -38 29 -80 60 -94 67 -14 8 -34 25 -43 39 -9 14 -38 37 -64 51 -26 14&#xA;-60 35 -77 46 -74 51 -214 127 -261 143 -27 9 -75 32 -105 52 -30 19 -79 42&#xA;-109 50 -30 9 -95 33 -145 54 -49 21 -110 44 -135 51 -25 6 -81 24 -125 39&#xA;-163 57 -372 83 -622 78 -151 -3 -173 -5 -192 -22 -30 -27 -26 -53 14 -116 19&#xA;-30 35 -64 35 -76 0 -12 16 -46 36 -75 20 -30 52 -90 70 -133 38 -90 89 -167&#xA;181 -276 35 -41 92 -108 126 -149 144 -171 211 -230 432 -381 112 -77 257&#xA;-155 305 -165 19 -3 69 -22 110 -40 132 -60 209 -86 288 -100 42 -8 94 -21&#xA;115 -30 20 -8 86 -20 145 -26 59 -5 130 -12 157 -15 78 -8 79 -9 60 -100 -9&#xA;-45 -31 -105 -49 -139 -18 -33 -43 -90 -55 -127 -11 -37 -66 -155 -121 -261&#xA;-54 -107 -113 -230 -129 -273 -41 -111 -114 -274 -160 -358 -21 -39 -42 -84&#xA;-45 -101 -8 -35 -41 -105 -71 -155 -12 -19 -29 -60 -38 -90 -9 -30 -32 -81&#xA;-52 -113 -19 -32 -38 -77 -42 -100 -3 -23 -13 -53 -22 -66 -19 -29 -53 -109&#xA;-91 -211 -16 -41 -42 -101 -59 -134 -17 -32 -31 -68 -31 -80 0 -11 -7 -34 -16&#xA;-51 -19 -37 -110 -319 -129 -400 -8 -33 -21 -80 -29 -105 -77 -241 -91 -943&#xA;-25 -1238 5 -24 16 -60 24 -79 8 -20 24 -74 36 -122 22 -92 68 -222 119 -336&#xA;61 -136 113 -240 128 -258 21 -24 84 -136 126 -224 19 -39 53 -98 75 -132 23&#xA;-33 46 -72 51 -87 6 -15 40 -62 75 -104 36 -43 80 -104 98 -136 18 -33 44 -72&#xA;58 -88 90 -106 125 -146 158 -181 51 -54 194 -234 234 -295 12 -19 42 -49 67&#xA;-68 25 -19 54 -48 65 -66 23 -36 177 -192 227 -229 18 -13 44 -27 57 -30 33&#xA;-8 138 37 176 75 17 17 46 42 65 57 19 14 58 46 87 72 55 50 188 152 239 184&#xA;61 39 308 225 370 279 23 20 45 36 49 36 4 0 27 18 51 40 24 22 48 40 54 40 6&#xA;0 36 21 67 46 32 26 87 66 123 89 36 23 74 52 85 65 11 12 38 31 60 43 38 19&#xA;73 45 168 128 37 31 101 78 251 184 24 17 67 51 97 76 30 25 70 55 89 67 19&#xA;12 60 47 90 77 30 31 80 72 110 92 30 20 66 46 80 58 14 13 63 49 110 80 47&#xA;31 95 66 107 78 25 22 39 74 28 106 -6 20 -77 77 -149 119 -22 13 -56 37 -76&#xA;55 -20 18 -70 52 -110 77 -40 25 -92 63 -114 86 -23 23 -57 48 -76 58 -45 21&#xA;-152 116 -306 270 -265 265 -288 295 -399 513 -11 24 -31 52 -43 63 -12 12&#xA;-22 28 -22 36 0 8 -18 69 -40 134 -64 189 -72 242 -60 385 5 67 18 160 29 206&#xA;10 46 22 105 25 131 4 26 11 50 15 53 5 2 14 26 21 52 19 71 93 199 168 291&#xA;37 45 77 95 89 111 12 16 36 31 53 35 17 3 45 17 63 30 43 32 124 68 227 101&#xA;47 15 105 35 130 45 58 24 184 44 280 44 41 1 320 -1 620 -3 479 -3 555 -1&#xA;625 13 137 29 211 74 384 233 96 89 186 211 210 284 18 57 -3 109 -55 134 -42&#xA;20 -70 42 -169 128 -30 26 -60 47 -65 47 -16 0 -296 255 -400 363 -36 38 -135&#xA;140 -220 226 -85 86 -168 172 -185 191 -16 19 -54 62 -83 95 -29 33 -70 80&#xA;-90 104 -61 74 -274 281 -317 308 -22 15 -45 33 -51 41 -6 8 -24 22 -41 31&#xA;-16 9 -63 39 -102 66 -40 28 -96 65 -124 83 -28 17 -67 45 -87 61 -20 16 -51&#xA;32 -70 36 -19 4 -42 13 -50 20 -30 26 -146 84 -192 95 -109 28 -91 63 117 230&#xA;172 138 226 183 299 250 39 36 91 82 116 102 63 50 256 219 310 271 25 24 74&#xA;65 110 93 36 27 97 78 135 114 39 36 95 85 125 109 30 23 129 116 220 204 91&#xA;89 203 196 249 237 45 41 111 109 145 150 35 41 93 109 131 150 37 41 98 109&#xA;136 150 74 82 156 185 206 261 18 26 41 53 53 59 11 6 32 34 46 63 36 71 209&#xA;332 256 386 21 24 38 53 38 65 0 12 21 59 46 106 83 155 182 354 194 394 7 22&#xA;21 53 30 70 10 17 30 67 44 111 31 97 57 178 103 310 19 55 45 143 58 195 13&#xA;52 35 140 49 195 15 55 26 114 26 131 0 18 7 65 15 105 8 41 27 148 42 239 26&#xA;157 27 185 30 590 4 466 5 457 -67 855 -16 88 -32 187 -35 219 -4 33 -22 119&#xA;-41 190 -19 72 -34 142 -34 155 0 13 -9 42 -19 65 -54 113 -91 207 -106 266&#xA;-9 36 -36 115 -60 176 -25 62 -45 116 -45 122 0 22 -148 287 -220 392 -9 14&#xA;-25 41 -35 60 -10 19 -29 49 -42 65 -29 36 -119 173 -155 235 -14 25 -58 77&#xA;-97 117 -39 40 -71 77 -71 83 0 6 -34 44 -76 85 -59 59 -81 75 -104 75 -20 0&#xA;-33 -7 -41 -21 -18 -35 -6 -119 24 -164 14 -22 31 -62 37 -89 6 -27 19 -61 30&#xA;-76 10 -14 24 -49 31 -76 6 -27 19 -62 27 -78 8 -16 23 -54 33 -85 11 -30 29&#xA;-65 40 -77 13 -14 23 -45 29 -85 5 -35 20 -91 33 -125 13 -33 43 -132 66 -220&#xA;23 -87 55 -208 71 -269 17 -60 44 -174 60 -253 17 -79 37 -160 46 -180 18 -44&#xA;40 -219 49 -397 4 -71 13 -166 21 -210 51 -283 55 -431 24 -765 -23 -252 -47&#xA;-459 -60 -515 -5 -22 -16 -83 -25 -135 -8 -52 -25 -133 -36 -180 -11 -47 -26&#xA;-112 -33 -145 -8 -33 -28 -98 -45 -145 -18 -47 -46 -125 -64 -174 -35 -98 -57&#xA;-123 -81 -91 -8 11 -19 43 -24 70 -49 250 -78 368 -102 413 -11 20 -20 48 -20&#xA;63 0 37 -19 88 -50 134 -15 22 -39 63 -53 90 -14 28 -48 84 -77 125 -28 41&#xA;-57 89 -64 105 -7 17 -29 49 -49 72 -19 24 -38 56 -42 72 -3 16 -24 50 -46 74&#xA;-21 25 -47 64 -58 88 -10 24 -41 64 -67 89 -53 50 -91 91 -281 300 -78 87&#xA;-244 220 -273 220 -9 0 -24 -6 -35 -13 -16 -13 -17 -19 -5 -79 9 -49 22 -79&#xA;50 -117 21 -28 41 -66 45 -83 9 -41 78 -168 104 -192 11 -10 40 -79 66 -160&#xA;26 -77 70 -190 99 -251 30 -60 57 -121 61 -135 4 -14 20 -50 35 -80 15 -30 40&#xA;-109 55 -175 15 -66 33 -138 40 -160 18 -50 49 -213 72 -370 23 -155 23 -559&#xA;0 -747 -15 -127 -21 -152 -82 -353 -19 -60 -41 -139 -49 -175 -8 -36 -28 -90&#xA;-45 -120 -17 -30 -31 -66 -31 -80 0 -15 -21 -54 -47 -90 -26 -36 -65 -96 -86&#xA;-135 -22 -38 -66 -105 -99 -148 -32 -43 -65 -92 -73 -108 -9 -16 -36 -52 -60&#xA;-81 -25 -29 -71 -84 -103 -121 -77 -92 -441 -456 -472 -472 -14 -7 -39 -28&#xA;-55 -47 -17 -18 -62 -58 -99 -88 -38 -30 -92 -74 -119 -97 -28 -24 -54 -43&#xA;-58 -43 -3 0 -39 -27 -80 -60 -40 -33 -78 -60 -83 -60 -6 0 -26 -15 -46 -34&#xA;-19 -19 -63 -54 -96 -78 -34 -23 -99 -71 -145 -105 -45 -35 -86 -63 -91 -63&#xA;-5 0 -26 -11 -46 -25 -20 -14 -44 -25 -53 -25 -9 0 -43 -18 -75 -40 -35 -23&#xA;-80 -44 -112 -51 -29 -6 -78 -24 -109 -40 -30 -16 -62 -29 -72 -29 -9 0 -34&#xA;-7 -56 -15 -49 -17 -234 -20 -337 -4 -70 11 -253 67 -310 95 -14 8 -33 20 -41&#xA;28 -8 8 -37 27 -63 42 -27 14 -58 35 -69 44 -11 10 -38 25 -60 34 -22 9 -49&#xA;24 -60 34 -11 10 -39 28 -63 40 -50 25 -144 90 -259 177 -45 34 -91 65 -104&#xA;69 -12 4 -55 37 -95 74 -108 98 -261 232 -308 267 -58 45 -437 421 -471 469&#xA;-16 22 -53 65 -81 96 -32 34 -57 72 -65 98 -7 23 -24 51 -38 62 -14 11 -46 48&#xA;-71 83 -25 35 -58 81 -73 102 -55 76 -117 178 -117 193 0 8 -17 46 -39 85 -21&#xA;39 -44 96 -51 126 -7 30 -26 81 -41 112 -16 32 -29 66 -29 76 0 27 -34 155&#xA;-60 227 -37 101 -58 329 -54 573 2 117 6 216 8 221 3 4 10 63 16 132 5 68 21&#xA;162 34 209 13 47 28 116 34 153 6 41 27 103 51 155 41 88 71 185 71 232 0 14&#xA;9 40 21 59 11 18 36 77 55 130 19 53 55 139 80 191 107 221 126 261 174 370&#xA;29 63 56 131 62 150 5 19 18 44 29 56 53 57 -11 113 -74 64 -14 -11 -29 -20&#xA;-34 -20 -5 0 -50 -41 -101 -90 -51 -50 -106 -99 -122 -109 -16 -9 -43 -34 -59&#xA;-55 -16 -20 -41 -46 -56 -57 -14 -12 -33 -35 -42 -52 -16 -32 -50 -76 -128&#xA;-166 -23 -25 -60 -71 -83 -101 -23 -30 -62 -80 -86 -110 -25 -30 -52 -76 -61&#xA;-102 -9 -26 -21 -50 -26 -53 -20 -13 -203 -396 -234 -490 -19 -55 -45 -131&#xA;-60 -169 -14 -38 -30 -101 -35 -140 -5 -39 -17 -104 -26 -143 -17 -78 -32 -90&#xA;-58 -50 -22 33 -70 188 -96 307 -12 58 -31 122 -41 143 -19 36 -35 105 -79&#xA;347 -11 63 -27 140 -35 170 -26 103 -38 275 -36 535 2 523 18 831 47 902 7 18&#xA;16 54 19 80 4 26 16 99 26 161 10 63 19 140 19 171 0 58 15 123 70 306 16 55&#xA;35 127 41 160 6 33 28 112 49 175 21 63 43 138 50 165 6 28 21 66 32 85 12 19&#xA;45 109 74 200 29 91 64 197 79 235 14 39 31 84 36 102 5 17 30 72 54 121 48&#xA;96 55 143 29 180 -24 35 -47 27 -115 -41z m3884 -9263 c23 -9 85 -28 137 -44&#xA;114 -33 198 -70 224 -99 11 -11 26 -21 34 -21 8 0 36 -21 62 -47 27 -27 80&#xA;-77 119 -113 39 -36 85 -83 101 -104 42 -56 30 -66 -82 -66 -70 0 -97 4 -130&#xA;21 -22 11 -70 25 -106 30 -74 11 -208 65 -253 103 -17 14 -36 26 -44 26 -7 0&#xA;-27 17 -44 38 -17 20 -39 46 -49 57 -10 11 -29 36 -42 55 -13 19 -39 51 -58&#xA;70 -42 43 -65 87 -57 107 4 13 17 15 75 9 39 -3 89 -13 113 -22z"></path>
</g>
</svg>