<svg xmlns="http://www.w3.org/2000/svg" viewBox="0 0 273 483" fill="#f59e0b" role="img" aria-label="Amber deer mark"><path fill-rule="evenodd" d="M234.0 8.0L230.0 9.0L230.0 15.0L233.0 18.0L233.0 21.0L236.0 24.0L236.0 30.0L239.0 33.0L239.0 42.0L242.0 45.0L242.0 57.0L245.0 60.0L245.0 78.0L248.0 81.0L248.0 96.0L245.0 99.0L245.0 114.0L242.0 117.0L242.0 129.0L240.0 131.0L237.0 131.0L232.0 126.0L232.0 120.0L226.0 114.0L226.0 111.0L223.0 108.0L223.0 105.0L217.0 99.0L217.0 96.0L210.0 89.0L204.0 89.0L203.0 93.0L206.0 96.0L206.0 102.0L209.0 105.0L209.0 108.0L215.0 117.0L215.0 126.0L218.0 129.0L218.0 165.0L212.0 174.0L212.0 180.0L206.0 186.0L206.0 189.0L200.0 195.0L200.0 198.0L186.0 212.0L183.0 212.0L168.0 227.0L165.0 227.0L156.0 236.0L150.0 236.0L147.0 239.0L141.0 239.0L138.0 242.0L132.0 242.0L129.0 239.0L123.0 239.0L117.0 233.0L114.0 233.0L108.0 227.0L105.0 227.0L102.0 224.0L99.0 224.0L70.0 195.0L70.0 192.0L64.0 186.0L64.0 183.0L61.0 180.0L61.0 177.0L55.0 168.0L55.0 123.0L61.0 114.0L61.0 105.0L67.0 96.0L66.0 89.0L63.0 89.0L50.0 102.0L50.0 105.0L44.0 111.0L44.0 117.0L41.0 120.0L41.0 123.0L38.0 126.0L38.0 129.0L36.0 131.0L33.0 131.0L31.0 129.0L31.0 123.0L28.0 120.0L28.0 111.0L25.0 108.0L25.0 69.0L28.0 66.0L28.0 54.0L31.0 51.0L31.0 39.0L37.0 30.0L37.0 21.0L40.0 18.0L40.0 15.0L36.0 11.0L29.0 18.0L29.0 21.0L26.0 24.0L26.0 27.0L20.0 33.0L20.0 39.0L14.0 48.0L14.0 57.0L11.0 60.0L11.0 66.0L8.0 69.0L8.0 123.0L11.0 126.0L11.0 132.0L14.0 135.0L14.0 144.0L20.0 153.0L20.0 159.0L23.0 162.0L23.0 165.0L26.0 168.0L26.0 171.0L35.0 180.0L35.0 183.0L41.0 189.0L41.0 192.0L72.0 223.0L75.0 223.0L93.0 241.0L96.0 241.0L110.0 255.0L105.0 260.0L102.0 260.0L90.0 248.0L87.0 248.0L84.0 245.0L81.0 245.0L72.0 239.0L66.0 239.0L63.0 236.0L54.0 236.0L51.0 233.0L45.0 233.0L38.0 240.0L41.0 243.0L41.0 246.0L44.0 249.0L44.0 252.0L63.0 271.0L66.0 271.0L75.0 277.0L81.0 277.0L84.0 280.0L90.0 280.0L98.0 288.0L98.0 294.0L92.0 300.0L92.0 303.0L89.0 306.0L89.0 312.0L86.0 315.0L86.0 318.0L83.0 321.0L83.0 324.0L80.0 327.0L80.0 330.0L74.0 339.0L74.0 348.0L68.0 354.0L68.0 363.0L65.0 366.0L65.0 378.0L62.0 381.0L62.0 396.0L65.0 399.0L65.0 408.0L68.0 411.0L68.0 417.0L71.0 420.0L71.0 423.0L74.0 426.0L74.0 429.0L77.0 432.0L77.0 435.0L80.0 438.0L80.0 441.0L89.0 450.0L89.0 453.0L111.0 475.0L117.0 475.0L123.0 469.0L126.0 469.0L138.0 457.0L141.0 457.0L147.0 451.0L150.0 451.0L162.0 439.0L165.0 439.0L171.0 433.0L174.0 433.0L187.0 420.0L187.0 417.0L183.0 413.0L180.0 413.0L171.0 404.0L168.0 404.0L157.0 393.0L157.0 390.0L151.0 384.0L151.0 378.0L148.0 375.0L148.0 369.0L145.0 366.0L145.0 363.0L148.0 360.0L148.0 351.0L151.0 348.0L151.0 345.0L159.0 337.0L162.0 337.0L165.0 334.0L171.0 334.0L174.0 331.0L219.0 331.0L222.0 328.0L225.0 328.0L232.0 321.0L232.0 312.0L228.0 308.0L225.0 308.0L202.0 285.0L202.0 282.0L189.0 269.0L186.0 269.0L180.0 263.0L177.0 263.0L166.0 252.0L183.0 235.0L186.0 235.0L198.0 223.0L201.0 223.0L223.0 201.0L223.0 198.0L235.0 186.0L235.0 183.0L244.0 174.0L244.0 171.0L247.0 168.0L247.0 165.0L250.0 162.0L250.0 159.0L256.0 150.0L256.0 144.0L259.0 141.0L259.0 129.0L262.0 126.0L262.0 114.0L265.0 111.0L265.0 78.0L262.0 75.0L262.0 63.0L259.0 60.0L259.0 51.0L253.0 42.0L253.0 36.0L250.0 33.0L250.0 30.0L247.0 27.0L247.0 24.0L241.0 18.0L241.0 15.0ZM154.0 285.0L159.0 280.0L162.0 283.0L165.0 283.0L168.0 286.0L171.0 286.0L173.0 288.0L173.0 291.0L171.0 293.0L165.0 293.0L162.0 290.0L159.0 290.0Z"></path></svg>