<?xml version="1.0" encoding="UTF-8"?>
<svg class="diagram" version="1.1" xmlns="http://www.w3.org/2000/svg" viewBox="0 0 1295.337890625 688.8026319394148"  ><defs>
<linearGradient id="grad-orange" x1="0%" y1="0%" x2="100%" y2="100%">
    <stop offset="0%" stop-color="rgba(255, 109, 31, 0.28)" />
    <stop offset="100%" stop-color="rgba(255, 109, 31, 0.08)" />
  </linearGradient>
  <linearGradient id="grad-yellow" x1="0%" y1="0%" x2="100%" y2="100%">
    <stop offset="0%" stop-color="rgba(255, 212, 59, 0.28)" />
    <stop offset="100%" stop-color="rgba(255, 212, 59, 0.08)" />
  </linearGradient>
  <linearGradient id="grad-teal" x1="0%" y1="0%" x2="100%" y2="100%">
    <stop offset="0%" stop-color="rgba(0, 189, 173, 0.28)" />
    <stop offset="100%" stop-color="rgba(0, 189, 173, 0.08)" />
  </linearGradient>
  <linearGradient id="grad-cyan" x1="0%" y1="0%" x2="100%" y2="100%">
    <stop offset="0%" stop-color="rgba(34, 211, 238, 0.25)" />
    <stop offset="100%" stop-color="rgba(34, 211, 238, 0.06)" />
  </linearGradient>
  <linearGradient id="grad-magenta" x1="0%" y1="0%" x2="100%" y2="100%">
    <stop offset="0%" stop-color="rgba(214, 0, 111, 0.25)" />
    <stop offset="100%" stop-color="rgba(214, 0, 111, 0.06)" />
  </linearGradient>
  <linearGradient id="grad-purple" x1="0%" y1="0%" x2="100%" y2="100%">
    <stop offset="0%" stop-color="rgba(138, 44, 226, 0.32)" />
    <stop offset="100%" stop-color="rgba(196, 181, 253, 0.08)" />
  </linearGradient>
  <linearGradient id="grad-red" x1="0%" y1="0%" x2="100%" y2="100%">
    <stop offset="0%" stop-color="rgba(239, 68, 68, 0.25)" />
    <stop offset="100%" stop-color="rgba(239, 68, 68, 0.06)" />
  </linearGradient>
<style>
  .diagram {
  --diagram-arrow:        rgba(245, 244, 242, 0.18);
  --diagram-ink:          #f5f4f2;
  --diagram-edge:         rgba(245, 244, 242, 0.55);
  --diagram-teal:         #00bdad;
  --diagram-teal-border:  #5eead4;
  --diagram-cyan:         #22d3ee;
  --diagram-cyan-border:  #a5f3fc;
  --diagram-magenta:      #d6006f;
  --diagram-magenta-border: #f06292;
  --diagram-orange:       #ff6d1f;
  --diagram-orange-border: #ff9e5e;
  --diagram-yellow:       #ffd43b;
  --diagram-yellow-border: #ffe066;
  --diagram-purple:       #8a2ce2;
  --diagram-purple-border: #c4b5fd;
  --diagram-red:          #ef4444;
  --diagram-red-border:   #fca5a5;
  --diagram-surface:      rgba(255, 255, 255, 0.12);
  --diagram-bone:         #f5f4f2;

  }
</style>
<symbol id="image-13aa50c9c764366a12b6be72e49cf03933fa9932e551430a39e43daf0f5dc3ff39fa80f2f4eeb21fc5b0239775228329" viewBox="0 0 256 256">
<path fill="var(--diagram-ink)" d="M226.76,69a8,8,0,0,0-12.84-2.88l-40.3,37.19-17.23-3.7-3.7-17.23,37.19-40.3A8,8,0,0,0,187,29.24,72,72,0,0,0,88,96,72.34,72.34,0,0,0,94,124.94L33.79,177c-.15.12-.29.26-.43.39a32,32,0,0,0,45.26,45.26c.13-.13.27-.28.39-.42L131.06,162A72,72,0,0,0,232,96,71.56,71.56,0,0,0,226.76,69ZM160,152a56.14,56.14,0,0,1-27.07-7,8,8,0,0,0-9.92,1.77L67.11,211.51a16,16,0,0,1-22.62-22.62L109.18,133a8,8,0,0,0,1.77-9.93,56,56,0,0,1,58.36-82.31l-31.2,33.81a8,8,0,0,0-1.94,7.1L141.83,108a8,8,0,0,0,6.14,6.14l26.35,5.66a8,8,0,0,0,7.1-1.94l33.81-31.2A56.06,56.06,0,0,1,160,152Z"/>
</symbol><symbol id="image-618cd3aa9b047cb2e2bfe1403f4164c09c6d510226a46a88b06038cba571f257c3261782a8f1743d26cb44837d9cd7b8" viewBox="0 0 256 256">
<path fill="var(--diagram-ink)" d="M247.31,124.76c-.35-.79-8.82-19.58-27.65-38.41C194.57,61.26,162.88,48,128,48S61.43,61.26,36.34,86.35C17.51,105.18,9,124,8.69,124.76a8,8,0,0,0,0,6.5c.35.79,8.82,19.57,27.65,38.4C61.43,194.74,93.12,208,128,208s66.57-13.26,91.66-38.34c18.83-18.83,27.3-37.61,27.65-38.4A8,8,0,0,0,247.31,124.76ZM128,192c-30.78,0-57.67-11.19-79.93-33.25A133.47,133.47,0,0,1,25,128,133.33,133.33,0,0,1,48.07,97.25C70.33,75.19,97.22,64,128,64s57.67,11.19,79.93,33.25A133.46,133.46,0,0,1,231.05,128C223.84,141.46,192.43,192,128,192Zm0-112a48,48,0,1,0,48,48A48.05,48.05,0,0,0,128,80Zm0,80a32,32,0,1,1,32-32A32,32,0,0,1,128,160Z"/>
</symbol><symbol id="image-4a826c77eae27603b3014cf6aa98eca3e033c5177d48c2c2eaf53abf74e8bf2620e19fe95a227053d215cceef88e1b84" viewBox="0 0 256 256">
<path fill="var(--diagram-ink)" d="M248,124a56.11,56.11,0,0,0-32-50.61V72a48,48,0,0,0-88-26.49A48,48,0,0,0,40,72v1.39a56,56,0,0,0,0,101.2V176a48,48,0,0,0,88,26.49A48,48,0,0,0,216,176v-1.41A56.09,56.09,0,0,0,248,124ZM88,208a32,32,0,0,1-31.81-28.56A55.87,55.87,0,0,0,64,180h8a8,8,0,0,0,0-16H64A40,40,0,0,1,50.67,86.27,8,8,0,0,0,56,78.73V72a32,32,0,0,1,64,0v68.26A47.8,47.8,0,0,0,88,128a8,8,0,0,0,0,16,32,32,0,0,1,0,64Zm104-44h-8a8,8,0,0,0,0,16h8a55.87,55.87,0,0,0,7.81-.56A32,32,0,1,1,168,144a8,8,0,0,0,0-16,47.8,47.8,0,0,0-32,12.26V72a32,32,0,0,1,64,0v6.73a8,8,0,0,0,5.33,7.54A40,40,0,0,1,192,164Zm16-52a8,8,0,0,1-8,8h-4a36,36,0,0,1-36-36V80a8,8,0,0,1,16,0v4a20,20,0,0,0,20,20h4A8,8,0,0,1,208,112ZM60,120H56a8,8,0,0,1,0-16h4A20,20,0,0,0,80,84V80a8,8,0,0,1,16,0v4A36,36,0,0,1,60,120Z"/>
</symbol></defs><g stroke-linecap="round"><g transform="translate(878.7553192856531 107.14973410721223) rotate(0 94.02517146548053 123.95090666081887)"><path d="M0 0 C29.21 11.15, 146.19 25.57, 175.28 66.89 C204.37 108.2, 174.67 217.73, 174.54 247.9 M0 0 C29.21 11.15, 146.19 25.57, 175.28 66.89 C204.37 108.2, 174.67 217.73, 174.54 247.9" stroke="var(--diagram-orange-border)" stroke-width="4" fill="none"></path></g><g transform="translate(878.7553192856531 107.14973410721223) rotate(0 94.02517146548053 123.95090666081887)"><path d="M174.54 247.9 L169.98 233.61 L182.56 235.22 L174.54 247.9" stroke="none" stroke-width="0" fill="#f08c00" fill-rule="evenodd"></path><path d="M174.54 247.9 C173.04 243.18, 171.53 238.45, 169.98 233.61 M174.54 247.9 C173.32 244.07, 172.1 240.25, 169.98 233.61 M169.98 233.61 C174.37 234.17, 178.76 234.74, 182.56 235.22 M169.98 233.61 C174.58 234.2, 179.18 234.79, 182.56 235.22 M182.56 235.22 C179.47 240.12, 176.37 245.01, 174.54 247.9 M182.56 235.22 C179.37 240.27, 176.18 245.31, 174.54 247.9 M174.54 247.9 C174.54 247.9, 174.54 247.9, 174.54 247.9 M174.54 247.9 C174.54 247.9, 174.54 247.9, 174.54 247.9" stroke="var(--diagram-orange-border)" stroke-width="4" fill="none"></path></g></g><mask></mask><g stroke-linecap="round" transform="translate(426.20670572916606 10) rotate(0 215.8134765625 82.6240234375)"><path d="M32 0 C140.97 0, 249.94 0, 399.63 0 C420.96 0, 431.63 10.67, 431.63 32 C431.63 69.62, 431.63 107.24, 431.63 133.25 C431.63 154.58, 420.96 165.25, 399.63 165.25 C311.97 165.25, 224.32 165.25, 32 165.25 C10.67 165.25, 0 154.58, 0 133.25 C0 103.47, 0 73.69, 0 32 C0 10.67, 10.67 0, 32 0" stroke="none" stroke-width="0" fill="url(#grad-orange)"></path><path d="M32 0 C153.29 0, 274.58 0, 399.63 0 M32 0 C127.46 0, 222.93 0, 399.63 0 M399.63 0 C420.96 0, 431.63 10.67, 431.63 32 M399.63 0 C420.96 0, 431.63 10.67, 431.63 32 M431.63 32 C431.63 65.16, 431.63 98.32, 431.63 133.25 M431.63 32 C431.63 56.49, 431.63 80.98, 431.63 133.25 M431.63 133.25 C431.63 154.58, 420.96 165.25, 399.63 165.25 M431.63 133.25 C431.63 154.58, 420.96 165.25, 399.63 165.25 M399.63 165.25 C307.7 165.25, 215.77 165.25, 32 165.25 M399.63 165.25 C261.81 165.25, 124 165.25, 32 165.25 M32 165.25 C10.67 165.25, 0 154.58, 0 133.25 M32 165.25 C10.67 165.25, 0 154.58, 0 133.25 M0 133.25 C0 103.26, 0 73.27, 0 32 M0 133.25 C0 105.21, 0 77.18, 0 32 M0 32 C0 10.67, 10.67 0, 32 0 M0 32 C0 10.67, 10.67 0, 32 0" stroke="#f59e0b" stroke-width="4" fill="none"></path></g><g transform="translate(595.7865600585938 68.08854166666606) rotate(0 73.28315794467926 27.7587890625)"><text x="73.28315794467925" y="38.86230468749999" font-family="Comic Shanns, monospace, Segoe UI Emoji" font-size="44.41406249999999px" fill="#f59e0b" text-anchor="middle" style="white-space: pre;" direction="ltr" dominant-baseline="alphabetic">Reason</text></g><g stroke-linecap="round" transform="translate(853.7109375 380.65071614583303) rotate(0 215.8134765625 82.6240234375)"><path d="M32 0 C129.03 0, 226.07 0, 399.63 0 C420.96 0, 431.63 10.67, 431.63 32 C431.63 63.65, 431.63 95.3, 431.63 133.25 C431.63 154.58, 420.96 165.25, 399.63 165.25 C298.69 165.25, 197.75 165.25, 32 165.25 C10.67 165.25, 0 154.58, 0 133.25 C0 97.73, 0 62.22, 0 32 C0 10.67, 10.67 0, 32 0" stroke="none" stroke-width="0" fill="url(#grad-orange)"></path><path d="M32 0 C160.91 0, 289.82 0, 399.63 0 M32 0 C157.39 0, 282.78 0, 399.63 0 M399.63 0 C420.96 0, 431.63 10.67, 431.63 32 M399.63 0 C420.96 0, 431.63 10.67, 431.63 32 M431.63 32 C431.63 54.29, 431.63 76.58, 431.63 133.25 M431.63 32 C431.63 67.21, 431.63 102.42, 431.63 133.25 M431.63 133.25 C431.63 154.58, 420.96 165.25, 399.63 165.25 M431.63 133.25 C431.63 154.58, 420.96 165.25, 399.63 165.25 M399.63 165.25 C256.97 165.25, 114.32 165.25, 32 165.25 M399.63 165.25 C281.93 165.25, 164.24 165.25, 32 165.25 M32 165.25 C10.67 165.25, 0 154.58, 0 133.25 M32 165.25 C10.67 165.25, 0 154.58, 0 133.25 M0 133.25 C0 95.78, 0 58.32, 0 32 M0 133.25 C0 104.47, 0 75.69, 0 32 M0 32 C0 10.67, 10.67 0, 32 0 M0 32 C0 10.67, 10.67 0, 32 0" stroke="#f59e0b" stroke-width="4" fill="none"></path></g><g transform="translate(1066.0265808105469 428.57454427083303) rotate(0 40.74079519510269 30.8642578125)"><text x="40.74079519510267" y="43.20996093749998" font-family="Comic Shanns, monospace, Segoe UI Emoji" font-size="49.38281249999998px" fill="#f59e0b" text-anchor="middle" style="white-space: pre;" direction="ltr" dominant-baseline="alphabetic">Act</text></g><g stroke-linecap="round" transform="translate(10 387.88313802083303) rotate(0 215.8134765625 82.6240234375)"><path d="M32 0 C133.42 0, 234.85 0, 399.63 0 C420.96 0, 431.63 10.67, 431.63 32 C431.63 57.27, 431.63 82.54, 431.63 133.25 C431.63 154.58, 420.96 165.25, 399.63 165.25 C316.86 165.25, 234.1 165.25, 32 165.25 C10.67 165.25, 0 154.58, 0 133.25 C0 105.98, 0 78.72, 0 32 C0 10.67, 10.67 0, 32 0" stroke="none" stroke-width="0" fill="url(#grad-orange)"></path><path d="M32 0 C130.15 0, 228.29 0, 399.63 0 M32 0 C121.58 0, 211.15 0, 399.63 0 M399.63 0 C420.96 0, 431.63 10.67, 431.63 32 M399.63 0 C420.96 0, 431.63 10.67, 431.63 32 M431.63 32 C431.63 58.92, 431.63 85.85, 431.63 133.25 M431.63 32 C431.63 59.54, 431.63 87.08, 431.63 133.25 M431.63 133.25 C431.63 154.58, 420.96 165.25, 399.63 165.25 M431.63 133.25 C431.63 154.58, 420.96 165.25, 399.63 165.25 M399.63 165.25 C256.34 165.25, 113.05 165.25, 32 165.25 M399.63 165.25 C260.74 165.25, 121.85 165.25, 32 165.25 M32 165.25 C10.67 165.25, 0 154.58, 0 133.25 M32 165.25 C10.67 165.25, 0 154.58, 0 133.25 M0 133.25 C0 95.64, 0 58.03, 0 32 M0 133.25 C0 103.39, 0 73.54, 0 32 M0 32 C0 10.67, 10.67 0, 32 0 M0 32 C0 10.67, 10.67 0, 32 0" stroke="#f59e0b" stroke-width="4" fill="none"></path></g><g transform="translate(167.36019897460938 446.27376302083303) rotate(0 85.0759241117371 27.6220703125)"><text x="85.07592411173715" y="38.67089843750001" font-family="Comic Shanns, monospace, Segoe UI Emoji" font-size="44.19531250000001px" fill="#f59e0b" text-anchor="middle" style="white-space: pre;" direction="ltr" dominant-baseline="alphabetic">Observe</text></g><g transform="translate(502.73708396711845 54.07104991639426) rotate(0 40.109375 40.109375)"><use href="#image-4a826c77eae27603b3014cf6aa98eca3e033c5177d48c2c2eaf53abf74e8bf2620e19fe95a227053d215cceef88e1b84" width="80" height="80" opacity="1"></use></g><g transform="translate(80.07497459211845 430.23706554139426) rotate(0 36.640625 36.640625)"><use href="#image-618cd3aa9b047cb2e2bfe1403f4164c09c6d510226a46a88b06038cba571f257c3261782a8f1743d26cb44837d9cd7b8" width="73" height="73" opacity="1"></use></g><g transform="translate(974.2761464671185 419.00659679139426) rotate(0 39.49609375 39.49609375)"><use href="#image-13aa50c9c764366a12b6be72e49cf03933fa9932e551430a39e43daf0f5dc3ff39fa80f2f4eeb21fc5b0239775228329" width="79" height="79" opacity="1"></use></g><g transform="translate(561.9265676096966 269.35034679139426) rotate(0 96.99115114079586 44.0869140625)"><text x="96.99115114079582" y="61.72167968749998" font-family="Comic Shanns, monospace, Segoe UI Emoji" font-size="70.53906249999997px" fill="var(--diagram-ink)" text-anchor="middle" style="white-space: pre;" direction="ltr" dominant-baseline="alphabetic">Agent</text></g><g stroke-linecap="round"><g transform="translate(543.9885045318933 410.26136855337427) rotate(117.65131917386276 100.73608053127327 167.46417901721475)"><path d="M0 0 C31.02 18.79, 154.27 56.91, 186.12 112.73 C217.96 168.55, 190.26 297.9, 191.09 334.93 M0 0 C31.02 18.79, 154.27 56.91, 186.12 112.73 C217.96 168.55, 190.26 297.9, 191.09 334.93" stroke="var(--diagram-orange-border)" stroke-width="4" fill="none"></path></g><g transform="translate(543.9885045318933 410.26136855337427) rotate(117.65131917386276 100.73608053127327 167.46417901721475)"><path d="M191.09 334.93 L185.93 320.84 L198.56 321.92 L191.09 334.93" stroke="none" stroke-width="0" fill="#f08c00" fill-rule="evenodd"></path><path d="M191.09 334.93 C189.1 329.5, 187.11 324.07, 185.93 320.84 M191.09 334.93 C189.94 331.8, 188.79 328.66, 185.93 320.84 M185.93 320.84 C189.77 321.17, 193.61 321.5, 198.56 321.92 M185.93 320.84 C189.93 321.19, 193.93 321.53, 198.56 321.92 M198.56 321.92 C196.7 325.15, 194.85 328.39, 191.09 334.93 M198.56 321.92 C196.54 325.44, 194.51 328.97, 191.09 334.93 M191.09 334.93 C191.09 334.93, 191.09 334.93, 191.09 334.93 M191.09 334.93 C191.09 334.93, 191.09 334.93, 191.09 334.93" stroke="var(--diagram-orange-border)" stroke-width="4" fill="none"></path></g></g><mask></mask><g stroke-linecap="round"><g transform="translate(210.41464635965895 109.14143065949702) rotate(249.33097971391987 94.02517146548053 123.95090666081887)"><path d="M0 0 C29.21 11.15, 146.19 25.57, 175.28 66.89 C204.37 108.2, 174.67 217.73, 174.54 247.9 M0 0 C29.21 11.15, 146.19 25.57, 175.28 66.89 C204.37 108.2, 174.67 217.73, 174.54 247.9" stroke="var(--diagram-orange-border)" stroke-width="4" fill="none"></path></g><g transform="translate(210.41464635965895 109.14143065949702) rotate(249.33097971391987 94.02517146548053 123.95090666081887)"><path d="M174.54 247.9 L169.98 233.61 L182.56 235.22 L174.54 247.9" stroke="none" stroke-width="0" fill="#f08c00" fill-rule="evenodd"></path><path d="M174.54 247.9 C173.63 245.03, 172.71 242.16, 169.98 233.61 M174.54 247.9 C173.63 245.03, 172.71 242.17, 169.98 233.61 M169.98 233.61 C172.98 234, 175.98 234.38, 182.56 235.22 M169.98 233.61 C174.96 234.25, 179.94 234.89, 182.56 235.22 M182.56 235.22 C180.53 238.43, 178.51 241.63, 174.54 247.9 M182.56 235.22 C179.87 239.48, 177.18 243.73, 174.54 247.9 M174.54 247.9 C174.54 247.9, 174.54 247.9, 174.54 247.9 M174.54 247.9 C174.54 247.9, 174.54 247.9, 174.54 247.9" stroke="var(--diagram-orange-border)" stroke-width="4" fill="none"></path></g></g><mask></mask></svg>
