<?xml version="1.0" encoding="UTF-8"?>
<svg class="diagram" version="1.1" xmlns="http://www.w3.org/2000/svg" viewBox="0 0 1101.0692382142865 721.7513835476188"  ><defs>
<linearGradient id="grad-orange" x1="0%" y1="0%" x2="100%" y2="100%">
    <stop offset="0%" stop-color="rgba(255, 109, 31, 0.28)" />
    <stop offset="100%" stop-color="rgba(255, 109, 31, 0.08)" />
  </linearGradient>
  <linearGradient id="grad-yellow" x1="0%" y1="0%" x2="100%" y2="100%">
    <stop offset="0%" stop-color="rgba(255, 212, 59, 0.28)" />
    <stop offset="100%" stop-color="rgba(255, 212, 59, 0.08)" />
  </linearGradient>
  <linearGradient id="grad-teal" x1="0%" y1="0%" x2="100%" y2="100%">
    <stop offset="0%" stop-color="rgba(0, 189, 173, 0.28)" />
    <stop offset="100%" stop-color="rgba(0, 189, 173, 0.08)" />
  </linearGradient>
  <linearGradient id="grad-cyan" x1="0%" y1="0%" x2="100%" y2="100%">
    <stop offset="0%" stop-color="rgba(34, 211, 238, 0.25)" />
    <stop offset="100%" stop-color="rgba(34, 211, 238, 0.06)" />
  </linearGradient>
  <linearGradient id="grad-magenta" x1="0%" y1="0%" x2="100%" y2="100%">
    <stop offset="0%" stop-color="rgba(214, 0, 111, 0.25)" />
    <stop offset="100%" stop-color="rgba(214, 0, 111, 0.06)" />
  </linearGradient>
  <linearGradient id="grad-success" x1="0%" y1="0%" x2="100%" y2="100%">
    <stop offset="0%" stop-color="rgba(34, 197, 94, 0.25)" />
    <stop offset="100%" stop-color="rgba(34, 197, 94, 0.06)" />
  </linearGradient>
  <linearGradient id="grad-error" x1="0%" y1="0%" x2="100%" y2="100%">
    <stop offset="0%" stop-color="rgba(239, 68, 68, 0.25)" />
    <stop offset="100%" stop-color="rgba(239, 68, 68, 0.06)" />
  </linearGradient>
<style>
  .diagram {
  --diagram-arrow:        rgba(245, 244, 242, 0.18);
  --diagram-ink:          #f5f4f2;
  --diagram-edge:         rgba(245, 244, 242, 0.55);
  --diagram-teal:         #00bdad;
  --diagram-teal-border:  #5eead4;
  --diagram-cyan:         #22d3ee;
  --diagram-cyan-border:  #a5f3fc;
  --diagram-magenta:      #d6006f;
  --diagram-magenta-border: #f06292;
  --diagram-orange:       #ff6d1f;
  --diagram-orange-border: #ff9e5e;
  --diagram-yellow:       #ffd43b;
  --diagram-yellow-border: #ffe066;
  --diagram-success:      #22c55e;
  --diagram-success-border: #86efac;
  --diagram-error:        #ef4444;
  --diagram-error-border: #fca5a5;
  --diagram-surface:      rgba(255, 255, 255, 0.12);
  --diagram-bone:         #f5f4f2;

  }
</style>
<symbol id="image-1886b6c1744430b3ecdc697520906edc77e293593424cc440b9f5bf746a505d529197bded04480ad9e94d5a7a35c06fa" viewBox="0 0 24 24">
<path d="M13 2L3 14h9l-1 8 10-12h-9l1-8z" fill="var(--diagram-magenta)"/>
</symbol><symbol id="image-19ad596aeaf46477a96f4c93c45122677b85883fa5b84444d369d3f38656ab7c8a234033291dc90153af4072521df306" viewBox="138 139 926 1650">
<g transform="translate(0.000000,1902.000000) scale(0.100000,-0.100000)" fill="#F59E0B" stroke="none">
<path fill="#F59E0B" d="M2839 17277 c-35 -35 -85 -88 -111 -118 -27 -30 -86 -97 -133 -149 -46 -52 -99 -121 -116 -153 -17 -32 -44 -73 -59 -90 -15 -18 -35 -49 -44 -70 -9 -22 -27 -52 -41 -68 -13 -17 -59 -101 -101 -187 -42 -86 -96 -195 -119 -242 -23 -47 -48 -103 -55 -125 -7 -22 -23 -61 -36 -87 -29 -58 -81 -195 -99 -263 -8 -27 -23 -81 -35 -120 -35 -118 -111 -416 -126 -490 -23 -124 -63 -398 -79 -548 -19 -182 -19 -582 -1 -722 8 -55 25 -199 40 -320 15 -121 31 -233 37 -250 6 -16 19 -68 29 -115 10 -47 34 -136 54 -198 20 -63 36 -120 36 -128 0 -7 9 -33 19 -56 22 -49 63 -178 81 -252 6 -27 24 -75 41 -105 16 -31 29 -64 29 -73 0 -9 22 -61 49 -115 26 -54 85 -174 131 -268 91 -187 183 -345 240 -415 21 -25 45 -58 53 -75 8 -16 39 -61 68 -100 29 -38 57 -83 63 -100 13 -35 100 -148 169 -216 26 -27 47 -53 47 -58 0 -5 21 -31 48 -59 26 -27 90 -100 142 -162 155 -184 222 -260 229 -260 16 0 156 -133 348 -332 56 -57 139 -133 185 -167 45 -35 87 -69 91 -77 4 -8 68 -59 141 -113 133 -100 275 -218 351 -292 89 -87 234 -209 308 -258 43 -29 81 -59 84 -67 3 -8 49 -47 101 -87 53 -39 129 -103 169 -142 77 -74 85 -93 62 -152 -6 -15 -15 -64 -20 -107 -9 -79 -20 -106 -43 -106 -13 0 -103 65 -151 109 -16 15 -58 45 -92 67 -35 21 -93 63 -130 92 -38 29 -80 60 -94 67 -14 8 -34 25 -43 39 -9 14 -38 37 -64 51 -26 14 -60 35 -77 46 -74 51 -214 127 -261 143 -27 9 -75 32 -105 52 -30 19 -79 42 -109 50 -30 9 -95 33 -145 54 -49 21 -110 44 -135 51 -25 6 -81 24 -125 39 -163 57 -372 83 -622 78 -151 -3 -173 -5 -192 -22 -30 -27 -26 -53 14 -116 19 -30 35 -64 35 -76 0 -12 16 -46 36 -75 20 -30 52 -90 70 -133 38 -90 89 -167 181 -276 35 -41 92 -108 126 -149 144 -171 211 -230 432 -381 112 -77 257 -155 305 -165 19 -3 69 -22 110 -40 132 -60 209 -86 288 -100 42 -8 94 -21 115 -30 20 -8 86 -20 145 -26 59 -5 130 -12 157 -15 78 -8 79 -9 60 -100 -9 -45 -31 -105 -49 -139 -18 -33 -43 -90 -55 -127 -11 -37 -66 -155 -121 -261 -54 -107 -113 -230 -129 -273 -41 -111 -114 -274 -160 -358 -21 -39 -42 -84 -45 -101 -8 -35 -41 -105 -71 -155 -12 -19 -29 -60 -38 -90 -9 -30 -32 -81 -52 -113 -19 -32 -38 -77 -42 -100 -3 -23 -13 -53 -22 -66 -19 -29 -53 -109 -91 -211 -16 -41 -42 -101 -59 -134 -17 -32 -31 -68 -31 -80 0 -11 -7 -34 -16 -51 -19 -37 -110 -319 -129 -400 -8 -33 -21 -80 -29 -105 -77 -241 -91 -943 -25 -1238 5 -24 16 -60 24 -79 8 -20 24 -74 36 -122 22 -92 68 -222 119 -336 61 -136 113 -240 128 -258 21 -24 84 -136 126 -224 19 -39 53 -98 75 -132 23 -33 46 -72 51 -87 6 -15 40 -62 75 -104 36 -43 80 -104 98 -136 18 -33 44 -72 58 -88 90 -106 125 -146 158 -181 51 -54 194 -234 234 -295 12 -19 42 -49 67 -68 25 -19 54 -48 65 -66 23 -36 177 -192 227 -229 18 -13 44 -27 57 -30 33 -8 138 37 176 75 17 17 46 42 65 57 19 14 58 46 87 72 55 50 188 152 239 184 61 39 308 225 370 279 23 20 45 36 49 36 4 0 27 18 51 40 24 22 48 40 54 40 6 0 36 21 67 46 32 26 87 66 123 89 36 23 74 52 85 65 11 12 38 31 60 43 38 19 73 45 168 128 37 31 101 78 251 184 24 17 67 51 97 76 30 25 70 55 89 67 19 12 60 47 90 77 30 31 80 72 110 92 30 20 66 46 80 58 14 13 63 49 110 80 47 31 95 66 107 78 25 22 39 74 28 106 -6 20 -77 77 -149 119 -22 13 -56 37 -76 55 -20 18 -70 52 -110 77 -40 25 -92 63 -114 86 -23 23 -57 48 -76 58 -45 21 -152 116 -306 270 -265 265 -288 295 -399 513 -11 24 -31 52 -43 63 -12 12 -22 28 -22 36 0 8 -18 69 -40 134 -64 189 -72 242 -60 385 5 67 18 160 29 206 10 46 22 105 25 131 4 26 11 50 15 53 5 2 14 26 21 52 19 71 93 199 168 291 37 45 77 95 89 111 12 16 36 31 53 35 17 3 45 17 63 30 43 32 124 68 227 101 47 15 105 35 130 45 58 24 184 44 280 44 41 1 320 -1 620 -3 479 -3 555 -1 625 13 137 29 211 74 384 233 96 89 186 211 210 284 18 57 -3 109 -55 134 -42 20 -70 42 -169 128 -30 26 -60 47 -65 47 -16 0 -296 255 -400 363 -36 38 -135 140 -220 226 -85 86 -168 172 -185 191 -16 19 -54 62 -83 95 -29 33 -70 80 -90 104 -61 74 -274 281 -317 308 -22 15 -45 33 -51 41 -6 8 -24 22 -41 31 -16 9 -63 39 -102 66 -40 28 -96 65 -124 83 -28 17 -67 45 -87 61 -20 16 -51 32 -70 36 -19 4 -42 13 -50 20 -30 26 -146 84 -192 95 -109 28 -91 63 117 230 172 138 226 183 299 250 39 36 91 82 116 102 63 50 256 219 310 271 25 24 74 65 110 93 36 27 97 78 135 114 39 36 95 85 125 109 30 23 129 116 220 204 91 89 203 196 249 237 45 41 111 109 145 150 35 41 93 109 131 150 37 41 98 109 136 150 74 82 156 185 206 261 18 26 41 53 53 59 11 6 32 34 46 63 36 71 209 332 256 386 21 24 38 53 38 65 0 12 21 59 46 106 83 155 182 354 194 394 7 22 21 53 30 70 10 17 30 67 44 111 31 97 57 178 103 310 19 55 45 143 58 195 13 52 35 140 49 195 15 55 26 114 26 131 0 18 7 65 15 105 8 41 27 148 42 239 26 157 27 185 30 590 4 466 5 457 -67 855 -16 88 -32 187 -35 219 -4 33 -22 119 -41 190 -19 72 -34 142 -34 155 0 13 -9 42 -19 65 -54 113 -91 207 -106 266 -9 36 -36 115 -60 176 -25 62 -45 116 -45 122 0 22 -148 287 -220 392 -9 14 -25 41 -35 60 -10 19 -29 49 -42 65 -29 36 -119 173 -155 235 -14 25 -58 77 -97 117 -39 40 -71 77 -71 83 0 6 -34 44 -76 85 -59 59 -81 75 -104 75 -20 0 -33 -7 -41 -21 -18 -35 -6 -119 24 -164 14 -22 31 -62 37 -89 6 -27 19 -61 30 -76 10 -14 24 -49 31 -76 6 -27 19 -62 27 -78 8 -16 23 -54 33 -85 11 -30 29 -65 40 -77 13 -14 23 -45 29 -85 5 -35 20 -91 33 -125 13 -33 43 -132 66 -220 23 -87 55 -208 71 -269 17 -60 44 -174 60 -253 17 -79 37 -160 46 -180 18 -44 40 -219 49 -397 4 -71 13 -166 21 -210 51 -283 55 -431 24 -765 -23 -252 -47 -459 -60 -515 -5 -22 -16 -83 -25 -135 -8 -52 -25 -133 -36 -180 -11 -47 -26 -112 -33 -145 -8 -33 -28 -98 -45 -145 -18 -47 -46 -125 -64 -174 -35 -98 -57 -123 -81 -91 -8 11 -19 43 -24 70 -49 250 -78 368 -102 413 -11 20 -20 48 -20 63 0 37 -19 88 -50 134 -15 22 -39 63 -53 90 -14 28 -48 84 -77 125 -28 41 -57 89 -64 105 -7 17 -29 49 -49 72 -19 24 -38 56 -42 72 -3 16 -24 50 -46 74 -21 25 -47 64 -58 88 -10 24 -41 64 -67 89 -53 50 -91 91 -281 300 -78 87 -244 220 -273 220 -9 0 -24 -6 -35 -13 -16 -13 -17 -19 -5 -79 9 -49 22 -79 50 -117 21 -28 41 -66 45 -83 9 -41 78 -168 104 -192 11 -10 40 -79 66 -160 26 -77 70 -190 99 -251 30 -60 57 -121 61 -135 4 -14 20 -50 35 -80 15 -30 40 -109 55 -175 15 -66 33 -138 40 -160 18 -50 49 -213 72 -370 23 -155 23 -559 0 -747 -15 -127 -21 -152 -82 -353 -19 -60 -41 -139 -49 -175 -8 -36 -28 -90 -45 -120 -17 -30 -31 -66 -31 -80 0 -15 -21 -54 -47 -90 -26 -36 -65 -96 -86 -135 -22 -38 -66 -105 -99 -148 -32 -43 -65 -92 -73 -108 -9 -16 -36 -52 -60 -81 -25 -29 -71 -84 -103 -121 -77 -92 -441 -456 -472 -472 -14 -7 -39 -28 -55 -47 -17 -18 -62 -58 -99 -88 -38 -30 -92 -74 -119 -97 -28 -24 -54 -43 -58 -43 -3 0 -39 -27 -80 -60 -40 -33 -78 -60 -83 -60 -6 0 -26 -15 -46 -34 -19 -19 -63 -54 -96 -78 -34 -23 -99 -71 -145 -105 -45 -35 -86 -63 -91 -63 -5 0 -26 -11 -46 -25 -20 -14 -44 -25 -53 -25 -9 0 -43 -18 -75 -40 -35 -23 -80 -44 -112 -51 -29 -6 -78 -24 -109 -40 -30 -16 -62 -29 -72 -29 -9 0 -34 -7 -56 -15 -49 -17 -234 -20 -337 -4 -70 11 -253 67 -310 95 -14 8 -33 20 -41 28 -8 8 -37 27 -63 42 -27 14 -58 35 -69 44 -11 10 -38 25 -60 35 -22 9 -49 24 -60 34 -11 10 -39 28 -63 40 -50 25 -144 90 -259 177 -45 34 -91 65 -104 69 -12 4 -55 37 -95 74 -108 98 -261 232 -308 267 -58 45 -437 421 -471 469 -16 22 -53 65 -81 96 -32 34 -57 72 -65 98 -7 23 -24 51 -38 62 -14 11 -46 48 -71 83 -25 35 -58 81 -73 102 -55 76 -117 178 -117 193 0 8 -17 46 -39 85 -21 39 -44 96 -51 126 -7 30 -26 81 -41 112 -16 32 -29 66 -29 76 0 27 -34 155 -60 227 -37 101 -58 329 -54 573 2 117 6 216 8 221 3 4 10 63 16 132 5 68 21 162 34 209 13 47 28 116 34 153 6 41 27 103 51 155 41 88 71 185 71 232 0 14 9 40 21 59 11 18 36 77 55 130 19 53 55 139 80 191 107 221 126 261 174 370 29 63 56 131 62 150 5 19 18 44 29 56 53 57 -11 113 -74 64 -14 -11 -29 -20 -34 -20 -5 0 -50 -41 -101 -90 -51 -50 -106 -99 -122 -109 -16 -9 -43 -34 -59 -55 -16 -20 -41 -46 -56 -57 -14 -12 -33 -35 -42 -52 -16 -32 -50 -76 -128 -166 -23 -25 -60 -71 -83 -101 -23 -30 -62 -80 -86 -110 -25 -30 -52 -76 -61 -102 -9 -26 -21 -50 -26 -53 -20 -13 -203 -396 -234 -490 -19 -55 -45 -131 -60 -169 -14 -38 -30 -101 -35 -140 -5 -39 -17 -104 -26 -143 -17 -78 -32 -90 -58 -50 -22 33 -70 188 -96 307 -12 58 -31 122 -41 143 -19 36 -35 105 -79 347 -11 63 -27 140 -35 170 -26 103 -38 275 -36 535 2 523 18 831 47 902 7 18 16 54 19 80 4 26 16 99 26 161 10 63 19 140 19 171 0 58 15 123 70 306 16 55 35 127 41 160 6 33 28 112 49 175 21 63 43 138 50 165 6 28 21 66 32 85 12 19 45 109 74 200 29 91 64 197 79 235 14 39 31 84 36 102 5 17 30 72 54 121 48 96 55 143 29 180 -24 35 -47 27 -115 -41z m3884 -9263 c23 -9 85 -28 137 -44 114 -33 198 -70 224 -99 11 -11 26 -21 34 -21 8 0 36 -21 62 -47 27 -27 80 -77 119 -113 39 -36 85 -83 101 -104 42 -56 30 -66 -82 -66 -70 0 -97 4 -130 21 -22 11 -70 25 -106 30 -74 11 -208 65 -253 103 -17 14 -36 26 -44 26 -7 0 -27 17 -44 38 -17 20 -39 46 -49 57 -10 11 -29 36 -42 55 -13 19 -39 51 -58 70 -42 43 -65 87 -57 107 4 13 17 15 75 9 39 -3 89 -13 113 -22z"/>
</g>
</symbol></defs><g transform="translate(12.466969357143398 87.16512692857168) rotate(0 142.46389770507812 17.5)"><text x="0" y="26.712" font-family="Nunito, sans-serif, Segoe UI Emoji" font-size="28px" fill="var(--diagram-ink)" text-anchor="start" style="white-space: pre;" direction="ltr" dominant-baseline="alphabetic">Agent Without Amber</text></g><g stroke-linecap="round"><g transform="translate(176.22209857142911 323.9230907857145) rotate(0 0 0)"><path d="M0 0 C0 0, 0 0, 0 0 M0 0 C0 0, 0 0, 0 0" stroke="var(--diagram-magenta-border)" stroke-width="1" fill="none"></path></g></g><mask></mask><g transform="translate(12.466969357143626 398.11490785714295) rotate(0 117.64192199707031 17.5)"><text x="0" y="26.712" font-family="Nunito, sans-serif, Segoe UI Emoji" font-size="28px" fill="#f59e0b" text-anchor="start" style="white-space: pre;" direction="ltr" dominant-baseline="alphabetic">Agent with Amber</text></g><g transform="translate(664.5703126428593 122.16512700892918) rotate(0 33.78197479248047 17.5)"><text x="33.78197479248047" y="26.712" font-family="Nunito, sans-serif, Segoe UI Emoji" font-size="28px" fill="var(--diagram-magenta)" text-anchor="middle" style="white-space: pre;" direction="ltr" dominant-baseline="alphabetic">crash</text></g><g stroke-linecap="round"><g transform="translate(664.5703128571445 327.48335864285764) rotate(0 -274.5005580357142 -0.13950892857133113)"><path d="M0 0 C-91.5 -0.05, -457.5 -0.23, -549 -0.28" stroke="var(--diagram-magenta-border)" stroke-width="4.5" fill="none" stroke-dasharray="8 12"></path></g></g><mask></mask><g stroke-linecap="round"><g transform="translate(112.60602714285801 323.24228721428653) rotate(0 -1.0583382676354631 -22.431613134536747)"><path d="M0 0 C-0.71 -14.95, -1.41 -29.89, -2.12 -44.86" stroke="var(--diagram-magenta-border)" stroke-width="4.5" fill="none" stroke-dasharray="8 12"></path></g><g transform="translate(112.60602714285801 323.24228721428653) rotate(0 -1.0583382676354631 -22.431613134536747)"><path d="M6.55 -24.15 C3.66 -31.05, 0.77 -37.95, -2.12 -44.86" stroke="var(--diagram-magenta-border)" stroke-width="4.5" fill="none"></path></g><g transform="translate(112.60602714285801 323.24228721428653) rotate(0 -1.0583382676354631 -22.431613134536747)"><path d="M-8.79 -23.42 C-6.57 -30.57, -4.34 -37.71, -2.12 -44.86" stroke="var(--diagram-magenta-border)" stroke-width="4.5" fill="none"></path></g></g><mask></mask><g transform="translate(221.76570420898588 10) rotate(0 313.2357482910156 17.5)"><text x="313.2357482910156" y="26.712" font-family="Nunito, sans-serif, Segoe UI Emoji" font-size="28px" fill="var(--diagram-ink)" text-anchor="middle" style="white-space: pre;" direction="ltr" dominant-baseline="alphabetic">User Request: Research a topic and write a report</text></g><g stroke-linecap="round" transform="translate(10 161.48418700000047) rotate(0 100.13905818996591 54.94743697260628)"><path d="M27.47 0 C71.42 0, 115.36 0, 172.8 0 C191.12 0, 200.28 9.16, 200.28 27.47 C200.28 42.35, 200.28 57.22, 200.28 82.42 C200.28 100.74, 191.12 109.89, 172.8 109.89 C116.97 109.89, 61.14 109.89, 27.47 109.89 C9.16 109.89, 0 100.74, 0 82.42 C0 60.77, 0 39.13, 0 27.47 C0 9.16, 9.16 0, 27.47 0" stroke="none" stroke-width="0" fill="url(#grad-teal)"></path><path d="M27.47 0 C60.66 0, 93.84 0, 172.8 0 M27.47 0 C82.52 0, 137.56 0, 172.8 0 M172.8 0 C191.12 0, 200.28 9.16, 200.28 27.47 M172.8 0 C191.12 0, 200.28 9.16, 200.28 27.47 M200.28 27.47 C200.28 45.62, 200.28 63.78, 200.28 82.42 M200.28 27.47 C200.28 38.59, 200.28 49.71, 200.28 82.42 M200.28 82.42 C200.28 100.74, 191.12 109.89, 172.8 109.89 M200.28 82.42 C200.28 100.74, 191.12 109.89, 172.8 109.89 M172.8 109.89 C125.65 109.89, 78.5 109.89, 27.47 109.89 M172.8 109.89 C122.02 109.89, 71.23 109.89, 27.47 109.89 M27.47 109.89 C9.16 109.89, 0 100.74, 0 82.42 M27.47 109.89 C9.16 109.89, 0 100.74, 0 82.42 M0 82.42 C0 70.12, 0 57.81, 0 27.47 M0 82.42 C0 66.31, 0 50.19, 0 27.47 M0 27.47 C0 9.16, 9.16 0, 27.47 0 M0 27.47 C0 9.16, 9.16 0, 27.47 0" stroke="var(--diagram-teal-border)" stroke-width="4" fill="none"></path></g><g stroke-linecap="round" transform="translate(292.0000000000002 161.34091800000033) rotate(0 100.13905818996568 56.74603908420886)"><path d="M28.37 0 C73.27 0, 118.17 0, 171.91 0 C190.82 0, 200.28 9.46, 200.28 28.37 C200.28 50.43, 200.28 72.5, 200.28 85.12 C200.28 104.03, 190.82 113.49, 171.91 113.49 C127.71 113.49, 83.52 113.49, 28.37 113.49 C9.46 113.49, 0 104.03, 0 85.12 C0 68.03, 0 50.94, 0 28.37 C0 9.46, 9.46 0, 28.37 0" stroke="none" stroke-width="0" fill="url(#grad-teal)"></path><path d="M28.37 0 C73.17 0, 117.97 0, 171.91 0 M28.37 0 C76.01 0, 123.64 0, 171.91 0 M171.91 0 C190.82 0, 200.28 9.46, 200.28 28.37 M171.91 0 C190.82 0, 200.28 9.46, 200.28 28.37 M200.28 28.37 C200.28 45.9, 200.28 63.43, 200.28 85.12 M200.28 28.37 C200.28 42.68, 200.28 56.98, 200.28 85.12 M200.28 85.12 C200.28 104.03, 190.82 113.49, 171.91 113.49 M200.28 85.12 C200.28 104.03, 190.82 113.49, 171.91 113.49 M171.91 113.49 C122.14 113.49, 72.38 113.49, 28.37 113.49 M171.91 113.49 C122.66 113.49, 73.41 113.49, 28.37 113.49 M28.37 113.49 C9.46 113.49, 0 104.03, 0 85.12 M28.37 113.49 C9.46 113.49, 0 104.03, 0 85.12 M0 85.12 C0 63.84, 0 42.56, 0 28.37 M0 85.12 C0 72.29, 0 59.47, 0 28.37 M0 28.37 C0 9.46, 9.46 0, 28.37 0 M0 28.37 C0 9.46, 9.46 0, 28.37 0" stroke="var(--diagram-teal-border)" stroke-width="4" fill="none"></path></g><g stroke-linecap="round" transform="translate(560.0000000000005 161.45265651264754) rotate(0 100.13905818996568 58.54464262314082)"><path d="M29.27 0 C66.71 0, 104.15 0, 171.01 0 C190.52 0, 200.28 9.76, 200.28 29.27 C200.28 49.2, 200.28 69.12, 200.28 87.82 C200.28 107.33, 190.52 117.09, 171.01 117.09 C137.66 117.09, 104.31 117.09, 29.27 117.09 C9.76 117.09, 0 107.33, 0 87.82 C0 75.34, 0 62.85, 0 29.27 C0 9.76, 9.76 0, 29.27 0" stroke="none" stroke-width="0" fill="url(#grad-magenta)"></path><path d="M29.27 0 C61.79 0, 94.31 0, 171.01 0 M29.27 0 C63.96 0, 98.64 0, 171.01 0 M171.01 0 C190.52 0, 200.28 9.76, 200.28 29.27 M171.01 0 C190.52 0, 200.28 9.76, 200.28 29.27 M200.28 29.27 C200.28 45.3, 200.28 61.32, 200.28 87.82 M200.28 29.27 C200.28 41.17, 200.28 53.07, 200.28 87.82 M200.28 87.82 C200.28 107.33, 190.52 117.09, 171.01 117.09 M200.28 87.82 C200.28 107.33, 190.52 117.09, 171.01 117.09 M171.01 117.09 C126.05 117.09, 81.09 117.09, 29.27 117.09 M171.01 117.09 C131.48 117.09, 91.96 117.09, 29.27 117.09 M29.27 117.09 C9.76 117.09, 0 107.33, 0 87.82 M29.27 117.09 C9.76 117.09, 0 107.33, 0 87.82 M0 87.82 C0 64.93, 0 42.05, 0 29.27 M0 87.82 C0 74.98, 0 62.14, 0 29.27 M0 29.27 C0 9.76, 9.76 0, 29.27 0 M0 29.27 C0 9.76, 9.76 0, 29.27 0" stroke="var(--diagram-magenta-border)" stroke-width="4" fill="none"></path></g><g transform="translate(319.7825442129151 200.10092693050183) rotate(0 72.35651397705078 17.98603015370759)"><text x="72.35651397705078" y="27.45387642661912" font-family="Nunito, sans-serif, Segoe UI Emoji" font-size="28.777648245931992px" fill="var(--diagram-teal)" text-anchor="middle" style="white-space: pre;" direction="ltr" dominant-baseline="alphabetic">Summarize</text></g><g transform="translate(65.864056664087 198.44559381889894) rotate(0 44.275001525878906 17.98603015370759)"><text x="44.275001525878906" y="27.45387642661912" font-family="Nunito, sans-serif, Segoe UI Emoji" font-size="28.777648245931992px" fill="var(--diagram-teal)" text-anchor="middle" style="white-space: pre;" direction="ltr" dominant-baseline="alphabetic">Search</text></g><g transform="translate(623.6490259962752 202.0112689820803) rotate(0 36.49003219369047 17.98603015370759)"><text x="36.49003219369056" y="27.45387642661912" font-family="Nunito, sans-serif, Segoe UI Emoji" font-size="28.777648245931992px" fill="var(--diagram-magenta)" text-anchor="middle" style="white-space: pre;" direction="ltr" dominant-baseline="alphabetic">Write</text></g><g stroke-linecap="round"><g transform="translate(666.8638396428582 282.7177336428572) rotate(0 0.30412946428577925 21.06026785714289)"><path d="M0 0 C0.1 7.02, 0.51 35.1, 0.61 42.12" stroke="var(--diagram-magenta-border)" stroke-width="4.5" fill="none" stroke-dasharray="8 12"></path></g></g><mask></mask><g transform="translate(161.17006663644088 344.5620425000002) rotate(0 228.89968872070312 12.5)"><text x="228.89968872070312" y="19.08" font-family="Nunito, sans-serif, Segoe UI Emoji" font-size="20px" fill="var(--diagram-magenta)" text-anchor="middle" style="white-space: pre;" direction="ltr" dominant-baseline="alphabetic">Crash discards everything, retry re-runs all 3 steps</text></g><g stroke-linecap="round" transform="translate(12.466968835145735 481.80144000000064) rotate(0 100.13905818996568 55.26901604756927)"><path d="M27.63 0 C80.75 0, 133.86 0, 172.64 0 C191.07 0, 200.28 9.21, 200.28 27.63 C200.28 47.71, 200.28 67.78, 200.28 82.9 C200.28 101.33, 191.07 110.54, 172.64 110.54 C137.63 110.54, 102.62 110.54, 27.63 110.54 C9.21 110.54, 0 101.33, 0 82.9 C0 64.89, 0 46.87, 0 27.63 C0 9.21, 9.21 0, 27.63 0" stroke="none" stroke-width="0" fill="url(#grad-orange)"></path><path d="M27.63 0 C79.51 0, 131.39 0, 172.64 0 M27.63 0 C67.39 0, 107.14 0, 172.64 0 M172.64 0 C191.07 0, 200.28 9.21, 200.28 27.63 M172.64 0 C191.07 0, 200.28 9.21, 200.28 27.63 M200.28 27.63 C200.28 40.28, 200.28 52.93, 200.28 82.9 M200.28 27.63 C200.28 40.38, 200.28 53.12, 200.28 82.9 M200.28 82.9 C200.28 101.33, 191.07 110.54, 172.64 110.54 M200.28 82.9 C200.28 101.33, 191.07 110.54, 172.64 110.54 M172.64 110.54 C133.32 110.54, 94.01 110.54, 27.63 110.54 M172.64 110.54 C142.11 110.54, 111.58 110.54, 27.63 110.54 M27.63 110.54 C9.21 110.54, 0 101.33, 0 82.9 M27.63 110.54 C9.21 110.54, 0 101.33, 0 82.9 M0 82.9 C0 64.63, 0 46.36, 0 27.63 M0 82.9 C0 65.8, 0 48.69, 0 27.63 M0 27.63 C0 9.21, 9.21 0, 27.63 0 M0 27.63 C0 9.21, 9.21 0, 27.63 0" stroke="#f59e0b" stroke-width="4" fill="none"></path></g><g stroke-linecap="round" transform="translate(301.0944728469058 481.8014401499272) rotate(0 100.13905818996568 56.74603908420886)"><path d="M28.37 0 C84.93 0, 141.49 0, 171.91 0 C190.82 0, 200.28 9.46, 200.28 28.37 C200.28 45.65, 200.28 62.92, 200.28 85.12 C200.28 104.03, 190.82 113.49, 171.91 113.49 C140.39 113.49, 108.87 113.49, 28.37 113.49 C9.46 113.49, 0 104.03, 0 85.12 C0 69.39, 0 53.67, 0 28.37 C0 9.46, 9.46 0, 28.37 0" stroke="none" stroke-width="0" fill="url(#grad-orange)"></path><path d="M28.37 0 C67.56 0, 106.74 0, 171.91 0 M28.37 0 C66.4 0, 104.43 0, 171.91 0 M171.91 0 C190.82 0, 200.28 9.46, 200.28 28.37 M171.91 0 C190.82 0, 200.28 9.46, 200.28 28.37 M200.28 28.37 C200.28 40.74, 200.28 53.1, 200.28 85.12 M200.28 28.37 C200.28 45.41, 200.28 62.46, 200.28 85.12 M200.28 85.12 C200.28 104.03, 190.82 113.49, 171.91 113.49 M200.28 85.12 C200.28 104.03, 190.82 113.49, 171.91 113.49 M171.91 113.49 C130.31 113.49, 88.7 113.49, 28.37 113.49 M171.91 113.49 C138.43 113.49, 104.96 113.49, 28.37 113.49 M28.37 113.49 C9.46 113.49, 0 104.03, 0 85.12 M28.37 113.49 C9.46 113.49, 0 104.03, 0 85.12 M0 85.12 C0 73.07, 0 61.02, 0 28.37 M0 85.12 C0 70.13, 0 55.14, 0 28.37 M0 28.37 C0 9.46, 9.46 0, 28.37 0 M0 28.37 C0 9.46, 9.46 0, 28.37 0" stroke="#f59e0b" stroke-width="4" fill="none"></path></g><g stroke-linecap="round" transform="translate(568.6303159277841 482.1342590000004) rotate(0 100.13905803610805 58.223063454427574)"><path d="M29.11 0 C84.13 0, 139.14 0, 171.17 0 C190.57 0, 200.28 9.7, 200.28 29.11 C200.28 45.71, 200.28 62.31, 200.28 87.33 C200.28 106.74, 190.57 116.45, 171.17 116.45 C141.18 116.45, 111.19 116.45, 29.11 116.45 C9.7 116.45, 0 106.74, 0 87.33 C0 69.92, 0 52.5, 0 29.11 C0 9.7, 9.7 0, 29.11 0" stroke="none" stroke-width="0" fill="url(#grad-magenta)"></path><path d="M29.11 0 C61.61 0, 94.1 0, 171.17 0 M29.11 0 C79.27 0, 129.43 0, 171.17 0 M171.17 0 C190.57 0, 200.28 9.7, 200.28 29.11 M171.17 0 C190.57 0, 200.28 9.7, 200.28 29.11 M200.28 29.11 C200.28 41.92, 200.28 54.72, 200.28 87.33 M200.28 29.11 C200.28 40.92, 200.28 52.74, 200.28 87.33 M200.28 87.33 C200.28 106.74, 190.57 116.45, 171.17 116.45 M200.28 87.33 C200.28 106.74, 190.57 116.45, 171.17 116.45 M171.17 116.45 C122.95 116.45, 74.73 116.45, 29.11 116.45 M171.17 116.45 C124.7 116.45, 78.22 116.45, 29.11 116.45 M29.11 116.45 C9.7 116.45, 0 106.74, 0 87.33 M29.11 116.45 C9.7 116.45, 0 106.74, 0 87.33 M0 87.33 C0 69.64, 0 51.94, 0 29.11 M0 87.33 C0 71.85, 0 56.36, 0 29.11 M0 29.11 C0 9.7, 9.7 0, 29.11 0 M0 29.11 C0 9.7, 9.7 0, 29.11 0" stroke="var(--diagram-magenta-border)" stroke-width="4" fill="none"></path></g><g transform="translate(328.8770170598207 520.5614490804282) rotate(0 72.35651397705078 17.98603015370759)"><text x="72.35651397705078" y="27.45387642661912" font-family="Nunito, sans-serif, Segoe UI Emoji" font-size="28.777648245931992px" fill="#f59e0b" text-anchor="middle" style="white-space: pre;" direction="ltr" dominant-baseline="alphabetic">Summarize</text></g><g transform="translate(68.33102549923251 519.0844258938623) rotate(0 44.275001525878906 17.98603015370759)"><text x="44.275001525878906" y="27.45387642661912" font-family="Nunito, sans-serif, Segoe UI Emoji" font-size="28.777648245931992px" fill="#f59e0b" text-anchor="middle" style="white-space: pre;" direction="ltr" dominant-baseline="alphabetic">Search</text></g><g transform="translate(632.2793417702019 522.3712923007206) rotate(0 36.49003219369047 17.98603015370759)"><text x="36.49003219369056" y="27.45387642661912" font-family="Nunito, sans-serif, Segoe UI Emoji" font-size="28.777648245931992px" fill="var(--diagram-magenta)" text-anchor="middle" style="white-space: pre;" direction="ltr" dominant-baseline="alphabetic">Write</text></g><g stroke-linecap="round"><g transform="translate(217.27811637993182 216.5844340998442) rotate(0 33.860941810034205 0.686025776169572)"><path d="M0 0 C25.78 0.52, 51.56 1.04, 67.72 1.37 M0 0 C26.44 0.54, 52.88 1.07, 67.72 1.37" stroke="var(--diagram-edge)" stroke-width="4" fill="none"></path></g><g transform="translate(217.27811637993182 216.5844340998442) rotate(0 33.860941810034205 0.686025776169572)"><path d="M67.72 1.37 L54 7.43 L54.26 -5.24 L67.72 1.37" stroke="none" stroke-width="0" fill="#1e1e1e" fill-rule="evenodd"></path><path d="M67.72 1.37 C62.5 3.68, 57.28 5.99, 54 7.43 M67.72 1.37 C62.37 3.74, 57.01 6.11, 54 7.43 M54 7.43 C54.07 4.29, 54.13 1.14, 54.26 -5.24 M54 7.43 C54.07 3.91, 54.14 0.39, 54.26 -5.24 M54.26 -5.24 C58.81 -3.01, 63.36 -0.77, 67.72 1.37 M54.26 -5.24 C58.84 -2.99, 63.42 -0.74, 67.72 1.37 M67.72 1.37 C67.72 1.37, 67.72 1.37, 67.72 1.37 M67.72 1.37 C67.72 1.37, 67.72 1.37, 67.72 1.37" stroke="var(--diagram-edge)" stroke-width="4" fill="none"></path></g></g><mask></mask><g stroke-linecap="round"><g transform="translate(499.27811637993136 218.2958039351961) rotate(0 26.86094181003432 0.7578532429731695)"><path d="M0 0 C14.51 0.41, 29.02 0.82, 53.72 1.52 M0 0 C12.07 0.34, 24.13 0.68, 53.72 1.52" stroke="var(--diagram-edge)" stroke-width="4" fill="none"></path></g><g transform="translate(499.27811637993136 218.2958039351961) rotate(0 26.86094181003432 0.7578532429731695)"><path d="M53.72 1.52 L39.95 7.47 L40.31 -5.2 L53.72 1.52" stroke="none" stroke-width="0" fill="#1e1e1e" fill-rule="evenodd"></path><path d="M53.72 1.52 C50 3.12, 46.29 4.73, 39.95 7.47 M53.72 1.52 C50.63 2.85, 47.54 4.19, 39.95 7.47 M39.95 7.47 C40.06 3.79, 40.16 0.11, 40.31 -5.2 M39.95 7.47 C40.07 3.44, 40.18 -0.59, 40.31 -5.2 M40.31 -5.2 C44.36 -3.18, 48.4 -1.15, 53.72 1.52 M40.31 -5.2 C44.97 -2.87, 49.63 -0.53, 53.72 1.52 M53.72 1.52 C53.72 1.52, 53.72 1.52, 53.72 1.52 M53.72 1.52 C53.72 1.52, 53.72 1.52, 53.72 1.52" stroke="var(--diagram-edge)" stroke-width="4" fill="none"></path></g></g><mask></mask><g stroke-linecap="round"><g transform="translate(219.7450852150771 537.1985591073212) rotate(0 37.17469381591434 0.6216100390452084)"><path d="M0 0 C29.03 0.49, 58.07 0.97, 74.35 1.24 M0 0 C23.14 0.39, 46.29 0.77, 74.35 1.24" stroke="var(--diagram-edge)" stroke-width="4" fill="none"></path></g><g transform="translate(219.7450852150771 537.1985591073212) rotate(0 37.17469381591434 0.6216100390452084)"><path d="M74.35 1.24 L60.65 7.35 L60.86 -5.32 L74.35 1.24" stroke="none" stroke-width="0" fill="#1e1e1e" fill-rule="evenodd"></path><path d="M74.35 1.24 C69 3.63, 63.65 6.02, 60.65 7.35 M74.35 1.24 C70.09 3.15, 65.82 5.05, 60.65 7.35 M60.65 7.35 C60.71 3.75, 60.77 0.14, 60.86 -5.32 M60.65 7.35 C60.72 3.45, 60.78 -0.45, 60.86 -5.32 M60.86 -5.32 C64.95 -3.33, 69.03 -1.34, 74.35 1.24 M60.86 -5.32 C64.19 -3.7, 67.52 -2.08, 74.35 1.24 M74.35 1.24 C74.35 1.24, 74.35 1.24, 74.35 1.24 M74.35 1.24 C74.35 1.24, 74.35 1.24, 74.35 1.24" stroke="var(--diagram-edge)" stroke-width="4" fill="none"></path></g></g><mask></mask><g stroke-linecap="round"><g transform="translate(508.37258922683714 538.7472227127332) rotate(0 26.628863350473466 0.7166750418027732)"><path d="M0 0 C12.1 0.33, 24.2 0.65, 53.26 1.43 M0 0 C15.25 0.41, 30.5 0.82, 53.26 1.43" stroke="var(--diagram-edge)" stroke-width="4" fill="none"></path></g><g transform="translate(508.37258922683714 538.7472227127332) rotate(0 26.628863350473466 0.7166750418027732)"><path d="M53.26 1.43 L39.5 7.4 L39.84 -5.27 L53.26 1.43" stroke="none" stroke-width="0" fill="#1e1e1e" fill-rule="evenodd"></path><path d="M53.26 1.43 C50.13 2.79, 47.01 4.15, 39.5 7.4 M53.26 1.43 C49.32 3.14, 45.38 4.85, 39.5 7.4 M39.5 7.4 C39.57 4.53, 39.65 1.65, 39.84 -5.27 M39.5 7.4 C39.59 4.12, 39.67 0.83, 39.84 -5.27 M39.84 -5.27 C44.48 -2.95, 49.12 -0.63, 53.26 1.43 M39.84 -5.27 C44.47 -2.96, 49.1 -0.64, 53.26 1.43 M53.26 1.43 C53.26 1.43, 53.26 1.43, 53.26 1.43 M53.26 1.43 C53.26 1.43, 53.26 1.43, 53.26 1.43" stroke="var(--diagram-edge)" stroke-width="4" fill="none"></path></g></g><mask></mask><g stroke-linecap="round" transform="translate(863.9487025000008 482.3916900000004) rotate(0 113.56026785714289 58.31485899999984)"><path d="M29.16 0 C67.49 0, 105.82 0, 197.96 0 C217.4 0, 227.12 9.72, 227.12 29.16 C227.12 41.73, 227.12 54.3, 227.12 87.47 C227.12 106.91, 217.4 116.63, 197.96 116.63 C161.02 116.63, 124.09 116.63, 29.16 116.63 C9.72 116.63, 0 106.91, 0 87.47 C0 70.19, 0 52.9, 0 29.16 C0 9.72, 9.72 0, 29.16 0" stroke="none" stroke-width="0" fill="url(#grad-teal)"></path><path d="M29.16 0 C78.99 0, 128.83 0, 197.96 0 M29.16 0 C85.07 0, 140.98 0, 197.96 0 M197.96 0 C217.4 0, 227.12 9.72, 227.12 29.16 M197.96 0 C217.4 0, 227.12 9.72, 227.12 29.16 M227.12 29.16 C227.12 50.44, 227.12 71.72, 227.12 87.47 M227.12 29.16 C227.12 41.02, 227.12 52.88, 227.12 87.47 M227.12 87.47 C227.12 106.91, 217.4 116.63, 197.96 116.63 M227.12 87.47 C227.12 106.91, 217.4 116.63, 197.96 116.63 M197.96 116.63 C143.91 116.63, 89.85 116.63, 29.16 116.63 M197.96 116.63 C156.7 116.63, 115.44 116.63, 29.16 116.63 M29.16 116.63 C9.72 116.63, 0 106.91, 0 87.47 M29.16 116.63 C9.72 116.63, 0 106.91, 0 87.47 M0 87.47 C0 70.86, 0 54.25, 0 29.16 M0 87.47 C0 69.19, 0 50.9, 0 29.16 M0 29.16 C0 9.72, 9.72 0, 29.16 0 M0 29.16 C0 9.72, 9.72 0, 29.16 0" stroke="var(--diagram-teal-border)" stroke-width="4" fill="none"></path></g><g transform="translate(937.0209942829251 523.2065490000005) rotate(0 40.48797607421875 17.5)"><text x="40.48797607421875" y="26.712" font-family="Nunito, sans-serif, Segoe UI Emoji" font-size="28px" fill="var(--diagram-teal)" text-anchor="middle" style="white-space: pre;" direction="ltr" dominant-baseline="alphabetic">Result</text></g><g transform="translate(90.75422704137941 686.3477377142858) rotate(0 318.12434933980205 12.701822916666515)"><text x="318.12434933980205" y="19.38806249999994" font-family="Nunito, sans-serif, Segoe UI Emoji" font-size="20.322916666666604px" fill="#f59e0b" text-anchor="middle" style="white-space: pre;" direction="ltr" dominant-baseline="alphabetic">Search and summary is saved by Amber, retry only re-runs write step</text></g><g transform="translate(674.811143445615 441.03704579761916) rotate(0 33.78197479248047 17.5)"><text x="33.78197479248047" y="26.712" font-family="Nunito, sans-serif, Segoe UI Emoji" font-size="28px" fill="var(--diagram-magenta)" text-anchor="middle" style="white-space: pre;" direction="ltr" dominant-baseline="alphabetic">crash</text></g><g stroke-linecap="round"><g transform="translate(760.2781157865043 218.27673592857127) rotate(0 46.28056364246254 0.2585238333333564)"><path d="M0 0 C32.95 0.18, 65.91 0.37, 92.56 0.52 M0 0 C35.63 0.2, 71.25 0.4, 92.56 0.52" stroke="var(--diagram-edge)" stroke-width="4" fill="none"></path></g><g transform="translate(760.2781157865043 218.27673592857127) rotate(0 46.28056364246254 0.2585238333333564)"><path d="M92.56 0.52 L78.93 6.78 L79 -5.9 L92.56 0.52" stroke="none" stroke-width="0" fill="#1e1e1e" fill-rule="evenodd"></path><path d="M92.56 0.52 C87.71 2.75, 82.86 4.98, 78.93 6.78 M92.56 0.52 C87.32 2.93, 82.07 5.34, 78.93 6.78 M78.93 6.78 C78.95 3.03, 78.97 -0.72, 79 -5.9 M78.93 6.78 C78.95 3.2, 78.97 -0.39, 79 -5.9 M79 -5.9 C81.78 -4.58, 84.56 -3.27, 92.56 0.52 M79 -5.9 C82.25 -4.36, 85.49 -2.83, 92.56 0.52 M92.56 0.52 C92.56 0.52, 92.56 0.52, 92.56 0.52 M92.56 0.52 C92.56 0.52, 92.56 0.52, 92.56 0.52" stroke="var(--diagram-edge)" stroke-width="4" fill="none"></path></g></g><mask></mask><g stroke-linecap="round" transform="translate(856.2366070000003 161.73261500000035) rotate(0 113.56026764285662 62.77630350000004)"><path d="M31.39 0 C85.11 0, 138.84 0, 195.73 0 C216.66 0, 227.12 10.46, 227.12 31.39 C227.12 45.73, 227.12 60.07, 227.12 94.16 C227.12 115.09, 216.66 125.55, 195.73 125.55 C139.87 125.55, 84.01 125.55, 31.39 125.55 C10.46 125.55, 0 115.09, 0 94.16 C0 72.67, 0 51.17, 0 31.39 C0 10.46, 10.46 0, 31.39 0" stroke="none" stroke-width="0" fill="url(#grad-teal)"></path><path d="M31.39 0 C86.02 0, 140.65 0, 195.73 0 M31.39 0 C76.16 0, 120.93 0, 195.73 0 M195.73 0 C216.66 0, 227.12 10.46, 227.12 31.39 M195.73 0 C216.66 0, 227.12 10.46, 227.12 31.39 M227.12 31.39 C227.12 47.53, 227.12 63.66, 227.12 94.16 M227.12 31.39 C227.12 51.82, 227.12 72.26, 227.12 94.16 M227.12 94.16 C227.12 115.09, 216.66 125.55, 195.73 125.55 M227.12 94.16 C227.12 115.09, 216.66 125.55, 195.73 125.55 M195.73 125.55 C150.28 125.55, 104.82 125.55, 31.39 125.55 M195.73 125.55 C154.23 125.55, 112.73 125.55, 31.39 125.55 M31.39 125.55 C10.46 125.55, 0 115.09, 0 94.16 M31.39 125.55 C10.46 125.55, 0 115.09, 0 94.16 M0 94.16 C0 78.68, 0 63.19, 0 31.39 M0 94.16 C0 69.38, 0 44.6, 0 31.39 M0 31.39 C0 10.46, 10.46 0, 31.39 0 M0 31.39 C0 10.46, 10.46 0, 31.39 0" stroke="var(--diagram-teal-border)" stroke-width="4" fill="none"></path></g><g transform="translate(929.3088985686381 207.00891850000016) rotate(0 40.48797607421875 17.5)"><text x="40.48797607421875" y="26.712" font-family="Nunito, sans-serif, Segoe UI Emoji" font-size="28px" fill="var(--diagram-teal)" text-anchor="middle" style="white-space: pre;" direction="ltr" dominant-baseline="alphabetic">Result</text></g><g transform="translate(195.27243683910638 441.0370458143093) rotate(0 15.005679580446781 26.73798197379824)"><use href="#image-19ad596aeaf46477a96f4c93c45122677b85883fa5b84444d369d3f38656ab7c8a234033291dc90153af4072521df306" width="30" height="53" opacity="1" transform="translate(15.005679580446781 26.73798197379824) scale(-1 1) translate(-15.005679580446781 -26.73798197379824)"></use></g><g transform="translate(480.9077681576505 436.4668333714412) rotate(0 15.005679580446781 26.73798197379824)"><use href="#image-19ad596aeaf46477a96f4c93c45122677b85883fa5b84444d369d3f38656ab7c8a234033291dc90153af4072521df306" width="30" height="53" opacity="1" transform="translate(15.005679580446781 26.73798197379824) scale(-1 1) translate(-15.005679580446781 -26.73798197379824)"></use></g><g stroke-linecap="round"><g transform="translate(666.0657981666664 604.987937992189) rotate(0 23.683786059136423 30.777010737270757)"><path d="M0 0 C-1.53 8.99, -18.79 44.71, -9.15 53.97 C0.48 63.22, 49.84 64.33, 57.81 55.53 C65.78 46.73, 41.88 10.25, 38.7 1.19" stroke="#f59e0b" stroke-width="4.5" fill="none" stroke-dasharray="8 12"></path></g><g transform="translate(666.0657981666664 604.987937992189) rotate(0 23.683786059136423 30.777010737270757)"><path d="M56.86 18.37 C52.97 14.7, 49.09 11.03, 38.7 1.19" stroke="#f59e0b" stroke-width="4.5" fill="none"></path></g><g transform="translate(666.0657981666664 604.987937992189) rotate(0 23.683786059136423 30.777010737270757)"><path d="M41.56 26.03 C40.95 20.72, 40.34 15.41, 38.7 1.19" stroke="#f59e0b" stroke-width="4.5" fill="none"></path></g></g><mask></mask><g stroke-linecap="round"><g transform="translate(775.9084320000006 540.4190702581063) rotate(0 40.16408754166673 0.28747842127609147)"><path d="M0 0 C13.39 0.1, 66.94 0.48, 80.33 0.57 M0 0 C13.39 0.1, 66.94 0.48, 80.33 0.57" stroke="var(--diagram-edge)" stroke-width="4" fill="none"></path></g><g transform="translate(775.9084320000006 540.4190702581063) rotate(0 40.16408754166673 0.28747842127609147)"><path d="M80.33 0.57 L66.69 6.82 L66.78 -5.86 L80.33 0.57" stroke="none" stroke-width="0" fill="#1e1e1e" fill-rule="evenodd"></path><path d="M80.33 0.57 C76.48 2.34, 72.62 4.1, 66.69 6.82 M80.33 0.57 C76.5 2.33, 72.66 4.08, 66.69 6.82 M66.69 6.82 C66.71 4.15, 66.73 1.48, 66.78 -5.86 M66.69 6.82 C66.72 2.21, 66.75 -2.39, 66.78 -5.86 M66.78 -5.86 C70.93 -3.89, 75.08 -1.92, 80.33 0.57 M66.78 -5.86 C70 -4.33, 73.21 -2.8, 80.33 0.57 M80.33 0.57 C80.33 0.57, 80.33 0.57, 80.33 0.57 M80.33 0.57 C80.33 0.57, 80.33 0.57, 80.33 0.57" stroke="var(--diagram-edge)" stroke-width="4" fill="none"></path></g></g><mask></mask><g transform="translate(626.4148074047635 120.67532309523858) rotate(0 20.528645833333485 20.528645833333485)"><use href="#image-1886b6c1744430b3ecdc697520906edc77e293593424cc440b9f5bf746a505d529197bded04480ad9e94d5a7a35c06fa" width="41" height="41" opacity="1"></use></g><g transform="translate(639.2223214047631 437.8052751785722) rotate(0 20.528645833333485 20.528645833333485)"><use href="#image-1886b6c1744430b3ecdc697520906edc77e293593424cc440b9f5bf746a505d529197bded04480ad9e94d5a7a35c06fa" width="41" height="41" opacity="1"></use></g></svg>
