<?xml version="1.0" encoding="UTF-8"?>
<svg class="diagram" version="1.1" xmlns="http://www.w3.org/2000/svg" viewBox="0 0 560 160"  ><defs>
<linearGradient id="grad-orange" x1="0%" y1="0%" x2="100%" y2="100%">
    <stop offset="0%" stop-color="rgba(255, 109, 31, 0.28)" />
    <stop offset="100%" stop-color="rgba(255, 109, 31, 0.08)" />
  </linearGradient>
  <linearGradient id="grad-teal" x1="0%" y1="0%" x2="100%" y2="100%">
    <stop offset="0%" stop-color="rgba(0, 189, 173, 0.28)" />
    <stop offset="100%" stop-color="rgba(0, 189, 173, 0.08)" />
  </linearGradient>
  <linearGradient id="grad-cyan" x1="0%" y1="0%" x2="100%" y2="100%">
    <stop offset="0%" stop-color="rgba(34, 211, 238, 0.25)" />
    <stop offset="100%" stop-color="rgba(34, 211, 238, 0.06)" />
  </linearGradient>
  <linearGradient id="grad-magenta" x1="0%" y1="0%" x2="100%" y2="100%">
    <stop offset="0%" stop-color="rgba(214, 0, 111, 0.25)" />
    <stop offset="100%" stop-color="rgba(214, 0, 111, 0.06)" />
  </linearGradient>
  <linearGradient id="grad-success" x1="0%" y1="0%" x2="100%" y2="100%">
    <stop offset="0%" stop-color="rgba(34, 197, 94, 0.25)" />
    <stop offset="100%" stop-color="rgba(34, 197, 94, 0.06)" />
  </linearGradient>
  <linearGradient id="grad-error" x1="0%" y1="0%" x2="100%" y2="100%">
    <stop offset="0%" stop-color="rgba(239, 68, 68, 0.25)" />
    <stop offset="100%" stop-color="rgba(239, 68, 68, 0.06)" />
  </linearGradient>
<style>
  .diagram {
  --diagram-arrow:        rgba(245, 244, 242, 0.18);
  --diagram-ink:          #f5f4f2;
  --diagram-edge:         rgba(245, 244, 242, 0.55);
  --diagram-teal:         #00bdad;
  --diagram-teal-border:  #5eead4;
  --diagram-cyan:         #22d3ee;
  --diagram-cyan-border:  #a5f3fc;
  --diagram-magenta:      #d6006f;
  --diagram-magenta-border: #f06292;
  --diagram-orange:       #ff6d1f;
  --diagram-orange-border: #ff9e5e;
  --diagram-success:      #22c55e;
  --diagram-success-border: #86efac;
  --diagram-error:        #ef4444;
  --diagram-error-border: #fca5a5;
  --diagram-surface:      rgba(255, 255, 255, 0.12);
  --diagram-bone:         #f5f4f2;

  }
</style>
<symbol id="image-98f2193a1b1d79fa19a9029e4ca5dd1448c3f4e5" viewBox="0 0 256 256">
<path fill="var(--diagram-teal)" d="M128,24h0A104,104,0,1,0,232,128,104.12,104.12,0,0,0,128,24Zm88,104a87.61,87.61,0,0,1-3.33,24H174.16a157.44,157.44,0,0,0,0-48h38.51A87.61,87.61,0,0,1,216,128ZM102,168H154a115.11,115.11,0,0,1-26,45A115.27,115.27,0,0,1,102,168Zm-3.9-16a140.84,140.84,0,0,1,0-48h59.88a140.84,140.84,0,0,1,0,48ZM40,128a87.61,87.61,0,0,1,3.33-24H81.84a157.44,157.44,0,0,0,0,48H43.33A87.61,87.61,0,0,1,40,128ZM154,88H102a115.11,115.11,0,0,1,26-45A115.27,115.27,0,0,1,154,88Zm52.33,0H170.71a135.28,135.28,0,0,0-22.3-45.6A88.29,88.29,0,0,1,206.37,88ZM107.59,42.4A135.28,135.28,0,0,0,85.29,88H49.63A88.29,88.29,0,0,1,107.59,42.4ZM49.63,168H85.29a135.28,135.28,0,0,0,22.3,45.6A88.29,88.29,0,0,1,49.63,168Zm98.78,45.6a135.28,135.28,0,0,0,22.3-45.6h35.66A88.29,88.29,0,0,1,148.41,213.6Z"/>
</symbol><symbol id="image-1b98f6858555abfd1f695fb54d06645c70642329" viewBox="0 0 256 256">
<path fill="var(--diagram-cyan)" d="M128,24C74.17,24,32,48.6,32,80v96c0,31.4,42.17,56,96,56s96-24.6,96-56V80C224,48.6,181.83,24,128,24Zm80,104c0,9.62-7.88,19.43-21.61,26.92C170.93,163.35,150.19,168,128,168s-42.93-4.65-58.39-13.08C55.88,147.43,48,137.62,48,128V111.36c17.06,15,46.23,24.64,80,24.64s62.94-9.68,80-24.64ZM69.61,53.08C85.07,44.65,105.81,40,128,40s42.93,4.65,58.39,13.08C200.12,60.57,208,70.38,208,80s-7.88,19.43-21.61,26.92C170.93,115.35,150.19,120,128,120s-42.93-4.65-58.39-13.08C55.88,99.43,48,89.62,48,80S55.88,60.57,69.61,53.08ZM186.39,202.92C170.93,211.35,150.19,216,128,216s-42.93-4.65-58.39-13.08C55.88,195.43,48,185.62,48,176V159.36c17.06,15,46.23,24.64,80,24.64s62.94-9.68,80-24.64V176C208,185.62,200.12,195.43,186.39,202.92Z"/>
</symbol><symbol id="image-185bd25d66d691c8477ae5dd660b9ae2e776a641" viewBox="0 0 256 256">
<path fill="var(--diagram-orange)" d="M152,96H104a8,8,0,0,0-8,8v48a8,8,0,0,0,8,8h48a8,8,0,0,0,8-8V104A8,8,0,0,0,152,96Zm-8,48H112V112h32Zm88,0H216V112h16a8,8,0,0,0,0-16H216V56a16,16,0,0,0-16-16H160V24a8,8,0,0,0-16,0V40H112V24a8,8,0,0,0-16,0V40H56A16,16,0,0,0,40,56V96H24a8,8,0,0,0,0,16H40v32H24a8,8,0,0,0,0,16H40v40a16,16,0,0,0,16,16H96v16a8,8,0,0,0,16,0V216h32v16a8,8,0,0,0,16,0V216h40a16,16,0,0,0,16-16V160h16a8,8,0,0,0,0-16Zm-32,56H56V56H200v95.87s0,.09,0,.13,0,.09,0,.13V200Z"/>
</symbol></defs><g stroke-linecap="round" transform="translate(410 10) rotate(0 70 70)"><path d="M32 0 C59.05 0, 86.09 0, 108 0 C129.33 0, 140 10.67, 140 32 C140 54.13, 140 76.26, 140 108 C140 129.33, 129.33 140, 108 140 C92.14 140, 76.29 140, 32 140 C10.67 140, 0 129.33, 0 108 C0 92.47, 0 76.94, 0 32 C0 10.67, 10.67 0, 32 0" stroke="none" stroke-width="0" fill="url(#grad-cyan)"></path><path d="M32 0 C49.82 0, 67.63 0, 108 0 M32 0 C58.45 0, 84.91 0, 108 0 M108 0 C129.33 0, 140 10.67, 140 32 M108 0 C129.33 0, 140 10.67, 140 32 M140 32 C140 51.07, 140 70.15, 140 108 M140 32 C140 51.83, 140 71.66, 140 108 M140 108 C140 129.33, 129.33 140, 108 140 M140 108 C140 129.33, 129.33 140, 108 140 M108 140 C90.57 140, 73.14 140, 32 140 M108 140 C85.65 140, 63.31 140, 32 140 M32 140 C10.67 140, 0 129.33, 0 108 M32 140 C10.67 140, 0 129.33, 0 108 M0 108 C0 88.72, 0 69.43, 0 32 M0 108 C0 91.03, 0 74.05, 0 32 M0 32 C0 10.67, 10.67 0, 32 0 M0 32 C0 10.67, 10.67 0, 32 0" stroke="var(--diagram-cyan-border)" stroke-width="2" fill="none"></path></g><g stroke-linecap="round" transform="translate(210 10) rotate(0 70 70)"><path d="M32 0 C52.83 0, 73.67 0, 108 0 C129.33 0, 140 10.67, 140 32 C140 56.07, 140 80.15, 140 108 C140 129.33, 129.33 140, 108 140 C78.2 140, 48.39 140, 32 140 C10.67 140, 0 129.33, 0 108 C0 91.6, 0 75.2, 0 32 C0 10.67, 10.67 0, 32 0" stroke="none" stroke-width="0" fill="url(#grad-orange)"></path><path d="M32 0 C54.7 0, 77.39 0, 108 0 M32 0 C49.31 0, 66.62 0, 108 0 M108 0 C129.33 0, 140 10.67, 140 32 M108 0 C129.33 0, 140 10.67, 140 32 M140 32 C140 52.89, 140 73.78, 140 108 M140 32 C140 59.2, 140 86.4, 140 108 M140 108 C140 129.33, 129.33 140, 108 140 M140 108 C140 129.33, 129.33 140, 108 140 M108 140 C80.87 140, 53.73 140, 32 140 M108 140 C78.93 140, 49.86 140, 32 140 M32 140 C10.67 140, 0 129.33, 0 108 M32 140 C10.67 140, 0 129.33, 0 108 M0 108 C0 85.45, 0 62.91, 0 32 M0 108 C0 86.57, 0 65.14, 0 32 M0 32 C0 10.67, 10.67 0, 32 0 M0 32 C0 10.67, 10.67 0, 32 0" stroke="var(--diagram-orange-border)" stroke-width="2" fill="none"></path></g><g stroke-linecap="round" transform="translate(10 10) rotate(0 70 70)"><path d="M32 0 C53.67 0, 75.34 0, 108 0 C129.33 0, 140 10.67, 140 32 C140 52.58, 140 73.16, 140 108 C140 129.33, 129.33 140, 108 140 C89.81 140, 71.61 140, 32 140 C10.67 140, 0 129.33, 0 108 C0 79.62, 0 51.23, 0 32 C0 10.67, 10.67 0, 32 0" stroke="none" stroke-width="0" fill="url(#grad-teal)"></path><path d="M32 0 C55.22 0, 78.44 0, 108 0 M32 0 C52.68 0, 73.37 0, 108 0 M108 0 C129.33 0, 140 10.67, 140 32 M108 0 C129.33 0, 140 10.67, 140 32 M140 32 C140 56.19, 140 80.38, 140 108 M140 32 C140 52.4, 140 72.8, 140 108 M140 108 C140 129.33, 129.33 140, 108 140 M140 108 C140 129.33, 129.33 140, 108 140 M108 140 C91.51 140, 75.03 140, 32 140 M108 140 C89.55 140, 71.1 140, 32 140 M32 140 C10.67 140, 0 129.33, 0 108 M32 140 C10.67 140, 0 129.33, 0 108 M0 108 C0 83.96, 0 59.91, 0 32 M0 108 C0 77.6, 0 47.2, 0 32 M0 32 C0 10.67, 10.67 0, 32 0 M0 32 C0 10.67, 10.67 0, 32 0" stroke="var(--diagram-teal-border)" stroke-width="2" fill="none"></path></g><g transform="translate(230 102.67105324534168) rotate(0 48.40000534057617 10)"><text x="48.40000534057617" y="14" font-family="Comic Shanns, monospace, Segoe UI Emoji" font-size="16px" fill="var(--diagram-orange)" text-anchor="middle" style="white-space: pre;" direction="ltr" dominant-baseline="alphabetic">Application</text></g><g transform="translate(250 37.32894675465832) rotate(0 30 30)"><use href="#image-185bd25d66d691c8477ae5dd660b9ae2e776a641" width="60" height="60" opacity="1"></use></g><g transform="translate(462.3999996185303 102.67105324534168) rotate(0 17.600000381469727 10)"><text x="17.600000381469727" y="14" font-family="Comic Shanns, monospace, Segoe UI Emoji" font-size="16px" fill="var(--diagram-cyan)" text-anchor="middle" style="white-space: pre;" direction="ltr" dominant-baseline="alphabetic">Data</text></g><g transform="translate(450 37.32894675465832) rotate(0 30 30)"><use href="#image-1b98f6858555abfd1f695fb54d06645c70642329" width="60" height="60" opacity="1"></use></g><g transform="translate(65.20000457763672 102.67105324534168) rotate(0 13.200000762939453 10)"><text x="13.200000762939453" y="14" font-family="Comic Shanns, monospace, Segoe UI Emoji" font-size="16px" fill="var(--diagram-teal)" text-anchor="middle" style="white-space: pre;" direction="ltr" dominant-baseline="alphabetic">Web</text></g><g transform="translate(50 37.32894675465832) rotate(0 30 30)"><use href="#image-98f2193a1b1d79fa19a9029e4ca5dd1448c3f4e5" width="60" height="60" opacity="1"></use></g><g stroke-linecap="round"><g transform="translate(156 80) rotate(0 24 0)"><path d="M0 0 C10.33 0, 20.65 0, 48 0 M0 0 C15.38 0, 30.75 0, 48 0" stroke="var(--diagram-arrow)" stroke-width="2" fill="none"></path></g></g><mask></mask><g stroke-linecap="round"><g transform="translate(356 80) rotate(0 24 0)"><path d="M0 0 C18.79 0, 37.59 0, 48 0 M0 0 C17.58 0, 35.15 0, 48 0" stroke="var(--diagram-arrow)" stroke-width="2" fill="none"></path></g></g><mask></mask></svg>
