<?xml version="1.0" encoding="UTF-8"?>
<svg class="diagram" version="1.1" xmlns="http://www.w3.org/2000/svg" viewBox="0 0 1055.3833312988281 645"  ><defs>
<linearGradient id="grad-orange" x1="0%" y1="0%" x2="100%" y2="100%">
    <stop offset="0%" stop-color="rgba(255, 109, 31, 0.28)" />
    <stop offset="100%" stop-color="rgba(255, 109, 31, 0.08)" />
  </linearGradient>
  <linearGradient id="grad-teal" x1="0%" y1="0%" x2="100%" y2="100%">
    <stop offset="0%" stop-color="rgba(0, 189, 173, 0.28)" />
    <stop offset="100%" stop-color="rgba(0, 189, 173, 0.08)" />
  </linearGradient>
  <linearGradient id="grad-cyan" x1="0%" y1="0%" x2="100%" y2="100%">
    <stop offset="0%" stop-color="rgba(34, 211, 238, 0.25)" />
    <stop offset="100%" stop-color="rgba(34, 211, 238, 0.06)" />
  </linearGradient>
  <linearGradient id="grad-magenta" x1="0%" y1="0%" x2="100%" y2="100%">
    <stop offset="0%" stop-color="rgba(214, 0, 111, 0.25)" />
    <stop offset="100%" stop-color="rgba(214, 0, 111, 0.06)" />
  </linearGradient>
  <linearGradient id="grad-success" x1="0%" y1="0%" x2="100%" y2="100%">
    <stop offset="0%" stop-color="rgba(34, 197, 94, 0.25)" />
    <stop offset="100%" stop-color="rgba(34, 197, 94, 0.06)" />
  </linearGradient>
  <linearGradient id="grad-error" x1="0%" y1="0%" x2="100%" y2="100%">
    <stop offset="0%" stop-color="rgba(239, 68, 68, 0.25)" />
    <stop offset="100%" stop-color="rgba(239, 68, 68, 0.06)" />
  </linearGradient>
<style>
  .diagram {
  --diagram-arrow:        rgba(245, 244, 242, 0.18);
  --diagram-ink:          #f5f4f2;
  --diagram-edge:         rgba(245, 244, 242, 0.55);
  --diagram-teal:         #00bdad;
  --diagram-teal-border:  #5eead4;
  --diagram-cyan:         #22d3ee;
  --diagram-cyan-border:  #a5f3fc;
  --diagram-magenta:      #d6006f;
  --diagram-magenta-border: #f06292;
  --diagram-orange:       #ff6d1f;
  --diagram-orange-border: #ff9e5e;
  --diagram-success:      #22c55e;
  --diagram-success-border: #86efac;
  --diagram-error:        #ef4444;
  --diagram-error-border: #fca5a5;
  --diagram-surface:      rgba(255, 255, 255, 0.12);
  --diagram-bone:         #f5f4f2;

  }
</style>
</defs><g transform="translate(10 90) rotate(0 102.29166412353516 17.5)"><text x="0" y="24.668" font-family="Excalifont, Xiaolai, sans-serif, Segoe UI Emoji" font-size="28px" fill="var(--diagram-ink)" text-anchor="start" style="white-space: pre;" direction="ltr" dominant-baseline="alphabetic">Initial Request</text></g><g stroke-linecap="round"><g transform="translate(210 210.69105222564272) rotate(0 30.027945864808714 -0.3455261128213607)"><path d="M0 0 C16.28 -0.19, 32.55 -0.37, 60.06 -0.69 M0 0 C22.12 -0.25, 44.25 -0.51, 60.06 -0.69" stroke="var(--diagram-edge)" stroke-width="4" fill="none"></path></g><g transform="translate(210 210.69105222564272) rotate(0 30.027945864808714 -0.3455261128213607)"><path d="M60.06 -0.69 L46.54 5.8 L46.39 -6.87 L60.06 -0.69" stroke="none" stroke-width="0" fill="#1e1e1e" fill-rule="evenodd"></path><path d="M60.06 -0.69 C56.39 1.07, 52.73 2.83, 46.54 5.8 M60.06 -0.69 C55.07 1.7, 50.09 4.09, 46.54 5.8 M46.54 5.8 C46.48 1.13, 46.43 -3.54, 46.39 -6.87 M46.54 5.8 C46.51 3.23, 46.48 0.66, 46.39 -6.87 M46.39 -6.87 C51.66 -4.49, 56.93 -2.11, 60.06 -0.69 M46.39 -6.87 C50.52 -5, 54.65 -3.13, 60.06 -0.69 M60.06 -0.69 C60.06 -0.69, 60.06 -0.69, 60.06 -0.69 M60.06 -0.69 C60.06 -0.69, 60.06 -0.69, 60.06 -0.69" stroke="var(--diagram-edge)" stroke-width="4" fill="none"></path></g></g><mask></mask><g stroke-linecap="round"><g transform="translate(470 210.69105222564272) rotate(0 30.027945864808714 -0.3455261128213607)"><path d="M0 0 C10.01 -0.12, 50.05 -0.58, 60.06 -0.69 M0 0 C10.01 -0.12, 50.05 -0.58, 60.06 -0.69" stroke="var(--diagram-edge)" stroke-width="4" fill="none"></path></g><g transform="translate(470 210.69105222564272) rotate(0 30.027945864808714 -0.3455261128213607)"><path d="M60.06 -0.69 L46.54 5.8 L46.39 -6.87 L60.06 -0.69" stroke="none" stroke-width="0" fill="#1e1e1e" fill-rule="evenodd"></path><path d="M60.06 -0.69 C55.07 1.7, 50.09 4.09, 46.54 5.8 M60.06 -0.69 C55.07 1.7, 50.09 4.1, 46.54 5.8 M46.54 5.8 C46.51 3.23, 46.48 0.66, 46.39 -6.87 M46.54 5.8 C46.48 0.92, 46.42 -3.97, 46.39 -6.87 M46.39 -6.87 C50.52 -5, 54.65 -3.13, 60.06 -0.69 M46.39 -6.87 C49.53 -5.45, 52.66 -4.03, 60.06 -0.69 M60.06 -0.69 C60.06 -0.69, 60.06 -0.69, 60.06 -0.69 M60.06 -0.69 C60.06 -0.69, 60.06 -0.69, 60.06 -0.69" stroke="var(--diagram-edge)" stroke-width="4" fill="none"></path></g></g><mask></mask><g transform="translate(10 10) rotate(0 231.89999389648438 22.5)"><text x="0" y="31.716" font-family="Excalifont, Xiaolai, sans-serif, Segoe UI Emoji" font-size="36px" fill="var(--diagram-ink)" text-anchor="start" style="white-space: pre;" direction="ltr" dominant-baseline="alphabetic">The double-charge problem</text></g><g transform="translate(810 190) rotate(0 117.69166564941406 17.5)"><text x="0" y="24.668" font-family="Excalifont, Xiaolai, sans-serif, Segoe UI Emoji" font-size="28px" fill="var(--diagram-ink)" text-anchor="start" style="white-space: pre;" direction="ltr" dominant-baseline="alphabetic">Retry from start</text></g><g transform="translate(570 70) rotate(0 68.06666564941406 12.5)"><text x="0" y="17.619999999999997" font-family="Excalifont, Xiaolai, sans-serif, Segoe UI Emoji" font-size="20px" fill="var(--diagram-magenta)" text-anchor="start" style="white-space: pre;" direction="ltr" dominant-baseline="alphabetic">Partial Failure</text></g><g stroke-linecap="round"><g transform="translate(210 490.6910522256427) rotate(0 30.027945864808828 -0.3455261128213607)"><path d="M0 0 C10.01 -0.12, 50.05 -0.58, 60.06 -0.69 M0 0 C10.01 -0.12, 50.05 -0.58, 60.06 -0.69" stroke="var(--diagram-edge)" stroke-width="4" fill="none"></path></g><g transform="translate(210 490.6910522256427) rotate(0 30.027945864808828 -0.3455261128213607)"><path d="M60.06 -0.69 L46.54 5.8 L46.39 -6.87 L60.06 -0.69" stroke="none" stroke-width="0" fill="#1e1e1e" fill-rule="evenodd"></path><path d="M60.06 -0.69 C56.21 1.16, 52.36 3.01, 46.54 5.8 M60.06 -0.69 C57.33 0.62, 54.6 1.93, 46.54 5.8 M46.54 5.8 C46.48 1.25, 46.43 -3.3, 46.39 -6.87 M46.54 5.8 C46.49 1.81, 46.44 -2.18, 46.39 -6.87 M46.39 -6.87 C51.73 -4.46, 57.08 -2.04, 60.06 -0.69 M46.39 -6.87 C51.43 -4.59, 56.47 -2.31, 60.06 -0.69 M60.06 -0.69 C60.06 -0.69, 60.06 -0.69, 60.06 -0.69 M60.06 -0.69 C60.06 -0.69, 60.06 -0.69, 60.06 -0.69" stroke="var(--diagram-edge)" stroke-width="4" fill="none"></path></g></g><mask></mask><g stroke-linecap="round"><g transform="translate(470 490.6910522256427) rotate(0 30.02794586480877 -0.3455261128213323)"><path d="M0 0 C10.01 -0.12, 50.05 -0.58, 60.06 -0.69 M0 0 C10.01 -0.12, 50.05 -0.58, 60.06 -0.69" stroke="var(--diagram-edge)" stroke-width="4" fill="none"></path></g><g transform="translate(470 490.6910522256427) rotate(0 30.02794586480877 -0.3455261128213323)"><path d="M60.06 -0.69 L46.54 5.8 L46.39 -6.87 L60.06 -0.69" stroke="none" stroke-width="0" fill="#1e1e1e" fill-rule="evenodd"></path><path d="M60.06 -0.69 C56.75 0.9, 53.45 2.48, 46.54 5.8 M60.06 -0.69 C56.86 0.85, 53.66 2.38, 46.54 5.8 M46.54 5.8 C46.48 1.19, 46.43 -3.43, 46.39 -6.87 M46.54 5.8 C46.49 1.76, 46.44 -2.28, 46.39 -6.87 M46.39 -6.87 C49.62 -5.41, 52.86 -3.95, 60.06 -0.69 M46.39 -6.87 C49.7 -5.37, 53.02 -3.87, 60.06 -0.69 M60.06 -0.69 C60.06 -0.69, 60.06 -0.69, 60.06 -0.69 M60.06 -0.69 C60.06 -0.69, 60.06 -0.69, 60.06 -0.69" stroke="var(--diagram-edge)" stroke-width="4" fill="none"></path></g></g><mask></mask><g stroke-linecap="round"><g transform="translate(370.0566073342043 550) rotate(0 -0.028303667102136387 22.31984238665241)"><path d="M0 0 C-0.01 7.44, -0.05 37.2, -0.06 44.64" stroke="var(--diagram-magenta-border)" stroke-width="2.5" fill="none" stroke-dasharray="8 10"></path></g><g transform="translate(370.0566073342043 550) rotate(0 -0.028303667102136387 22.31984238665241)"><path d="M-0.06 44.64 L-6.38 31.04 L6.3 31.05 L-0.06 44.64" stroke="none" stroke-width="0" fill="#e03131" fill-rule="evenodd"></path><path d="M-0.06 44.64 C-1.83 40.83, -3.6 37.02, -6.38 31.04 M-6.38 31.04 C-2.9 31.04, 0.57 31.05, 6.3 31.05 M6.3 31.05 C4.53 34.85, 2.75 38.64, -0.06 44.64 M-0.06 44.64 C-0.06 44.64, -0.06 44.64, -0.06 44.64" stroke="var(--diagram-magenta-border)" stroke-width="2.5" fill="none"></path></g></g><mask></mask><g transform="translate(290 610) rotate(0 81.39167022705078 12.5)"><text x="0" y="17.619999999999997" font-family="Excalifont, Xiaolai, sans-serif, Segoe UI Emoji" font-size="20px" fill="var(--diagram-magenta)" text-anchor="start" style="white-space: pre;" direction="ltr" dominant-baseline="alphabetic">Duplicate Charge</text></g><g stroke-linecap="round"><g transform="translate(630.926809038197 148.98251549845665) rotate(0 -0.46340451909850344 -19.491257749228325)"><path d="M0 0 C-0.15 -6.5, -0.77 -32.49, -0.93 -38.98" stroke="var(--diagram-magenta-border)" stroke-width="2.5" fill="none" stroke-dasharray="8 10"></path></g><g transform="translate(630.926809038197 148.98251549845665) rotate(0 -0.46340451909850344 -19.491257749228325)"><path d="M-0.93 -38.98 L5.73 -25.54 L-6.94 -25.24 L-0.93 -38.98" stroke="none" stroke-width="0" fill="#e03131" fill-rule="evenodd"></path><path d="M-0.93 -38.98 C1.53 -34.02, 3.99 -29.06, 5.73 -25.54 M5.73 -25.54 C1.06 -25.43, -3.62 -25.32, -6.94 -25.24 M-6.94 -25.24 C-5.39 -28.8, -3.83 -32.35, -0.93 -38.98 M-0.93 -38.98 C-0.93 -38.98, -0.93 -38.98, -0.93 -38.98" stroke="var(--diagram-magenta-border)" stroke-width="2.5" fill="none"></path></g></g><mask></mask><g stroke-linecap="round" transform="translate(550 330) rotate(0 0 0)"><path d="M0 0 C0 0, 0 0, 0 0 C0 0, 0 0, 0 0 C0 0, 0 0, 0 0 C0 0, 0 0, 0 0 C0 0, 0 0, 0 0 C0 0, 0 0, 0 0 C0 0, 0 0, 0 0 C0 0, 0 0, 0 0 C0 0, 0 0, 0 0 C0 0, 0 0, 0 0 C0 0, 0 0, 0 0 C0 0, 0 0, 0 0 C0 0, 0 0, 0 0 C0 0, 0 0, 0 0 C0 0, 0 0, 0 0 C0 0, 0 0, 0 0 C0 0, 0 0, 0 0 C0 0, 0 0, 0 0 C0 0, 0 0, 0 0 C0 0, 0 0, 0 0 C0 0, 0 0, 0 0 C0 0, 0 0, 0 0 C0 0, 0 0, 0 0 C0 0, 0 0, 0 0 C0 0, 0 0, 0 0 C0 0, 0 0, 0 0 C0 0, 0 0, 0 0 C0 0, 0 0, 0 0 C0 0, 0 0, 0 0 C0 0, 0 0, 0 0 C0 0, 0 0, 0 0 C0 0, 0 0, 0 0 C0 0, 0 0, 0 0 C0 0, 0 0, 0 0 C0 0, 0 0, 0 0 C0 0, 0 0, 0 0 C0 0, 0 0, 0 0" stroke="var(--diagram-edge)" stroke-width="1" fill="none"></path></g><g stroke-linecap="round"><g transform="translate(730 210.69105222564272) rotate(0 30.02794586480877 -0.3455261128213607)"><path d="M0 0 C10.01 -0.12, 50.05 -0.58, 60.06 -0.69 M0 0 C10.01 -0.12, 50.05 -0.58, 60.06 -0.69" stroke="var(--diagram-edge)" stroke-width="4" fill="none"></path></g><g transform="translate(730 210.69105222564272) rotate(0 30.02794586480877 -0.3455261128213607)"><path d="M60.06 -0.69 L46.54 5.8 L46.39 -6.87 L60.06 -0.69" stroke="none" stroke-width="0" fill="#1e1e1e" fill-rule="evenodd"></path><path d="M60.06 -0.69 C56.55 0.99, 53.05 2.67, 46.54 5.8 M60.06 -0.69 C57.18 0.69, 54.31 2.07, 46.54 5.8 M46.54 5.8 C46.49 1.56, 46.44 -2.67, 46.39 -6.87 M46.54 5.8 C46.49 1.79, 46.44 -2.23, 46.39 -6.87 M46.39 -6.87 C50.75 -4.9, 55.11 -2.93, 60.06 -0.69 M46.39 -6.87 C51.13 -4.73, 55.87 -2.58, 60.06 -0.69 M60.06 -0.69 C60.06 -0.69, 60.06 -0.69, 60.06 -0.69 M60.06 -0.69 C60.06 -0.69, 60.06 -0.69, 60.06 -0.69" stroke="var(--diagram-edge)" stroke-width="4" fill="none"></path></g></g><mask></mask><g stroke-linecap="round" transform="translate(10 150) rotate(0 100.13905818996585 54.94743697260621)"><path d="M27.47 0 C73.01 0, 118.55 0, 172.8 0 C191.12 0, 200.28 9.16, 200.28 27.47 C200.28 47.92, 200.28 68.37, 200.28 82.42 C200.28 100.74, 191.12 109.89, 172.8 109.89 C133.9 109.89, 94.99 109.89, 27.47 109.89 C9.16 109.89, 0 100.74, 0 82.42 C0 63.86, 0 45.3, 0 27.47 C0 9.16, 9.16 0, 27.47 0" stroke="none" stroke-width="0" fill="url(#grad-teal)"></path><path d="M27.47 0 C60.65 0, 93.82 0, 172.8 0 M27.47 0 C69.27 0, 111.06 0, 172.8 0 M172.8 0 C191.12 0, 200.28 9.16, 200.28 27.47 M172.8 0 C191.12 0, 200.28 9.16, 200.28 27.47 M200.28 27.47 C200.28 46.43, 200.28 65.4, 200.28 82.42 M200.28 27.47 C200.28 46.77, 200.28 66.06, 200.28 82.42 M200.28 82.42 C200.28 100.74, 191.12 109.89, 172.8 109.89 M200.28 82.42 C200.28 100.74, 191.12 109.89, 172.8 109.89 M172.8 109.89 C134.63 109.89, 96.45 109.89, 27.47 109.89 M172.8 109.89 C116.32 109.89, 59.83 109.89, 27.47 109.89 M27.47 109.89 C9.16 109.89, 0 100.74, 0 82.42 M27.47 109.89 C9.16 109.89, 0 100.74, 0 82.42 M0 82.42 C0 61.95, 0 41.48, 0 27.47 M0 82.42 C0 62.55, 0 42.68, 0 27.47 M0 27.47 C0 9.16, 9.16 0, 27.47 0 M0 27.47 C0 9.16, 9.16 0, 27.47 0" stroke="var(--diagram-teal-border)" stroke-width="4" fill="none"></path></g><g transform="translate(21.13905818996585 187.44743697260623) rotate(0 89.00000000000003 17.5)"><text x="89" y="24.668" font-family="Excalifont, Xiaolai, sans-serif, Segoe UI Emoji" font-size="28px" fill="var(--diagram-teal)" text-anchor="middle" style="white-space: pre;" direction="ltr" dominant-baseline="alphabetic">Create Order</text></g><g stroke-linecap="round" transform="translate(530 150) rotate(0 100.13905818996568 58.54464262314084)"><path d="M29.27 0 C66.83 0, 104.38 0, 171.01 0 C190.52 0, 200.28 9.76, 200.28 29.27 C200.28 47.58, 200.28 65.88, 200.28 87.82 C200.28 107.33, 190.52 117.09, 171.01 117.09 C134.6 117.09, 98.19 117.09, 29.27 117.09 C9.76 117.09, 0 107.33, 0 87.82 C0 67.98, 0 48.13, 0 29.27 C0 9.76, 9.76 0, 29.27 0" stroke="none" stroke-width="0" fill="url(#grad-magenta)"></path><path d="M29.27 0 C77.73 0, 126.18 0, 171.01 0 M29.27 0 C79.22 0, 129.17 0, 171.01 0 M171.01 0 C190.52 0, 200.28 9.76, 200.28 29.27 M171.01 0 C190.52 0, 200.28 9.76, 200.28 29.27 M200.28 29.27 C200.28 41.07, 200.28 52.86, 200.28 87.82 M200.28 29.27 C200.28 48.14, 200.28 67.01, 200.28 87.82 M200.28 87.82 C200.28 107.33, 190.52 117.09, 171.01 117.09 M200.28 87.82 C200.28 107.33, 190.52 117.09, 171.01 117.09 M171.01 117.09 C126.21 117.09, 81.41 117.09, 29.27 117.09 M171.01 117.09 C130.47 117.09, 89.93 117.09, 29.27 117.09 M29.27 117.09 C9.76 117.09, 0 107.33, 0 87.82 M29.27 117.09 C9.76 117.09, 0 107.33, 0 87.82 M0 87.82 C0 65.22, 0 42.62, 0 29.27 M0 87.82 C0 69.93, 0 52.04, 0 29.27 M0 29.27 C0 9.76, 9.76 0, 29.27 0 M0 29.27 C0 9.76, 9.76 0, 29.27 0" stroke="var(--diagram-magenta-border)" stroke-width="4" fill="none"></path></g><g transform="translate(541.4140597158446 191.04464262314085) rotate(0 88.7249984741211 17.5)"><text x="88.7249984741211" y="24.668" font-family="Excalifont, Xiaolai, sans-serif, Segoe UI Emoji" font-size="28px" fill="var(--diagram-magenta)" text-anchor="middle" style="white-space: pre;" direction="ltr" dominant-baseline="alphabetic">Send Receipt</text></g><g stroke-linecap="round" transform="translate(270 430) rotate(0 100.13905818996568 58.544642623140845)"><path d="M29.27 0 C69.13 0, 108.99 0, 171.01 0 C190.52 0, 200.28 9.76, 200.28 29.27 C200.28 48.28, 200.28 67.29, 200.28 87.82 C200.28 107.33, 190.52 117.09, 171.01 117.09 C132.8 117.09, 94.6 117.09, 29.27 117.09 C9.76 117.09, 0 107.33, 0 87.82 C0 69.5, 0 51.18, 0 29.27 C0 9.76, 9.76 0, 29.27 0" stroke="none" stroke-width="0" fill="url(#grad-magenta)"></path><path d="M29.27 0 C68.5 0, 107.72 0, 171.01 0 M29.27 0 C81.67 0, 134.08 0, 171.01 0 M171.01 0 C190.52 0, 200.28 9.76, 200.28 29.27 M171.01 0 C190.52 0, 200.28 9.76, 200.28 29.27 M200.28 29.27 C200.28 41.62, 200.28 53.96, 200.28 87.82 M200.28 29.27 C200.28 45.02, 200.28 60.76, 200.28 87.82 M200.28 87.82 C200.28 107.33, 190.52 117.09, 171.01 117.09 M200.28 87.82 C200.28 107.33, 190.52 117.09, 171.01 117.09 M171.01 117.09 C117.92 117.09, 64.83 117.09, 29.27 117.09 M171.01 117.09 C140.6 117.09, 110.2 117.09, 29.27 117.09 M29.27 117.09 C9.76 117.09, 0 107.33, 0 87.82 M29.27 117.09 C9.76 117.09, 0 107.33, 0 87.82 M0 87.82 C0 66.99, 0 46.16, 0 29.27 M0 87.82 C0 75.69, 0 63.56, 0 29.27 M0 29.27 C0 9.76, 9.76 0, 29.27 0 M0 29.27 C0 9.76, 9.76 0, 29.27 0" stroke="var(--diagram-magenta-border)" stroke-width="4" fill="none"></path></g><g transform="translate(288.1223879629149 471.0446426231408) rotate(0 82.01667022705078 17.5)"><text x="82.01667022705078" y="24.668" font-family="Excalifont, Xiaolai, sans-serif, Segoe UI Emoji" font-size="28px" fill="var(--diagram-magenta)" text-anchor="middle" style="white-space: pre;" direction="ltr" dominant-baseline="alphabetic">Charge Card</text></g><g stroke-linecap="round" transform="translate(270 150) rotate(0 100.13905818996585 54.94743697260621)"><path d="M27.47 0 C66.17 0, 104.87 0, 172.8 0 C191.12 0, 200.28 9.16, 200.28 27.47 C200.28 43.28, 200.28 59.08, 200.28 82.42 C200.28 100.74, 191.12 109.89, 172.8 109.89 C122.26 109.89, 71.71 109.89, 27.47 109.89 C9.16 109.89, 0 100.74, 0 82.42 C0 60.87, 0 39.31, 0 27.47 C0 9.16, 9.16 0, 27.47 0" stroke="none" stroke-width="0" fill="url(#grad-teal)"></path><path d="M27.47 0 C76.03 0, 124.6 0, 172.8 0 M27.47 0 C63.91 0, 100.35 0, 172.8 0 M172.8 0 C191.12 0, 200.28 9.16, 200.28 27.47 M172.8 0 C191.12 0, 200.28 9.16, 200.28 27.47 M200.28 27.47 C200.28 39.92, 200.28 52.37, 200.28 82.42 M200.28 27.47 C200.28 45.32, 200.28 63.17, 200.28 82.42 M200.28 82.42 C200.28 100.74, 191.12 109.89, 172.8 109.89 M200.28 82.42 C200.28 100.74, 191.12 109.89, 172.8 109.89 M172.8 109.89 C125.61 109.89, 78.42 109.89, 27.47 109.89 M172.8 109.89 C138.83 109.89, 104.85 109.89, 27.47 109.89 M27.47 109.89 C9.16 109.89, 0 100.74, 0 82.42 M27.47 109.89 C9.16 109.89, 0 100.74, 0 82.42 M0 82.42 C0 65.23, 0 48.03, 0 27.47 M0 82.42 C0 70.79, 0 59.16, 0 27.47 M0 27.47 C0 9.16, 9.16 0, 27.47 0 M0 27.47 C0 9.16, 9.16 0, 27.47 0" stroke="var(--diagram-teal-border)" stroke-width="4" fill="none"></path></g><g transform="translate(288.1223879629151 187.44743697260623) rotate(0 82.01667022705078 17.5)"><text x="82.01667022705078" y="24.668" font-family="Excalifont, Xiaolai, sans-serif, Segoe UI Emoji" font-size="28px" fill="var(--diagram-teal)" text-anchor="middle" style="white-space: pre;" direction="ltr" dominant-baseline="alphabetic">Charge Card</text></g><g stroke-linecap="round" transform="translate(10 430) rotate(0 100.13905818996585 54.94743697260621)"><path d="M27.47 0 C83.15 0, 138.83 0, 172.8 0 C191.12 0, 200.28 9.16, 200.28 27.47 C200.28 43.51, 200.28 59.54, 200.28 82.42 C200.28 100.74, 191.12 109.89, 172.8 109.89 C129.27 109.89, 85.73 109.89, 27.47 109.89 C9.16 109.89, 0 100.74, 0 82.42 C0 71.22, 0 60.02, 0 27.47 C0 9.16, 9.16 0, 27.47 0" stroke="none" stroke-width="0" fill="url(#grad-teal)"></path><path d="M27.47 0 C57.81 0, 88.14 0, 172.8 0 M27.47 0 C61.29 0, 95.1 0, 172.8 0 M172.8 0 C191.12 0, 200.28 9.16, 200.28 27.47 M172.8 0 C191.12 0, 200.28 9.16, 200.28 27.47 M200.28 27.47 C200.28 47.31, 200.28 67.14, 200.28 82.42 M200.28 27.47 C200.28 43.48, 200.28 59.49, 200.28 82.42 M200.28 82.42 C200.28 100.74, 191.12 109.89, 172.8 109.89 M200.28 82.42 C200.28 100.74, 191.12 109.89, 172.8 109.89 M172.8 109.89 C123.23 109.89, 73.66 109.89, 27.47 109.89 M172.8 109.89 C126.49 109.89, 80.17 109.89, 27.47 109.89 M27.47 109.89 C9.16 109.89, 0 100.74, 0 82.42 M27.47 109.89 C9.16 109.89, 0 100.74, 0 82.42 M0 82.42 C0 61.94, 0 41.45, 0 27.47 M0 82.42 C0 67.13, 0 51.84, 0 27.47 M0 27.47 C0 9.16, 9.16 0, 27.47 0 M0 27.47 C0 9.16, 9.16 0, 27.47 0" stroke="var(--diagram-teal-border)" stroke-width="4" fill="none"></path></g><g transform="translate(21.13905818996585 467.4474369726062) rotate(0 89.00000000000003 17.5)"><text x="89" y="24.668" font-family="Excalifont, Xiaolai, sans-serif, Segoe UI Emoji" font-size="28px" fill="var(--diagram-teal)" text-anchor="middle" style="white-space: pre;" direction="ltr" dominant-baseline="alphabetic">Create Order</text></g><g stroke-linecap="round" transform="translate(530 430) rotate(0 100.13905818996591 54.94743697260621)"><path d="M27.47 0 C60.28 0, 93.09 0, 172.8 0 C191.12 0, 200.28 9.16, 200.28 27.47 C200.28 42.45, 200.28 57.42, 200.28 82.42 C200.28 100.74, 191.12 109.89, 172.8 109.89 C120.43 109.89, 68.05 109.89, 27.47 109.89 C9.16 109.89, 0 100.74, 0 82.42 C0 62.62, 0 42.83, 0 27.47 C0 9.16, 9.16 0, 27.47 0" stroke="none" stroke-width="0" fill="url(#grad-teal)"></path><path d="M27.47 0 C74.14 0, 120.81 0, 172.8 0 M27.47 0 C81.15 0, 134.82 0, 172.8 0 M172.8 0 C191.12 0, 200.28 9.16, 200.28 27.47 M172.8 0 C191.12 0, 200.28 9.16, 200.28 27.47 M200.28 27.47 C200.28 43.68, 200.28 59.88, 200.28 82.42 M200.28 27.47 C200.28 43.82, 200.28 60.17, 200.28 82.42 M200.28 82.42 C200.28 100.74, 191.12 109.89, 172.8 109.89 M200.28 82.42 C200.28 100.74, 191.12 109.89, 172.8 109.89 M172.8 109.89 C123.46 109.89, 74.12 109.89, 27.47 109.89 M172.8 109.89 C143.18 109.89, 113.56 109.89, 27.47 109.89 M27.47 109.89 C9.16 109.89, 0 100.74, 0 82.42 M27.47 109.89 C9.16 109.89, 0 100.74, 0 82.42 M0 82.42 C0 61.5, 0 40.59, 0 27.47 M0 82.42 C0 66.39, 0 50.35, 0 27.47 M0 27.47 C0 9.16, 9.16 0, 27.47 0 M0 27.47 C0 9.16, 9.16 0, 27.47 0" stroke="var(--diagram-teal-border)" stroke-width="4" fill="none"></path></g><g transform="translate(541.4140597158448 467.4474369726062) rotate(0 88.7249984741211 17.5)"><text x="88.7249984741211" y="24.668" font-family="Excalifont, Xiaolai, sans-serif, Segoe UI Emoji" font-size="28px" fill="var(--diagram-teal)" text-anchor="middle" style="white-space: pre;" direction="ltr" dominant-baseline="alphabetic">Send Receipt</text></g><g stroke-linecap="round"><g transform="translate(910 350) rotate(0 -400 0)"><path d="M0 0 C-133.33 0, -666.67 0, -800 0" stroke="var(--diagram-magenta-border)" stroke-width="4.5" fill="none" stroke-dasharray="8 12"></path></g></g><mask></mask><g stroke-linecap="round"><g transform="translate(910 350) rotate(0 0 -70)"><path d="M0 0 C0 -23.33, 0 -116.67, 0 -140" stroke="var(--diagram-magenta-border)" stroke-width="4.5" fill="none" stroke-dasharray="8 12"></path></g></g><mask></mask><g stroke-linecap="round"><g transform="translate(110 350) rotate(0 1.7383141829054694 33.89712656665563)"><path d="M0 0 C0.7 13.7, 1.41 27.4, 3.48 67.79" stroke="var(--diagram-magenta-border)" stroke-width="4.5" fill="none" stroke-dasharray="8 12"></path></g><g transform="translate(110 350) rotate(0 1.7383141829054694 33.89712656665563)"><path d="M3.48 67.79 L-3.55 54.54 L9.11 53.89 L3.48 67.79" stroke="none" stroke-width="0" fill="var(--diagram-bone)" fill-rule="evenodd"></path><path d="M3.48 67.79 C2.06 65.12, 0.64 62.44, -3.55 54.54 M-3.55 54.54 C-0.04 54.36, 3.48 54.18, 9.11 53.89 M9.11 53.89 C7.28 58.4, 5.46 62.91, 3.48 67.79 M3.48 67.79 C3.48 67.79, 3.48 67.79, 3.48 67.79" stroke="var(--diagram-magenta-border)" stroke-width="4.5" fill="none"></path></g></g><mask></mask></svg>
