<?xml version="1.0" encoding="UTF-8"?>
<svg class="diagram" version="1.1" xmlns="http://www.w3.org/2000/svg" viewBox="0 0 1389.540364583332 914.5390624999968"  ><defs>
<linearGradient id="grad-orange" x1="0%" y1="0%" x2="100%" y2="100%">
    <stop offset="0%" stop-color="rgba(255, 109, 31, 0.28)" />
    <stop offset="100%" stop-color="rgba(255, 109, 31, 0.08)" />
  </linearGradient>
  <linearGradient id="grad-yellow" x1="0%" y1="0%" x2="100%" y2="100%">
    <stop offset="0%" stop-color="rgba(255, 212, 59, 0.28)" />
    <stop offset="100%" stop-color="rgba(255, 212, 59, 0.08)" />
  </linearGradient>
  <linearGradient id="grad-teal" x1="0%" y1="0%" x2="100%" y2="100%">
    <stop offset="0%" stop-color="rgba(0, 189, 173, 0.28)" />
    <stop offset="100%" stop-color="rgba(0, 189, 173, 0.08)" />
  </linearGradient>
  <linearGradient id="grad-cyan" x1="0%" y1="0%" x2="100%" y2="100%">
    <stop offset="0%" stop-color="rgba(34, 211, 238, 0.25)" />
    <stop offset="100%" stop-color="rgba(34, 211, 238, 0.06)" />
  </linearGradient>
  <linearGradient id="grad-magenta" x1="0%" y1="0%" x2="100%" y2="100%">
    <stop offset="0%" stop-color="rgba(214, 0, 111, 0.25)" />
    <stop offset="100%" stop-color="rgba(214, 0, 111, 0.06)" />
  </linearGradient>
  <linearGradient id="grad-success" x1="0%" y1="0%" x2="100%" y2="100%">
    <stop offset="0%" stop-color="rgba(34, 197, 94, 0.25)" />
    <stop offset="100%" stop-color="rgba(34, 197, 94, 0.06)" />
  </linearGradient>
  <linearGradient id="grad-error" x1="0%" y1="0%" x2="100%" y2="100%">
    <stop offset="0%" stop-color="rgba(239, 68, 68, 0.25)" />
    <stop offset="100%" stop-color="rgba(239, 68, 68, 0.06)" />
  </linearGradient>
<style>
  .diagram {
  --diagram-arrow:        rgba(245, 244, 242, 0.18);
  --diagram-ink:          #f5f4f2;
  --diagram-edge:         rgba(245, 244, 242, 0.55);
  --diagram-teal:         #00bdad;
  --diagram-teal-border:  #5eead4;
  --diagram-cyan:         #22d3ee;
  --diagram-cyan-border:  #a5f3fc;
  --diagram-magenta:      #d6006f;
  --diagram-magenta-border: #f06292;
  --diagram-orange:       #ff6d1f;
  --diagram-orange-border: #ff9e5e;
  --diagram-yellow:       #ffd43b;
  --diagram-yellow-border: #ffe066;
  --diagram-success:      #22c55e;
  --diagram-success-border: #86efac;
  --diagram-error:        #ef4444;
  --diagram-error-border: #fca5a5;
  --diagram-surface:      rgba(255, 255, 255, 0.12);
  --diagram-bone:         #f5f4f2;

  }
</style>
<symbol id="image-02dca760238f21f5408841f7cdb539eeb0a2aa95a02b3e37fc2ded56185fc982449c1ccb55fbb38c77f06f4247ae186f" viewBox="0 0 256 256">
<path fill="var(--diagram-teal)" d="M128,24C74.17,24,32,48.6,32,80v96c0,31.4,42.17,56,96,56s96-24.6,96-56V80C224,48.6,181.83,24,128,24Zm80,104c0,9.62-7.88,19.43-21.61,26.92C170.93,163.35,150.19,168,128,168s-42.93-4.65-58.39-13.08C55.88,147.43,48,137.62,48,128V111.36c17.06,15,46.23,24.64,80,24.64s62.94-9.68,80-24.64ZM69.61,53.08C85.07,44.65,105.81,40,128,40s42.93,4.65,58.39,13.08C200.12,60.57,208,70.38,208,80s-7.88,19.43-21.61,26.92C170.93,115.35,150.19,120,128,120s-42.93-4.65-58.39-13.08C55.88,99.43,48,89.62,48,80S55.88,60.57,69.61,53.08ZM186.39,202.92C170.93,211.35,150.19,216,128,216s-42.93-4.65-58.39-13.08C55.88,195.43,48,185.62,48,176V159.36c17.06,15,46.23,24.64,80,24.64s62.94-9.68,80-24.64V176C208,185.62,200.12,195.43,186.39,202.92Z"/>
</symbol><symbol id="image-19ad596aeaf46477a96f4c93c45122677b85883fa5b84444d369d3f38656ab7c8a234033291dc90153af4072521df306" viewBox="138 139 926 1650">
<g transform="translate(0.000000,1902.000000) scale(0.100000,-0.100000)" fill="#F59E0B" stroke="none">
<path fill="#F59E0B" d="M2839 17277 c-35 -35 -85 -88 -111 -118 -27 -30 -86 -97 -133 -149 -46 -52 -99 -121 -116 -153 -17 -32 -44 -73 -59 -90 -15 -18 -35 -49 -44 -70 -9 -22 -27 -52 -41 -68 -13 -17 -59 -101 -101 -187 -42 -86 -96 -195 -119 -242 -23 -47 -48 -103 -55 -125 -7 -22 -23 -61 -36 -87 -29 -58 -81 -195 -99 -263 -8 -27 -23 -81 -35 -120 -35 -118 -111 -416 -126 -490 -23 -124 -63 -398 -79 -548 -19 -182 -19 -582 -1 -722 8 -55 25 -199 40 -320 15 -121 31 -233 37 -250 6 -16 19 -68 29 -115 10 -47 34 -136 54 -198 20 -63 36 -120 36 -128 0 -7 9 -33 19 -56 22 -49 63 -178 81 -252 6 -27 24 -75 41 -105 16 -31 29 -64 29 -73 0 -9 22 -61 49 -115 26 -54 85 -174 131 -268 91 -187 183 -345 240 -415 21 -25 45 -58 53 -75 8 -16 39 -61 68 -100 29 -38 57 -83 63 -100 13 -35 100 -148 169 -216 26 -27 47 -53 47 -58 0 -5 21 -31 48 -59 26 -27 90 -100 142 -162 155 -184 222 -260 229 -260 16 0 156 -133 348 -332 56 -57 139 -133 185 -167 45 -35 87 -69 91 -77 4 -8 68 -59 141 -113 133 -100 275 -218 351 -292 89 -87 234 -209 308 -258 43 -29 81 -59 84 -67 3 -8 49 -47 101 -87 53 -39 129 -103 169 -142 77 -74 85 -93 62 -152 -6 -15 -15 -64 -20 -107 -9 -79 -20 -106 -43 -106 -13 0 -103 65 -151 109 -16 15 -58 45 -92 67 -35 21 -93 63 -130 92 -38 29 -80 60 -94 67 -14 8 -34 25 -43 39 -9 14 -38 37 -64 51 -26 14 -60 35 -77 46 -74 51 -214 127 -261 143 -27 9 -75 32 -105 52 -30 19 -79 42 -109 50 -30 9 -95 33 -145 54 -49 21 -110 44 -135 51 -25 6 -81 24 -125 39 -163 57 -372 83 -622 78 -151 -3 -173 -5 -192 -22 -30 -27 -26 -53 14 -116 19 -30 35 -64 35 -76 0 -12 16 -46 36 -75 20 -30 52 -90 70 -133 38 -90 89 -167 181 -276 35 -41 92 -108 126 -149 144 -171 211 -230 432 -381 112 -77 257 -155 305 -165 19 -3 69 -22 110 -40 132 -60 209 -86 288 -100 42 -8 94 -21 115 -30 20 -8 86 -20 145 -26 59 -5 130 -12 157 -15 78 -8 79 -9 60 -100 -9 -45 -31 -105 -49 -139 -18 -33 -43 -90 -55 -127 -11 -37 -66 -155 -121 -261 -54 -107 -113 -230 -129 -273 -41 -111 -114 -274 -160 -358 -21 -39 -42 -84 -45 -101 -8 -35 -41 -105 -71 -155 -12 -19 -29 -60 -38 -90 -9 -30 -32 -81 -52 -113 -19 -32 -38 -77 -42 -100 -3 -23 -13 -53 -22 -66 -19 -29 -53 -109 -91 -211 -16 -41 -42 -101 -59 -134 -17 -32 -31 -68 -31 -80 0 -11 -7 -34 -16 -51 -19 -37 -110 -319 -129 -400 -8 -33 -21 -80 -29 -105 -77 -241 -91 -943 -25 -1238 5 -24 16 -60 24 -79 8 -20 24 -74 36 -122 22 -92 68 -222 119 -336 61 -136 113 -240 128 -258 21 -24 84 -136 126 -224 19 -39 53 -98 75 -132 23 -33 46 -72 51 -87 6 -15 40 -62 75 -104 36 -43 80 -104 98 -136 18 -33 44 -72 58 -88 90 -106 125 -146 158 -181 51 -54 194 -234 234 -295 12 -19 42 -49 67 -68 25 -19 54 -48 65 -66 23 -36 177 -192 227 -229 18 -13 44 -27 57 -30 33 -8 138 37 176 75 17 17 46 42 65 57 19 14 58 46 87 72 55 50 188 152 239 184 61 39 308 225 370 279 23 20 45 36 49 36 4 0 27 18 51 40 24 22 48 40 54 40 6 0 36 21 67 46 32 26 87 66 123 89 36 23 74 52 85 65 11 12 38 31 60 43 38 19 73 45 168 128 37 31 101 78 251 184 24 17 67 51 97 76 30 25 70 55 89 67 19 12 60 47 90 77 30 31 80 72 110 92 30 20 66 46 80 58 14 13 63 49 110 80 47 31 95 66 107 78 25 22 39 74 28 106 -6 20 -77 77 -149 119 -22 13 -56 37 -76 55 -20 18 -70 52 -110 77 -40 25 -92 63 -114 86 -23 23 -57 48 -76 58 -45 21 -152 116 -306 270 -265 265 -288 295 -399 513 -11 24 -31 52 -43 63 -12 12 -22 28 -22 36 0 8 -18 69 -40 134 -64 189 -72 242 -60 385 5 67 18 160 29 206 10 46 22 105 25 131 4 26 11 50 15 53 5 2 14 26 21 52 19 71 93 199 168 291 37 45 77 95 89 111 12 16 36 31 53 35 17 3 45 17 63 30 43 32 124 68 227 101 47 15 105 35 130 45 58 24 184 44 280 44 41 1 320 -1 620 -3 479 -3 555 -1 625 13 137 29 211 74 384 233 96 89 186 211 210 284 18 57 -3 109 -55 134 -42 20 -70 42 -169 128 -30 26 -60 47 -65 47 -16 0 -296 255 -400 363 -36 38 -135 140 -220 226 -85 86 -168 172 -185 191 -16 19 -54 62 -83 95 -29 33 -70 80 -90 104 -61 74 -274 281 -317 308 -22 15 -45 33 -51 41 -6 8 -24 22 -41 31 -16 9 -63 39 -102 66 -40 28 -96 65 -124 83 -28 17 -67 45 -87 61 -20 16 -51 32 -70 36 -19 4 -42 13 -50 20 -30 26 -146 84 -192 95 -109 28 -91 63 117 230 172 138 226 183 299 250 39 36 91 82 116 102 63 50 256 219 310 271 25 24 74 65 110 93 36 27 97 78 135 114 39 36 95 85 125 109 30 23 129 116 220 204 91 89 203 196 249 237 45 41 111 109 145 150 35 41 93 109 131 150 37 41 98 109 136 150 74 82 156 185 206 261 18 26 41 53 53 59 11 6 32 34 46 63 36 71 209 332 256 386 21 24 38 53 38 65 0 12 21 59 46 106 83 155 182 354 194 394 7 22 21 53 30 70 10 17 30 67 44 111 31 97 57 178 103 310 19 55 45 143 58 195 13 52 35 140 49 195 15 55 26 114 26 131 0 18 7 65 15 105 8 41 27 148 42 239 26 157 27 185 30 590 4 466 5 457 -67 855 -16 88 -32 187 -35 219 -4 33 -22 119 -41 190 -19 72 -34 142 -34 155 0 13 -9 42 -19 65 -54 113 -91 207 -106 266 -9 36 -36 115 -60 176 -25 62 -45 116 -45 122 0 22 -148 287 -220 392 -9 14 -25 41 -35 60 -10 19 -29 49 -42 65 -29 36 -119 173 -155 235 -14 25 -58 77 -97 117 -39 40 -71 77 -71 83 0 6 -34 44 -76 85 -59 59 -81 75 -104 75 -20 0 -33 -7 -41 -21 -18 -35 -6 -119 24 -164 14 -22 31 -62 37 -89 6 -27 19 -61 30 -76 10 -14 24 -49 31 -76 6 -27 19 -62 27 -78 8 -16 23 -54 33 -85 11 -30 29 -65 40 -77 13 -14 23 -45 29 -85 5 -35 20 -91 33 -125 13 -33 43 -132 66 -220 23 -87 55 -208 71 -269 17 -60 44 -174 60 -253 17 -79 37 -160 46 -180 18 -44 40 -219 49 -397 4 -71 13 -166 21 -210 51 -283 55 -431 24 -765 -23 -252 -47 -459 -60 -515 -5 -22 -16 -83 -25 -135 -8 -52 -25 -133 -36 -180 -11 -47 -26 -112 -33 -145 -8 -33 -28 -98 -45 -145 -18 -47 -46 -125 -64 -174 -35 -98 -57 -123 -81 -91 -8 11 -19 43 -24 70 -49 250 -78 368 -102 413 -11 20 -20 48 -20 63 0 37 -19 88 -50 134 -15 22 -39 63 -53 90 -14 28 -48 84 -77 125 -28 41 -57 89 -64 105 -7 17 -29 49 -49 72 -19 24 -38 56 -42 72 -3 16 -24 50 -46 74 -21 25 -47 64 -58 88 -10 24 -41 64 -67 89 -53 50 -91 91 -281 300 -78 87 -244 220 -273 220 -9 0 -24 -6 -35 -13 -16 -13 -17 -19 -5 -79 9 -49 22 -79 50 -117 21 -28 41 -66 45 -83 9 -41 78 -168 104 -192 11 -10 40 -79 66 -160 26 -77 70 -190 99 -251 30 -60 57 -121 61 -135 4 -14 20 -50 35 -80 15 -30 40 -109 55 -175 15 -66 33 -138 40 -160 18 -50 49 -213 72 -370 23 -155 23 -559 0 -747 -15 -127 -21 -152 -82 -353 -19 -60 -41 -139 -49 -175 -8 -36 -28 -90 -45 -120 -17 -30 -31 -66 -31 -80 0 -15 -21 -54 -47 -90 -26 -36 -65 -96 -86 -135 -22 -38 -66 -105 -99 -148 -32 -43 -65 -92 -73 -108 -9 -16 -36 -52 -60 -81 -25 -29 -71 -84 -103 -121 -77 -92 -441 -456 -472 -472 -14 -7 -39 -28 -55 -47 -17 -18 -62 -58 -99 -88 -38 -30 -92 -74 -119 -97 -28 -24 -54 -43 -58 -43 -3 0 -39 -27 -80 -60 -40 -33 -78 -60 -83 -60 -6 0 -26 -15 -46 -34 -19 -19 -63 -54 -96 -78 -34 -23 -99 -71 -145 -105 -45 -35 -86 -63 -91 -63 -5 0 -26 -11 -46 -25 -20 -14 -44 -25 -53 -25 -9 0 -43 -18 -75 -40 -35 -23 -80 -44 -112 -51 -29 -6 -78 -24 -109 -40 -30 -16 -62 -29 -72 -29 -9 0 -34 -7 -56 -15 -49 -17 -234 -20 -337 -4 -70 11 -253 67 -310 95 -14 8 -33 20 -41 28 -8 8 -37 27 -63 42 -27 14 -58 35 -69 44 -11 10 -38 25 -60 35 -22 9 -49 24 -60 34 -11 10 -39 28 -63 40 -50 25 -144 90 -259 177 -45 34 -91 65 -104 69 -12 4 -55 37 -95 74 -108 98 -261 232 -308 267 -58 45 -437 421 -471 469 -16 22 -53 65 -81 96 -32 34 -57 72 -65 98 -7 23 -24 51 -38 62 -14 11 -46 48 -71 83 -25 35 -58 81 -73 102 -55 76 -117 178 -117 193 0 8 -17 46 -39 85 -21 39 -44 96 -51 126 -7 30 -26 81 -41 112 -16 32 -29 66 -29 76 0 27 -34 155 -60 227 -37 101 -58 329 -54 573 2 117 6 216 8 221 3 4 10 63 16 132 5 68 21 162 34 209 13 47 28 116 34 153 6 41 27 103 51 155 41 88 71 185 71 232 0 14 9 40 21 59 11 18 36 77 55 130 19 53 55 139 80 191 107 221 126 261 174 370 29 63 56 131 62 150 5 19 18 44 29 56 53 57 -11 113 -74 64 -14 -11 -29 -20 -34 -20 -5 0 -50 -41 -101 -90 -51 -50 -106 -99 -122 -109 -16 -9 -43 -34 -59 -55 -16 -20 -41 -46 -56 -57 -14 -12 -33 -35 -42 -52 -16 -32 -50 -76 -128 -166 -23 -25 -60 -71 -83 -101 -23 -30 -62 -80 -86 -110 -25 -30 -52 -76 -61 -102 -9 -26 -21 -50 -26 -53 -20 -13 -203 -396 -234 -490 -19 -55 -45 -131 -60 -169 -14 -38 -30 -101 -35 -140 -5 -39 -17 -104 -26 -143 -17 -78 -32 -90 -58 -50 -22 33 -70 188 -96 307 -12 58 -31 122 -41 143 -19 36 -35 105 -79 347 -11 63 -27 140 -35 170 -26 103 -38 275 -36 535 2 523 18 831 47 902 7 18 16 54 19 80 4 26 16 99 26 161 10 63 19 140 19 171 0 58 15 123 70 306 16 55 35 127 41 160 6 33 28 112 49 175 21 63 43 138 50 165 6 28 21 66 32 85 12 19 45 109 74 200 29 91 64 197 79 235 14 39 31 84 36 102 5 17 30 72 54 121 48 96 55 143 29 180 -24 35 -47 27 -115 -41z m3884 -9263 c23 -9 85 -28 137 -44 114 -33 198 -70 224 -99 11 -11 26 -21 34 -21 8 0 36 -21 62 -47 27 -27 80 -77 119 -113 39 -36 85 -83 101 -104 42 -56 30 -66 -82 -66 -70 0 -97 4 -130 21 -22 11 -70 25 -106 30 -74 11 -208 65 -253 103 -17 14 -36 26 -44 26 -7 0 -27 17 -44 38 -17 20 -39 46 -49 57 -10 11 -29 36 -42 55 -13 19 -39 51 -58 70 -42 43 -65 87 -57 107 4 13 17 15 75 9 39 -3 89 -13 113 -22z"/>
</g>
</symbol></defs><g stroke-linecap="round" transform="translate(10 87.73828124999682) rotate(0 192.4882812499999 144.953125)"><path d="M32 0 C148.05 0, 264.11 0, 352.98 0 C374.31 0, 384.98 10.67, 384.98 32 C384.98 97.35, 384.98 162.7, 384.98 257.91 C384.98 279.24, 374.31 289.91, 352.98 289.91 C268.37 289.91, 183.77 289.91, 32 289.91 C10.67 289.91, 0 279.24, 0 257.91 C0 187.25, 0 116.59, 0 32 C0 10.67, 10.67 0, 32 0" stroke="none" stroke-width="0" fill="url(#grad-cyan)"></path><path d="M32 0 C149.77 0, 267.54 0, 352.98 0 M32 0 C131.18 0, 230.36 0, 352.98 0 M352.98 0 C374.31 0, 384.98 10.67, 384.98 32 M352.98 0 C374.31 0, 384.98 10.67, 384.98 32 M384.98 32 C384.98 105.29, 384.98 178.58, 384.98 257.91 M384.98 32 C384.98 99.37, 384.98 166.73, 384.98 257.91 M384.98 257.91 C384.98 279.24, 374.31 289.91, 352.98 289.91 M384.98 257.91 C384.98 279.24, 374.31 289.91, 352.98 289.91 M352.98 289.91 C243.97 289.91, 134.95 289.91, 32 289.91 M352.98 289.91 C225.45 289.91, 97.92 289.91, 32 289.91 M32 289.91 C10.67 289.91, 0 279.24, 0 257.91 M32 289.91 C10.67 289.91, 0 279.24, 0 257.91 M0 257.91 C0 200.42, 0 142.93, 0 32 M0 257.91 C0 211.18, 0 164.46, 0 32 M0 32 C0 10.67, 10.67 0, 32 0 M0 32 C0 10.67, 10.67 0, 32 0" stroke="var(--diagram-cyan-border)" stroke-width="4" fill="none"></path></g><g stroke-linecap="round" transform="translate(579.104166666667 98.0598958333303) rotate(0 192.4882812499999 144.953125)"><path d="M32 0 C154.22 0, 276.44 0, 352.98 0 C374.31 0, 384.98 10.67, 384.98 32 C384.98 106.57, 384.98 181.13, 384.98 257.91 C384.98 279.24, 374.31 289.91, 352.98 289.91 C236.76 289.91, 120.54 289.91, 32 289.91 C10.67 289.91, 0 279.24, 0 257.91 C0 185.75, 0 113.6, 0 32 C0 10.67, 10.67 0, 32 0" stroke="none" stroke-width="0" fill="url(#grad-orange)"></path><path d="M32 0 C153.79 0, 275.58 0, 352.98 0 M32 0 C138.7 0, 245.4 0, 352.98 0 M352.98 0 C374.31 0, 384.98 10.67, 384.98 32 M352.98 0 C374.31 0, 384.98 10.67, 384.98 32 M384.98 32 C384.98 98.49, 384.98 164.97, 384.98 257.91 M384.98 32 C384.98 121.96, 384.98 211.92, 384.98 257.91 M384.98 257.91 C384.98 279.24, 374.31 289.91, 352.98 289.91 M384.98 257.91 C384.98 279.24, 374.31 289.91, 352.98 289.91 M352.98 289.91 C288.04 289.91, 223.1 289.91, 32 289.91 M352.98 289.91 C270.96 289.91, 188.94 289.91, 32 289.91 M32 289.91 C10.67 289.91, 0 279.24, 0 257.91 M32 289.91 C10.67 289.91, 0 279.24, 0 257.91 M0 257.91 C0 195.48, 0 133.05, 0 32 M0 257.91 C0 209.37, 0 160.84, 0 32 M0 32 C0 10.67, 10.67 0, 32 0 M0 32 C0 10.67, 10.67 0, 32 0" stroke="#f59e0b" stroke-width="4" fill="none"></path></g><g stroke-linecap="round" transform="translate(1136.6419270833323 98.61588541666333) rotate(0 121.44921874999977 147.0390625)"><path d="M32 0 C86.75 0, 141.51 0, 210.9 0 C232.23 0, 242.9 10.67, 242.9 32 C242.9 83.13, 242.9 134.26, 242.9 262.08 C242.9 283.41, 232.23 294.08, 210.9 294.08 C150.45 294.08, 89.99 294.08, 32 294.08 C10.67 294.08, 0 283.41, 0 262.08 C0 193.29, 0 124.51, 0 32 C0 10.67, 10.67 0, 32 0" stroke="none" stroke-width="0" fill="url(#grad-teal)"></path><path d="M32 0 C91.47 0, 150.94 0, 210.9 0 M32 0 C76.41 0, 120.81 0, 210.9 0 M210.9 0 C232.23 0, 242.9 10.67, 242.9 32 M210.9 0 C232.23 0, 242.9 10.67, 242.9 32 M242.9 32 C242.9 123.62, 242.9 215.24, 242.9 262.08 M242.9 32 C242.9 104.04, 242.9 176.08, 242.9 262.08 M242.9 262.08 C242.9 283.41, 232.23 294.08, 210.9 294.08 M242.9 262.08 C242.9 283.41, 232.23 294.08, 210.9 294.08 M210.9 294.08 C165.19 294.08, 119.47 294.08, 32 294.08 M210.9 294.08 C174.72 294.08, 138.54 294.08, 32 294.08 M32 294.08 C10.67 294.08, 0 283.41, 0 262.08 M32 294.08 C10.67 294.08, 0 283.41, 0 262.08 M0 262.08 C0 212.65, 0 163.22, 0 32 M0 262.08 C0 215.91, 0 169.75, 0 32 M0 32 C0 10.67, 10.67 0, 32 0 M0 32 C0 10.67, 10.67 0, 32 0" stroke="var(--diagram-teal-border)" stroke-width="4" fill="none"></path></g><g stroke-linecap="round" transform="translate(159.96223958333303 612.4153645833303) rotate(0 192.4882812499999 144.953125)"><path d="M32 0 C134.71 0, 237.43 0, 352.98 0 C374.31 0, 384.98 10.67, 384.98 32 C384.98 94, 384.98 156.01, 384.98 257.91 C384.98 279.24, 374.31 289.91, 352.98 289.91 C237.73 289.91, 122.47 289.91, 32 289.91 C10.67 289.91, 0 279.24, 0 257.91 C0 200.56, 0 143.21, 0 32 C0 10.67, 10.67 0, 32 0" stroke="none" stroke-width="0" fill="url(#grad-cyan)"></path><path d="M32 0 C134.71 0, 237.43 0, 352.98 0 M32 0 C120.67 0, 209.34 0, 352.98 0 M352.98 0 C374.31 0, 384.98 10.67, 384.98 32 M352.98 0 C374.31 0, 384.98 10.67, 384.98 32 M384.98 32 C384.98 113.65, 384.98 195.3, 384.98 257.91 M384.98 32 C384.98 98.48, 384.98 164.96, 384.98 257.91 M384.98 257.91 C384.98 279.24, 374.31 289.91, 352.98 289.91 M384.98 257.91 C384.98 279.24, 374.31 289.91, 352.98 289.91 M352.98 289.91 C251.3 289.91, 149.62 289.91, 32 289.91 M352.98 289.91 C260.06 289.91, 167.14 289.91, 32 289.91 M32 289.91 C10.67 289.91, 0 279.24, 0 257.91 M32 289.91 C10.67 289.91, 0 279.24, 0 257.91 M0 257.91 C0 174.75, 0 91.6, 0 32 M0 257.91 C0 188.99, 0 120.08, 0 32 M0 32 C0 10.67, 10.67 0, 32 0 M0 32 C0 10.67, 10.67 0, 32 0" stroke="var(--diagram-cyan-border)" stroke-width="4" fill="none"></path></g><g stroke-linecap="round" transform="translate(190.09114583333303 773.1966145833303) rotate(0 160.63671875 52.53515625)"><path d="M26.27 0 C118.98 0, 211.7 0, 295.01 0 C312.52 0, 321.27 8.76, 321.27 26.27 C321.27 37.21, 321.27 48.16, 321.27 78.8 C321.27 96.31, 312.52 105.07, 295.01 105.07 C197.32 105.07, 99.63 105.07, 26.27 105.07 C8.76 105.07, 0 96.31, 0 78.8 C0 67.19, 0 55.58, 0 26.27 C0 8.76, 8.76 0, 26.27 0" stroke="none" stroke-width="0" fill="url(#grad-orange)"></path><path d="M26.27 0 C125.55 0, 224.84 0, 295.01 0 M295.01 0 C312.52 0, 321.27 8.76, 321.27 26.27 M321.27 26.27 C321.27 47.13, 321.27 68, 321.27 78.8 M321.27 78.8 C321.27 96.31, 312.52 105.07, 295.01 105.07 M295.01 105.07 C187.98 105.07, 80.95 105.07, 26.27 105.07 M26.27 105.07 C8.76 105.07, 0 96.31, 0 78.8 M0 78.8 C0 58.09, 0 37.39, 0 26.27 M0 26.27 C0 8.76, 8.76 0, 26.27 0" stroke="#f59e0b" stroke-width="4.5" fill="none" stroke-dasharray="8 12"></path></g><g transform="translate(91.51692708333326 187.12239583333076) rotate(0 108.89993286132812 45)"><text x="108.89993286132812" y="31.5" font-family="Comic Shanns, monospace, Segoe UI Emoji" font-size="36px" fill="var(--diagram-cyan)" text-anchor="middle" style="white-space: pre;" direction="ltr" dominant-baseline="alphabetic">Developer</text><text x="108.89993286132812" y="76.5" font-family="Comic Shanns, monospace, Segoe UI Emoji" font-size="36px" fill="var(--diagram-cyan)" text-anchor="middle" style="white-space: pre;" direction="ltr" dominant-baseline="alphabetic">Application</text></g><g transform="translate(633.1839396158857 192.70182291666333) rotate(0 138.59991455078125 45)"><text x="138.59991455078125" y="31.5" font-family="Comic Shanns, monospace, Segoe UI Emoji" font-size="36px" fill="#f59e0b" text-anchor="middle" style="white-space: pre;" direction="ltr" dominant-baseline="alphabetic">Amber</text><text x="138.59991455078125" y="76.5" font-family="Comic Shanns, monospace, Segoe UI Emoji" font-size="36px" fill="#f59e0b" text-anchor="middle" style="white-space: pre;" direction="ltr" dominant-baseline="alphabetic">Runtime Server</text></g><g transform="translate(1180.2336425781243 269.51171874999636) rotate(0 79.199951171875 22.5)"><text x="79.199951171875" y="31.5" font-family="Comic Shanns, monospace, Segoe UI Emoji" font-size="36px" fill="var(--diagram-teal)" text-anchor="middle" style="white-space: pre;" direction="ltr" dominant-baseline="alphabetic">Postgres</text></g><g stroke-linecap="round" transform="translate(733.2382812499998 610.4609374999968) rotate(0 121.44921874999989 147.0390625)"><path d="M32 0 C83.88 0, 135.75 0, 210.9 0 C232.23 0, 242.9 10.67, 242.9 32 C242.9 86.82, 242.9 141.63, 242.9 262.08 C242.9 283.41, 232.23 294.08, 210.9 294.08 C152.04 294.08, 93.19 294.08, 32 294.08 C10.67 294.08, 0 283.41, 0 262.08 C0 186.29, 0 110.5, 0 32 C0 10.67, 10.67 0, 32 0" stroke="none" stroke-width="0" fill="url(#grad-teal)"></path><path d="M32 0 C75.3 0, 118.6 0, 210.9 0 M32 0 C89.9 0, 147.8 0, 210.9 0 M210.9 0 C232.23 0, 242.9 10.67, 242.9 32 M210.9 0 C232.23 0, 242.9 10.67, 242.9 32 M242.9 32 C242.9 80.39, 242.9 128.79, 242.9 262.08 M242.9 32 C242.9 100.45, 242.9 168.89, 242.9 262.08 M242.9 262.08 C242.9 283.41, 232.23 294.08, 210.9 294.08 M242.9 262.08 C242.9 283.41, 232.23 294.08, 210.9 294.08 M210.9 294.08 C156.1 294.08, 101.3 294.08, 32 294.08 M210.9 294.08 C148.53 294.08, 86.17 294.08, 32 294.08 M32 294.08 C10.67 294.08, 0 283.41, 0 262.08 M32 294.08 C10.67 294.08, 0 283.41, 0 262.08 M0 262.08 C0 199.18, 0 136.28, 0 32 M0 262.08 C0 198.21, 0 134.34, 0 32 M0 32 C0 10.67, 10.67 0, 32 0 M0 32 C0 10.67, 10.67 0, 32 0" stroke="var(--diagram-teal-border)" stroke-width="4" fill="none"></path></g><g transform="translate(776.8299967447917 781.3567708333298) rotate(0 79.199951171875 22.5)"><text x="79.199951171875" y="31.5" font-family="Comic Shanns, monospace, Segoe UI Emoji" font-size="36px" fill="var(--diagram-teal)" text-anchor="middle" style="white-space: pre;" direction="ltr" dominant-baseline="alphabetic">Postgres</text></g><g stroke-linecap="round"><g transform="translate(405.2536415232985 201.59913047382997) rotate(0 83.42526257168424 1.1649320066060227)"><path d="M0 0 C37.78 0.53, 75.57 1.06, 166.85 2.33 M0 0 C58.09 0.81, 116.19 1.62, 166.85 2.33" stroke="var(--diagram-edge)" stroke-width="4" fill="none"></path></g><g transform="translate(405.2536415232985 201.59913047382997) rotate(0 83.42526257168424 1.1649320066060227)"><path d="M166.85 2.33 L153.17 8.48 L153.35 -4.2 L166.85 2.33" stroke="none" stroke-width="0" fill="#1e1e1e" fill-rule="evenodd"></path><path d="M166.85 2.33 C163.75 3.72, 160.65 5.11, 153.17 8.48 M166.85 2.33 C162.09 4.47, 157.32 6.61, 153.17 8.48 M153.17 8.48 C153.23 3.95, 153.3 -0.57, 153.35 -4.2 M153.17 8.48 C153.21 5.83, 153.24 3.19, 153.35 -4.2 M153.35 -4.2 C157.15 -2.36, 160.96 -0.52, 166.85 2.33 M153.35 -4.2 C158.21 -1.85, 163.08 0.51, 166.85 2.33 M166.85 2.33 C166.85 2.33, 166.85 2.33, 166.85 2.33 M166.85 2.33 C166.85 2.33, 166.85 2.33, 166.85 2.33" stroke="var(--diagram-edge)" stroke-width="4" fill="none"></path></g></g><mask></mask><g stroke-linecap="round"><g transform="translate(572.1041666666672 309.3766564619623) rotate(0 -85.06380208333371 -0.46332742390063686)"><path d="M0 0 C-44.52 -0.24, -89.03 -0.48, -170.13 -0.93 M0 0 C-61.06 -0.33, -122.11 -0.67, -170.13 -0.93" stroke="var(--diagram-edge)" stroke-width="4" fill="none"></path></g><g transform="translate(572.1041666666672 309.3766564619623) rotate(0 -85.06380208333371 -0.46332742390063686)"><path d="M-170.13 -0.93 L-156.5 -7.19 L-156.57 5.49 L-170.13 -0.93" stroke="none" stroke-width="0" fill="#1e1e1e" fill-rule="evenodd"></path><path d="M-170.13 -0.93 C-166.56 -2.57, -163 -4.21, -156.5 -7.19 M-170.13 -0.93 C-165.24 -3.18, -160.35 -5.42, -156.5 -7.19 M-156.5 -7.19 C-156.53 -2.27, -156.55 2.66, -156.57 5.49 M-156.5 -7.19 C-156.52 -2.47, -156.55 2.25, -156.57 5.49 M-156.57 5.49 C-161.55 3.13, -166.52 0.78, -170.13 -0.93 M-156.57 5.49 C-160.11 3.81, -163.64 2.14, -170.13 -0.93 M-170.13 -0.93 C-170.13 -0.93, -170.13 -0.93, -170.13 -0.93 M-170.13 -0.93 C-170.13 -0.93, -170.13 -0.93, -170.13 -0.93" stroke="var(--diagram-edge)" stroke-width="4" fill="none"></path></g></g><mask></mask><g stroke-linecap="round"><g transform="translate(967.0804644399643 196.68399071822296) rotate(0 83.42526257168424 0.9526275937666924)"><path d="M0 0 C49.97 0.57, 99.95 1.14, 166.85 1.91 M0 0 C64.64 0.74, 129.28 1.48, 166.85 1.91" stroke="var(--diagram-edge)" stroke-width="4" fill="none"></path></g><g transform="translate(967.0804644399643 196.68399071822296) rotate(0 83.42526257168424 0.9526275937666924)"><path d="M166.85 1.91 L153.18 8.09 L153.33 -4.59 L166.85 1.91" stroke="none" stroke-width="0" fill="#1e1e1e" fill-rule="evenodd"></path><path d="M166.85 1.91 C162.76 3.76, 158.66 5.61, 153.18 8.09 M166.85 1.91 C161.56 4.3, 156.26 6.7, 153.18 8.09 M153.18 8.09 C153.23 4.3, 153.27 0.52, 153.33 -4.59 M153.18 8.09 C153.21 5.42, 153.25 2.75, 153.33 -4.59 M153.33 -4.59 C158.55 -2.08, 163.78 0.43, 166.85 1.91 M153.33 -4.59 C156.98 -2.84, 160.63 -1.08, 166.85 1.91 M166.85 1.91 C166.85 1.91, 166.85 1.91, 166.85 1.91 M166.85 1.91 C166.85 1.91, 166.85 1.91, 166.85 1.91" stroke="var(--diagram-edge)" stroke-width="4" fill="none"></path></g></g><mask></mask><g stroke-linecap="round"><g transform="translate(1133.9309895833328 303.888925948444) rotate(0 -85.06380208333371 -0.2827540826206132)"><path d="M0 0 C-63.8 -0.21, -127.6 -0.42, -170.13 -0.57 M0 0 C-42.25 -0.14, -84.49 -0.28, -170.13 -0.57" stroke="var(--diagram-edge)" stroke-width="4" fill="none"></path></g><g transform="translate(1133.9309895833328 303.888925948444) rotate(0 -85.06380208333371 -0.2827540826206132)"><path d="M-170.13 -0.57 L-156.51 -6.86 L-156.55 5.82 L-170.13 -0.57" stroke="none" stroke-width="0" fill="#1e1e1e" fill-rule="evenodd"></path><path d="M-170.13 -0.57 C-165.02 -2.93, -159.92 -5.29, -156.51 -6.86 M-170.13 -0.57 C-166.75 -2.13, -163.37 -3.69, -156.51 -6.86 M-156.51 -6.86 C-156.53 -1.93, -156.54 3.01, -156.55 5.82 M-156.51 -6.86 C-156.52 -3.05, -156.54 0.77, -156.55 5.82 M-156.55 5.82 C-161.67 3.41, -166.79 1, -170.13 -0.57 M-156.55 5.82 C-161.4 3.54, -166.24 1.26, -170.13 -0.57 M-170.13 -0.57 C-170.13 -0.57, -170.13 -0.57, -170.13 -0.57 M-170.13 -0.57 C-170.13 -0.57, -170.13 -0.57, -170.13 -0.57" stroke="var(--diagram-edge)" stroke-width="4" fill="none"></path></g></g><mask></mask><g transform="translate(23.278513590494413 10) rotate(0 207.89987182617188 22.5)"><text x="207.89987182617188" y="31.5" font-family="Comic Shanns, monospace, Segoe UI Emoji" font-size="36px" fill="var(--diagram-ink)" text-anchor="middle" style="white-space: pre;" direction="ltr" dominant-baseline="alphabetic">With Separate Runtime</text></g><g transform="translate(32.30249023437477 514.9999999999995) rotate(0 237.599853515625 22.5)"><text x="237.599853515625" y="31.5" font-family="Comic Shanns, monospace, Segoe UI Emoji" font-size="36px" fill="var(--diagram-ink)" text-anchor="middle" style="white-space: pre;" direction="ltr" dominant-baseline="alphabetic">Without Separate Runtime</text></g><g stroke-linecap="round"><g transform="translate(556.754943606632 699.236074051556) rotate(0 83.42526257168424 0.9526275937666924)"><path d="M0 0 C42.92 0.49, 85.84 0.98, 166.85 1.91 M0 0 C42.24 0.48, 84.47 0.96, 166.85 1.91" stroke="var(--diagram-edge)" stroke-width="4" fill="none"></path></g><g transform="translate(556.754943606632 699.236074051556) rotate(0 83.42526257168424 0.9526275937666924)"><path d="M166.85 1.91 L153.18 8.09 L153.33 -4.59 L166.85 1.91" stroke="none" stroke-width="0" fill="#1e1e1e" fill-rule="evenodd"></path><path d="M166.85 1.91 C163.33 3.5, 159.82 5.09, 153.18 8.09 M166.85 1.91 C163.39 3.47, 159.93 5.04, 153.18 8.09 M153.18 8.09 C153.22 4.87, 153.26 1.65, 153.33 -4.59 M153.18 8.09 C153.23 4.2, 153.27 0.32, 153.33 -4.59 M153.33 -4.59 C157.59 -2.54, 161.85 -0.5, 166.85 1.91 M153.33 -4.59 C157.53 -2.57, 161.73 -0.55, 166.85 1.91 M166.85 1.91 C166.85 1.91, 166.85 1.91, 166.85 1.91 M166.85 1.91 C166.85 1.91, 166.85 1.91, 166.85 1.91" stroke="var(--diagram-edge)" stroke-width="4" fill="none"></path></g></g><mask></mask><g stroke-linecap="round"><g transform="translate(723.60546875 806.441009281777) rotate(0 -85.06380208333371 -0.2827540826206132)"><path d="M0 0 C-35.26 -0.12, -70.53 -0.23, -170.13 -0.57 M0 0 C-56.86 -0.19, -113.71 -0.38, -170.13 -0.57" stroke="var(--diagram-edge)" stroke-width="4" fill="none"></path></g><g transform="translate(723.60546875 806.441009281777) rotate(0 -85.06380208333371 -0.2827540826206132)"><path d="M-170.13 -0.57 L-156.51 -6.86 L-156.55 5.82 L-170.13 -0.57" stroke="none" stroke-width="0" fill="#1e1e1e" fill-rule="evenodd"></path><path d="M-170.13 -0.57 C-167.31 -1.87, -164.48 -3.17, -156.51 -6.86 M-170.13 -0.57 C-165.58 -2.67, -161.03 -4.77, -156.51 -6.86 M-156.51 -6.86 C-156.52 -4.04, -156.53 -1.22, -156.55 5.82 M-156.51 -6.86 C-156.52 -3.52, -156.53 -0.18, -156.55 5.82 M-156.55 5.82 C-159.66 4.36, -162.77 2.89, -170.13 -0.57 M-156.55 5.82 C-159.99 4.2, -163.43 2.58, -170.13 -0.57 M-170.13 -0.57 C-170.13 -0.57, -170.13 -0.57, -170.13 -0.57 M-170.13 -0.57 C-170.13 -0.57, -170.13 -0.57, -170.13 -0.57" stroke="var(--diagram-edge)" stroke-width="4" fill="none"></path></g></g><mask></mask><g transform="translate(841.4070808362198 39.659324991642734) rotate(0 26.385887913780266 47.015890991077185)"><use href="#image-19ad596aeaf46477a96f4c93c45122677b85883fa5b84444d369d3f38656ab7c8a234033291dc90153af4072521df306" width="53" height="94" opacity="1" transform="translate(26.385887913780266 47.015890991077185) scale(-1 1) translate(-26.385887913780266 -47.015890991077185)"></use></g><g transform="translate(296.04039510091116 776.3346354166656) rotate(0 49.499969482421875 45)"><text x="49.499969482421875" y="31.5" font-family="Comic Shanns, monospace, Segoe UI Emoji" font-size="36px" fill="#f59e0b" text-anchor="middle" style="white-space: pre;" direction="ltr" dominant-baseline="alphabetic">Amber</text><text x="49.499969482421875" y="76.5" font-family="Comic Shanns, monospace, Segoe UI Emoji" font-size="36px" fill="#f59e0b" text-anchor="middle" style="white-space: pre;" direction="ltr" dominant-baseline="alphabetic">SDK</text></g><g transform="translate(480.57374750288614 702.1117131755873) rotate(0 26.385887913780266 47.015890991077185)"><use href="#image-19ad596aeaf46477a96f4c93c45122677b85883fa5b84444d369d3f38656ab7c8a234033291dc90153af4072521df306" width="53" height="94" opacity="1" transform="translate(26.385887913780266 47.015890991077185) scale(-1 1) translate(-26.385887913780266 -47.015890991077185)"></use></g><g transform="translate(246.97897338867188 650.4492187499982) rotate(0 108.89993286132812 45)"><text x="108.89993286132812" y="31.5" font-family="Comic Shanns, monospace, Segoe UI Emoji" font-size="36px" fill="var(--diagram-cyan)" text-anchor="middle" style="white-space: pre;" direction="ltr" dominant-baseline="alphabetic">Developer</text><text x="108.89993286132812" y="76.5" font-family="Comic Shanns, monospace, Segoe UI Emoji" font-size="36px" fill="var(--diagram-cyan)" text-anchor="middle" style="white-space: pre;" direction="ltr" dominant-baseline="alphabetic">Application</text></g><g transform="translate(1202.0468749999998 149.38411458333167) rotate(0 51.93098958333303 51.93098958333303)"><use href="#image-02dca760238f21f5408841f7cdb539eeb0a2aa95a02b3e37fc2ded56185fc982449c1ccb55fbb38c77f06f4247ae186f" width="104" height="104" opacity="1"></use></g><g transform="translate(799.8268229166667 661.3958333333326) rotate(0 51.93098958333303 51.93098958333303)"><use href="#image-02dca760238f21f5408841f7cdb539eeb0a2aa95a02b3e37fc2ded56185fc982449c1ccb55fbb38c77f06f4247ae186f" width="104" height="104" opacity="1"></use></g></svg>
