<?xml version="1.0" encoding="UTF-8"?>
<svg class="diagram" version="1.1" xmlns="http://www.w3.org/2000/svg" viewBox="0 0 755.1456902000473 678.8365024607413"  ><defs>
<linearGradient id="grad-orange" x1="0%" y1="0%" x2="100%" y2="100%">
    <stop offset="0%" stop-color="rgba(255, 109, 31, 0.28)" />
    <stop offset="100%" stop-color="rgba(255, 109, 31, 0.08)" />
  </linearGradient>
  <linearGradient id="grad-yellow" x1="0%" y1="0%" x2="100%" y2="100%">
    <stop offset="0%" stop-color="rgba(255, 212, 59, 0.28)" />
    <stop offset="100%" stop-color="rgba(255, 212, 59, 0.08)" />
  </linearGradient>
  <linearGradient id="grad-teal" x1="0%" y1="0%" x2="100%" y2="100%">
    <stop offset="0%" stop-color="rgba(0, 189, 173, 0.28)" />
    <stop offset="100%" stop-color="rgba(0, 189, 173, 0.08)" />
  </linearGradient>
  <linearGradient id="grad-cyan" x1="0%" y1="0%" x2="100%" y2="100%">
    <stop offset="0%" stop-color="rgba(34, 211, 238, 0.25)" />
    <stop offset="100%" stop-color="rgba(34, 211, 238, 0.06)" />
  </linearGradient>
  <linearGradient id="grad-magenta" x1="0%" y1="0%" x2="100%" y2="100%">
    <stop offset="0%" stop-color="rgba(214, 0, 111, 0.25)" />
    <stop offset="100%" stop-color="rgba(214, 0, 111, 0.06)" />
  </linearGradient>
  <linearGradient id="grad-success" x1="0%" y1="0%" x2="100%" y2="100%">
    <stop offset="0%" stop-color="rgba(34, 197, 94, 0.25)" />
    <stop offset="100%" stop-color="rgba(34, 197, 94, 0.06)" />
  </linearGradient>
  <linearGradient id="grad-error" x1="0%" y1="0%" x2="100%" y2="100%">
    <stop offset="0%" stop-color="rgba(239, 68, 68, 0.25)" />
    <stop offset="100%" stop-color="rgba(239, 68, 68, 0.06)" />
  </linearGradient>
<style>
  .diagram {
  --diagram-arrow:        rgba(245, 244, 242, 0.18);
  --diagram-ink:          #f5f4f2;
  --diagram-edge:         rgba(245, 244, 242, 0.55);
  --diagram-teal:         #00bdad;
  --diagram-teal-border:  #5eead4;
  --diagram-cyan:         #22d3ee;
  --diagram-cyan-border:  #a5f3fc;
  --diagram-magenta:      #d6006f;
  --diagram-magenta-border: #f06292;
  --diagram-orange:       #ff6d1f;
  --diagram-orange-border: #ff9e5e;
  --diagram-yellow:       #ffd43b;
  --diagram-yellow-border: #ffe066;
  --diagram-success:      #22c55e;
  --diagram-success-border: #86efac;
  --diagram-error:        #ef4444;
  --diagram-error-border: #fca5a5;
  --diagram-surface:      rgba(255, 255, 255, 0.12);
  --diagram-bone:         #f5f4f2;

  }
</style>
<symbol id="image-1de5a6dab7d854172511c7170bb71e408c49e458dbc02151107b27215c9ae48969e79e466d03bab9e40fd1dffb636f1f" viewBox="0 0 256 256">
<path fill="var(--diagram-cyan)" d="M224,48H32a8,8,0,0,0-8,8V192a16,16,0,0,0,16,16H216a16,16,0,0,0,16-16V56A8,8,0,0,0,224,48ZM203.43,64,128,133.15,52.57,64ZM216,192H40V74.19l82.59,75.71a8,8,0,0,0,10.82,0L216,74.19V192Z"/>
</symbol><symbol id="image-e33d4456d4e2850816940d9e11be4d916c69920e3cee2cadb0bc46e3b8e6378a853cc5b27d76814d52c44991be762bd6" viewBox="0 0 256 256">
<path fill="var(--diagram-cyan)" d="M80,64a8,8,0,0,1,8-8H216a8,8,0,0,1,0,16H88A8,8,0,0,1,80,64Zm136,56H88a8,8,0,0,0,0,16H216a8,8,0,0,0,0-16Zm0,64H88a8,8,0,0,0,0,16H216a8,8,0,0,0,0-16ZM44,52A12,12,0,1,0,56,64,12,12,0,0,0,44,52Zm0,64a12,12,0,1,0,12,12A12,12,0,0,0,44,116Zm0,64a12,12,0,1,0,12,12A12,12,0,0,0,44,180Z"/>
</symbol><symbol id="image-00f5ef7d615ba80a2c89e96eab736784e3b1829bbbaab8fc95388f99d43a96bfadcd3390e02fcbff72b57b959fff4fad" viewBox="0 0 256 256">
<path fill="var(--diagram-cyan)" d="M229.66,58.34l-32-32a8,8,0,0,0-11.32,0l-96,96A8,8,0,0,0,88,128v32a8,8,0,0,0,8,8h32a8,8,0,0,0,5.66-2.34l96-96A8,8,0,0,0,229.66,58.34ZM124.69,152H104V131.31l64-64L188.69,88ZM200,76.69,179.31,56,192,43.31,212.69,64ZM224,128v80a16,16,0,0,1-16,16H48a16,16,0,0,1-16-16V48A16,16,0,0,1,48,32h80a8,8,0,0,1,0,16H48V208H208V128a8,8,0,0,1,16,0Z"/>
</symbol><symbol id="image-b93ac6809263410f65ab5b66afd46823e0a8342e18f5e97050d88bafdd7e08b3682c09f298f552e60bf994d16d0618df" viewBox="0 0 256 256">
<path fill="var(--diagram-cyan)" d="M229.66,218.34l-50.07-50.06a88.11,88.11,0,1,0-11.31,11.31l50.06,50.07a8,8,0,0,0,11.32-11.32ZM40,112a72,72,0,1,1,72,72A72.08,72.08,0,0,1,40,112Z"/>
</symbol><symbol id="image-25b7d93d3d5685bc4ed6741b324ed88a86f9cd22fa4aa8711069e41bb211e2c59d75181b5fa08fb6ec26a8c30ecbec0f" viewBox="0 0 256 256">
<path fill="var(--diagram-cyan)" d="M230.33,141.06a24.43,24.43,0,0,0-21.24-4.23l-41.84,9.62A28,28,0,0,0,140,112H89.94a31.82,31.82,0,0,0-22.63,9.37L44.69,144H16A16,16,0,0,0,0,160v40a16,16,0,0,0,16,16H120a7.93,7.93,0,0,0,1.94-.24l64-16a7.35,7.35,0,0,0,1.2-.4L226,182.82l.44-.2a24.6,24.6,0,0,0,3.93-41.56ZM40,200H16V160H40Zm179.43-31.79-38,16.18L119,200H56V155.31l22.63-22.62A15.86,15.86,0,0,1,89.94,128H140a12,12,0,0,1,0,24H112a8,8,0,0,0,0,16h32a8.32,8.32,0,0,0,1.79-.2l67-15.41.31-.08a8.6,8.6,0,0,1,6.3,15.9ZM154.34,61.66a8,8,0,0,1,0-11.32l32-32a8,8,0,0,1,11.32,0l32,32a8,8,0,0,1-11.32,11.32L200,43.31V104a8,8,0,0,1-16,0V43.31L165.66,61.66A8,8,0,0,1,154.34,61.66Z"/>
</symbol><symbol id="image-68cebb1ca44a9bc73c8cfb34500940c40e3067e645135e4403468abf97d62de4cfbcdac64216ae01317fcc5b115b2a8a" viewBox="0 0 256 256">
<path fill="var(--diagram-teal)" d="M229.66,58.34l-32-32a8,8,0,0,0-11.32,0l-96,96A8,8,0,0,0,88,128v32a8,8,0,0,0,8,8h32a8,8,0,0,0,5.66-2.34l96-96A8,8,0,0,0,229.66,58.34ZM124.69,152H104V131.31l64-64L188.69,88ZM200,76.69,179.31,56,192,43.31,212.69,64ZM224,128v80a16,16,0,0,1-16,16H48a16,16,0,0,1-16-16V48A16,16,0,0,1,48,32h80a8,8,0,0,1,0,16H48V208H208V128a8,8,0,0,1,16,0Z"/>
</symbol><symbol id="image-a7cb0b8c7806d63cc682f5885d9ed2195b43f138e636f4c7a49b742e4e0789fd8cbef075c5fb8e05acc17d5dca07d576" viewBox="0 0 256 256">
<path fill="var(--diagram-teal)" d="M80,64a8,8,0,0,1,8-8H216a8,8,0,0,1,0,16H88A8,8,0,0,1,80,64Zm136,56H88a8,8,0,0,0,0,16H216a8,8,0,0,0,0-16Zm0,64H88a8,8,0,0,0,0,16H216a8,8,0,0,0,0-16ZM44,52A12,12,0,1,0,56,64,12,12,0,0,0,44,52Zm0,64a12,12,0,1,0,12,12A12,12,0,0,0,44,116Zm0,64a12,12,0,1,0,12,12A12,12,0,0,0,44,180Z"/>
</symbol><symbol id="image-2c948f9849d1df4e55b9d8870a0f2269fe73c26fc573c2a2c2646b15c3e0f9af5b6054fe4abe65b66adce51cf53b75b1" viewBox="0 0 256 256">
<path fill="var(--diagram-teal)" d="M229.66,218.34l-50.07-50.06a88.11,88.11,0,1,0-11.31,11.31l50.06,50.07a8,8,0,0,0,11.32-11.32ZM40,112a72,72,0,1,1,72,72A72.08,72.08,0,0,1,40,112Z"/>
</symbol><symbol id="image-d319a1cc59a654b296348a2257aa6c02a781586d67532075c97f0dfceacfae02d39bb803a79fd86e167de7a2d47f2304" viewBox="0 0 256 256">
<path fill="var(--diagram-cyan)" d="M248,124a56.11,56.11,0,0,0-32-50.61V72a48,48,0,0,0-88-26.49A48,48,0,0,0,40,72v1.39a56,56,0,0,0,0,101.2V176a48,48,0,0,0,88,26.49A48,48,0,0,0,216,176v-1.41A56.09,56.09,0,0,0,248,124ZM88,208a32,32,0,0,1-31.81-28.56A55.87,55.87,0,0,0,64,180h8a8,8,0,0,0,0-16H64A40,40,0,0,1,50.67,86.27,8,8,0,0,0,56,78.73V72a32,32,0,0,1,64,0v68.26A47.8,47.8,0,0,0,88,128a8,8,0,0,0,0,16,32,32,0,0,1,0,64Zm104-44h-8a8,8,0,0,0,0,16h8a55.87,55.87,0,0,0,7.81-.56A32,32,0,1,1,168,144a8,8,0,0,0,0-16,47.8,47.8,0,0,0-32,12.26V72a32,32,0,0,1,64,0v6.73a8,8,0,0,0,5.33,7.54A40,40,0,0,1,192,164Zm16-52a8,8,0,0,1-8,8h-4a36,36,0,0,1-36-36V80a8,8,0,0,1,16,0v4a20,20,0,0,0,20,20h4A8,8,0,0,1,208,112ZM60,120H56a8,8,0,0,1,0-16h4A20,20,0,0,0,80,84V80a8,8,0,0,1,16,0v4A36,36,0,0,1,60,120Z"/>
</symbol><symbol id="image-060826fd5a4d4631a796f79469a0805db2898cfe82d8e2751b0da6b439c05f758da75162f19148a616fa14791f2fe6ab" viewBox="0 0 256 256">
<path fill="var(--diagram-teal)" d="M224,48H32a8,8,0,0,0-8,8V192a16,16,0,0,0,16,16H216a16,16,0,0,0,16-16V56A8,8,0,0,0,224,48ZM203.43,64,128,133.15,52.57,64ZM216,192H40V74.19l82.59,75.71a8,8,0,0,0,10.82,0L216,74.19V192Z"/>
</symbol><symbol id="image-02dca760238f21f5408841f7cdb539eeb0a2aa95a02b3e37fc2ded56185fc982449c1ccb55fbb38c77f06f4247ae186f" viewBox="0 0 256 256">
<path fill="var(--diagram-teal)" d="M128,24C74.17,24,32,48.6,32,80v96c0,31.4,42.17,56,96,56s96-24.6,96-56V80C224,48.6,181.83,24,128,24Zm80,104c0,9.62-7.88,19.43-21.61,26.92C170.93,163.35,150.19,168,128,168s-42.93-4.65-58.39-13.08C55.88,147.43,48,137.62,48,128V111.36c17.06,15,46.23,24.64,80,24.64s62.94-9.68,80-24.64ZM69.61,53.08C85.07,44.65,105.81,40,128,40s42.93,4.65,58.39,13.08C200.12,60.57,208,70.38,208,80s-7.88,19.43-21.61,26.92C170.93,115.35,150.19,120,128,120s-42.93-4.65-58.39-13.08C55.88,99.43,48,89.62,48,80S55.88,60.57,69.61,53.08ZM186.39,202.92C170.93,211.35,150.19,216,128,216s-42.93-4.65-58.39-13.08C55.88,195.43,48,185.62,48,176V159.36c17.06,15,46.23,24.64,80,24.64s62.94-9.68,80-24.64V176C208,185.62,200.12,195.43,186.39,202.92Z"/>
</symbol></defs><g stroke-linecap="round" transform="translate(10 190) rotate(0 119.99999999999977 150)"><path d="M32 0 C100.78 0, 169.55 0, 208 0 C229.33 0, 240 10.67, 240 32 C240 84.83, 240 137.66, 240 268 C240 289.33, 229.33 300, 208 300 C168.15 300, 128.31 300, 32 300 C10.67 300, 0 289.33, 0 268 C0 217.67, 0 167.33, 0 32 C0 10.67, 10.67 0, 32 0" stroke="none" stroke-width="0" fill="url(#grad-teal)"></path><path d="M32 0 C70.62 0, 109.25 0, 208 0 M32 0 C89.92 0, 147.84 0, 208 0 M208 0 C229.33 0, 240 10.67, 240 32 M208 0 C229.33 0, 240 10.67, 240 32 M240 32 C240 120.03, 240 208.06, 240 268 M240 32 C240 89.68, 240 147.36, 240 268 M240 268 C240 289.33, 229.33 300, 208 300 M240 268 C240 289.33, 229.33 300, 208 300 M208 300 C145.78 300, 83.56 300, 32 300 M208 300 C144.52 300, 81.03 300, 32 300 M32 300 C10.67 300, 0 289.33, 0 268 M32 300 C10.67 300, 0 289.33, 0 268 M0 268 C0 177.92, 0 87.83, 0 32 M0 268 C0 214.67, 0 161.33, 0 32 M0 32 C0 10.67, 10.67 0, 32 0 M0 32 C0 10.67, 10.67 0, 32 0" stroke="var(--diagram-teal-border)" stroke-width="4" fill="none"></path></g><g transform="translate(92.85714285714221 230) rotate(0 57.035714558192694 13.392857142857139)"><text x="0" y="18.87857142857143" font-family="Excalifont, Xiaolai, sans-serif, Segoe UI Emoji" font-size="21.428571428571427px" fill="var(--diagram-teal)" text-anchor="start" style="white-space: pre;" direction="ltr" dominant-baseline="alphabetic">web search</text></g><g transform="translate(90 290) rotate(0 51.19642802647172 13.392857142857139)"><text x="51.19642802647182" y="18.87857142857143" font-family="Excalifont, Xiaolai, sans-serif, Segoe UI Emoji" font-size="21.428571428571427px" fill="var(--diagram-teal)" text-anchor="middle" style="white-space: pre;" direction="ltr" dominant-baseline="alphabetic">summarize</text></g><g transform="translate(90 350) rotate(0 26.34821483067094 13.392857142857139)"><text x="26.348214830671036" y="18.87857142857143" font-family="Excalifont, Xiaolai, sans-serif, Segoe UI Emoji" font-size="21.428571428571427px" fill="var(--diagram-teal)" text-anchor="middle" style="white-space: pre;" direction="ltr" dominant-baseline="alphabetic">write</text></g><g transform="translate(90 410) rotate(0 52.02678680419922 13.392857142857139)"><text x="52.02678680419922" y="18.87857142857143" font-family="Excalifont, Xiaolai, sans-serif, Segoe UI Emoji" font-size="21.428571428571427px" fill="var(--diagram-teal)" text-anchor="middle" style="white-space: pre;" direction="ltr" dominant-baseline="alphabetic">send email</text></g><g stroke-linecap="round" transform="translate(337.01829770937866 118.10418570447541) rotate(0 204.0636962453343 215.9479071477623)"><path d="M32 0 C147.86 0, 263.73 0, 376.13 0 C397.46 0, 408.13 10.67, 408.13 32 C408.13 160.67, 408.13 289.34, 408.13 399.9 C408.13 421.23, 397.46 431.9, 376.13 431.9 C300.78 431.9, 225.43 431.9, 32 431.9 C10.67 431.9, 0 421.23, 0 399.9 C0 273.59, 0 147.29, 0 32 C0 10.67, 10.67 0, 32 0" stroke="none" stroke-width="0" fill="url(#grad-cyan)"></path><path d="M32 0 C148.39 0, 264.79 0, 376.13 0 M32 0 C155.47 0, 278.94 0, 376.13 0 M376.13 0 C397.46 0, 408.13 10.67, 408.13 32 M376.13 0 C397.46 0, 408.13 10.67, 408.13 32 M408.13 32 C408.13 140.41, 408.13 248.81, 408.13 399.9 M408.13 32 C408.13 119.42, 408.13 206.85, 408.13 399.9 M408.13 399.9 C408.13 421.23, 397.46 431.9, 376.13 431.9 M408.13 399.9 C408.13 421.23, 397.46 431.9, 376.13 431.9 M376.13 431.9 C302.48 431.9, 228.84 431.9, 32 431.9 M376.13 431.9 C305.07 431.9, 234 431.9, 32 431.9 M32 431.9 C10.67 431.9, 0 421.23, 0 399.9 M32 431.9 C10.67 431.9, 0 421.23, 0 399.9 M0 399.9 C0 301.69, 0 203.48, 0 32 M0 399.9 C0 302.98, 0 206.06, 0 32 M0 32 C0 10.67, 10.67 0, 32 0 M0 32 C0 10.67, 10.67 0, 32 0" stroke="var(--diagram-cyan-border)" stroke-width="4" fill="none"></path></g><g transform="translate(590 450) rotate(0 24.59166717529297 12.5)"><text x="24.59166717529297" y="17.619999999999997" font-family="Excalifont, Xiaolai, sans-serif, Segoe UI Emoji" font-size="20px" fill="var(--diagram-cyan)" text-anchor="middle" style="white-space: pre;" direction="ltr" dominant-baseline="alphabetic">write</text></g><g transform="translate(590 490) rotate(0 48.55833435058594 12.5)"><text x="48.55833435058594" y="17.619999999999997" font-family="Excalifont, Xiaolai, sans-serif, Segoe UI Emoji" font-size="20px" fill="var(--diagram-cyan)" text-anchor="middle" style="white-space: pre;" direction="ltr" dominant-baseline="alphabetic">send email</text></g><g transform="translate(470 190) rotate(0 82.42500305175781 12.5)"><text x="82.42500305175781" y="17.619999999999997" font-family="Excalifont, Xiaolai, sans-serif, Segoe UI Emoji" font-size="20px" fill="var(--diagram-cyan)" text-anchor="middle" style="white-space: pre;" direction="ltr" dominant-baseline="alphabetic">research handoff</text></g><g transform="translate(410 150) rotate(0 93.75 12.5)"><text x="0" y="17.619999999999997" font-family="Excalifont, Xiaolai, sans-serif, Segoe UI Emoji" font-size="20px" fill="var(--diagram-cyan)" text-anchor="start" style="white-space: pre;" direction="ltr" dominant-baseline="alphabetic">orchestrator agent</text></g><g transform="translate(530 230) rotate(0 72.13333129882812 12.5)"><text x="72.13333129882812" y="17.619999999999997" font-family="Excalifont, Xiaolai, sans-serif, Segoe UI Emoji" font-size="20px" fill="var(--diagram-cyan)" text-anchor="middle" style="white-space: pre;" direction="ltr" dominant-baseline="alphabetic">research agent</text></g><g transform="translate(590 270) rotate(0 53.233333587646484 12.5)"><text x="0" y="17.619999999999997" font-family="Excalifont, Xiaolai, sans-serif, Segoe UI Emoji" font-size="20px" fill="var(--diagram-cyan)" text-anchor="start" style="white-space: pre;" direction="ltr" dominant-baseline="alphabetic">web search</text></g><g transform="translate(590 310) rotate(0 47.78333282470703 12.5)"><text x="47.78333282470703" y="17.619999999999997" font-family="Excalifont, Xiaolai, sans-serif, Segoe UI Emoji" font-size="20px" fill="var(--diagram-cyan)" text-anchor="middle" style="white-space: pre;" direction="ltr" dominant-baseline="alphabetic">summarize</text></g><g transform="translate(530 410) rotate(0 60.17499923706055 12.5)"><text x="60.17499923706055" y="17.619999999999997" font-family="Excalifont, Xiaolai, sans-serif, Segoe UI Emoji" font-size="20px" fill="var(--diagram-cyan)" text-anchor="middle" style="white-space: pre;" direction="ltr" dominant-baseline="alphabetic">writer agent</text></g><g transform="translate(470 370) rotate(0 70.46666717529297 12.5)"><text x="70.46666717529297" y="17.619999999999997" font-family="Excalifont, Xiaolai, sans-serif, Segoe UI Emoji" font-size="20px" fill="var(--diagram-cyan)" text-anchor="middle" style="white-space: pre;" direction="ltr" dominant-baseline="alphabetic">writer handoff</text></g><g transform="translate(354.32686323588496 80.26706103093454) rotate(0 186.625 17.5)"><text x="0" y="24.668" font-family="Excalifont, Xiaolai, sans-serif, Segoe UI Emoji" font-size="28px" fill="var(--diagram-cyan)" text-anchor="start" style="white-space: pre;" direction="ltr" dominant-baseline="alphabetic">Agent Observability System</text></g><g stroke-linecap="round"><g transform="translate(550 550) rotate(0 0 30)"><path d="M0 0 C0 10, 0 50, 0 60" stroke="var(--diagram-cyan-border)" stroke-width="4.5" fill="none" stroke-dasharray="8 12"></path></g></g><mask></mask><g transform="translate(50 10) rotate(0 77.69166564941406 22.5)"><text x="77.69166564941406" y="31.716" font-family="Excalifont, Xiaolai, sans-serif, Segoe UI Emoji" font-size="36px" fill="var(--diagram-teal)" text-anchor="middle" style="white-space: pre;" direction="ltr" dominant-baseline="alphabetic">Workflow</text></g><g transform="translate(90 150) rotate(0 39.08333206176758 17.5)"><text x="39.08333206176758" y="24.668" font-family="Excalifont, Xiaolai, sans-serif, Segoe UI Emoji" font-size="28px" fill="var(--diagram-teal)" text-anchor="middle" style="white-space: pre;" direction="ltr" dominant-baseline="alphabetic">Steps</text></g><g transform="translate(70 550) rotate(0 59.418251230370515 59.41825123037063)"><use href="#image-02dca760238f21f5408841f7cdb539eeb0a2aa95a02b3e37fc2ded56185fc982449c1ccb55fbb38c77f06f4247ae186f" width="119" height="119" opacity="1"></use></g><g stroke-linecap="round"><g transform="translate(550 610) rotate(0 -189.80202705919578 -0.9335263865900743)"><path d="M0 0 C-110.46 -0.54, -220.91 -1.09, -379.6 -1.87" stroke="var(--diagram-cyan-border)" stroke-width="4.5" fill="none" stroke-dasharray="8 12"></path></g><g transform="translate(550 610) rotate(0 -189.80202705919578 -0.9335263865900743)"><path d="M-379.6 -1.87 L-365.98 -8.14 L-366.04 4.54 L-379.6 -1.87" stroke="none" stroke-width="0" fill="var(--diagram-bone)" fill-rule="evenodd"></path><path d="M-379.6 -1.87 C-375.64 -3.69, -371.67 -5.52, -365.98 -8.14 M-365.98 -8.14 C-366 -4.22, -366.02 -0.31, -366.04 4.54 M-366.04 4.54 C-370.71 2.33, -375.38 0.13, -379.6 -1.87 M-379.6 -1.87 C-379.6 -1.87, -379.6 -1.87, -379.6 -1.87" stroke="var(--diagram-cyan-border)" stroke-width="4.5" fill="none"></path></g></g><mask></mask><g stroke-linecap="round"><g transform="translate(127.81501796280736 62) rotate(0 0.5852758928597268 38)"><path d="M0 0 C0.31 20.33, 0.63 40.67, 1.17 76" stroke="var(--diagram-teal-border)" stroke-width="4.5" fill="none" stroke-dasharray="8 12"></path></g><g transform="translate(127.81501796280736 62) rotate(0 0.5852758928597268 38)"><path d="M1.17 76 L-5.38 62.5 L7.3 62.31 L1.17 76" stroke="none" stroke-width="0" fill="var(--diagram-bone)" fill-rule="evenodd"></path><path d="M1.17 76 C-0.58 72.39, -2.33 68.78, -5.38 62.5 M-5.38 62.5 C-2.46 62.46, 0.46 62.41, 7.3 62.31 M7.3 62.31 C4.87 67.73, 2.44 73.16, 1.17 76 M1.17 76 C1.17 76, 1.17 76, 1.17 76" stroke="var(--diagram-teal-border)" stroke-width="4.5" fill="none"></path></g></g><mask></mask><g stroke-linecap="round"><g transform="translate(129.97866909321192 497) rotate(0 -0.23962497433353747 37.0028957988512)"><path d="M0 0 C-0.1 15.67, -0.2 31.34, -0.48 74.01" stroke="var(--diagram-teal-border)" stroke-width="4.5" fill="none" stroke-dasharray="8 12"></path></g><g transform="translate(129.97866909321192 497) rotate(0 -0.23962497433353747 37.0028957988512)"><path d="M-0.48 74.01 L-6.73 60.37 L5.95 60.45 L-0.48 74.01" stroke="none" stroke-width="0" fill="var(--diagram-bone)" fill-rule="evenodd"></path><path d="M-0.48 74.01 C-1.8 71.12, -3.13 68.23, -6.73 60.37 M-6.73 60.37 C-1.67 60.4, 3.4 60.44, 5.95 60.45 M5.95 60.45 C3.89 64.79, 1.83 69.14, -0.48 74.01 M-0.48 74.01 C-0.48 74.01, -0.48 74.01, -0.48 74.01" stroke="var(--diagram-teal-border)" stroke-width="4.5" fill="none"></path></g></g><mask></mask><g stroke-linecap="round"><g transform="translate(230 30) rotate(0 160 0)"><path d="M0 0 C53.33 0, 266.67 0, 320 0" stroke="var(--diagram-cyan-border)" stroke-width="4.5" fill="none" stroke-dasharray="8 12"></path></g></g><mask></mask><g stroke-linecap="round"><g transform="translate(550 30) rotate(0 0 21.49548227623427)"><path d="M0 0 C0 7.17, 0 35.83, 0 42.99" stroke="var(--diagram-cyan-border)" stroke-width="4.5" fill="none" stroke-dasharray="8 12"></path></g></g><mask></mask><g transform="translate(50 410) rotate(0 16 16)"><use href="#image-060826fd5a4d4631a796f79469a0805db2898cfe82d8e2751b0da6b439c05f758da75162f19148a616fa14791f2fe6ab" width="32" height="32" opacity="1"></use></g><g transform="translate(370 150) rotate(0 16 16)"><use href="#image-d319a1cc59a654b296348a2257aa6c02a781586d67532075c97f0dfceacfae02d39bb803a79fd86e167de7a2d47f2304" width="32" height="32" opacity="1"></use></g><g transform="translate(50 230) rotate(0 16 16)"><use href="#image-2c948f9849d1df4e55b9d8870a0f2269fe73c26fc573c2a2c2646b15c3e0f9af5b6054fe4abe65b66adce51cf53b75b1" width="32" height="32" opacity="1"></use></g><g transform="translate(50 290) rotate(0 16 16)"><use href="#image-a7cb0b8c7806d63cc682f5885d9ed2195b43f138e636f4c7a49b742e4e0789fd8cbef075c5fb8e05acc17d5dca07d576" width="32" height="32" opacity="1"></use></g><g transform="translate(50 350) rotate(0 16 16)"><use href="#image-68cebb1ca44a9bc73c8cfb34500940c40e3067e645135e4403468abf97d62de4cfbcdac64216ae01317fcc5b115b2a8a" width="32" height="32" opacity="1"></use></g><g transform="translate(490 230) rotate(0 16 16)"><use href="#image-d319a1cc59a654b296348a2257aa6c02a781586d67532075c97f0dfceacfae02d39bb803a79fd86e167de7a2d47f2304" width="32" height="32" opacity="1"></use></g><g transform="translate(490 410) rotate(0 16 16)"><use href="#image-d319a1cc59a654b296348a2257aa6c02a781586d67532075c97f0dfceacfae02d39bb803a79fd86e167de7a2d47f2304" width="32" height="32" opacity="1"></use></g><g transform="translate(430 190) rotate(0 16 16)"><use href="#image-25b7d93d3d5685bc4ed6741b324ed88a86f9cd22fa4aa8711069e41bb211e2c59d75181b5fa08fb6ec26a8c30ecbec0f" width="32" height="32" opacity="1"></use></g><g transform="translate(430 370) rotate(0 16 16)"><use href="#image-25b7d93d3d5685bc4ed6741b324ed88a86f9cd22fa4aa8711069e41bb211e2c59d75181b5fa08fb6ec26a8c30ecbec0f" width="32" height="32" opacity="1"></use></g><g transform="translate(550 270) rotate(0 16 16)"><use href="#image-b93ac6809263410f65ab5b66afd46823e0a8342e18f5e97050d88bafdd7e08b3682c09f298f552e60bf994d16d0618df" width="32" height="32" opacity="1"></use></g><g transform="translate(550 450) rotate(0 16 16)"><use href="#image-00f5ef7d615ba80a2c89e96eab736784e3b1829bbbaab8fc95388f99d43a96bfadcd3390e02fcbff72b57b959fff4fad" width="32" height="32" opacity="1"></use></g><g transform="translate(550 310) rotate(0 16 16)"><use href="#image-e33d4456d4e2850816940d9e11be4d916c69920e3cee2cadb0bc46e3b8e6378a853cc5b27d76814d52c44991be762bd6" width="32" height="32" opacity="1"></use></g><g transform="translate(550 490) rotate(0 16 16)"><use href="#image-1de5a6dab7d854172511c7170bb71e408c49e458dbc02151107b27215c9ae48969e79e466d03bab9e40fd1dffb636f1f" width="32" height="32" opacity="1"></use></g></svg>
