<?xml version="1.0" encoding="UTF-8"?>
<svg class="diagram" version="1.1" xmlns="http://www.w3.org/2000/svg" viewBox="0 0 1890.0042883448705 900.903228877878"  ><defs>
<linearGradient id="grad-orange" x1="0%" y1="0%" x2="100%" y2="100%">
    <stop offset="0%" stop-color="rgba(255, 109, 31, 0.28)" />
    <stop offset="100%" stop-color="rgba(255, 109, 31, 0.08)" />
  </linearGradient>
  <linearGradient id="grad-yellow" x1="0%" y1="0%" x2="100%" y2="100%">
    <stop offset="0%" stop-color="rgba(255, 212, 59, 0.28)" />
    <stop offset="100%" stop-color="rgba(255, 212, 59, 0.08)" />
  </linearGradient>
  <linearGradient id="grad-teal" x1="0%" y1="0%" x2="100%" y2="100%">
    <stop offset="0%" stop-color="rgba(0, 189, 173, 0.28)" />
    <stop offset="100%" stop-color="rgba(0, 189, 173, 0.08)" />
  </linearGradient>
  <linearGradient id="grad-cyan" x1="0%" y1="0%" x2="100%" y2="100%">
    <stop offset="0%" stop-color="rgba(34, 211, 238, 0.25)" />
    <stop offset="100%" stop-color="rgba(34, 211, 238, 0.06)" />
  </linearGradient>
  <linearGradient id="grad-magenta" x1="0%" y1="0%" x2="100%" y2="100%">
    <stop offset="0%" stop-color="rgba(214, 0, 111, 0.25)" />
    <stop offset="100%" stop-color="rgba(214, 0, 111, 0.06)" />
  </linearGradient>
  <linearGradient id="grad-success" x1="0%" y1="0%" x2="100%" y2="100%">
    <stop offset="0%" stop-color="rgba(34, 197, 94, 0.25)" />
    <stop offset="100%" stop-color="rgba(34, 197, 94, 0.06)" />
  </linearGradient>
  <linearGradient id="grad-error" x1="0%" y1="0%" x2="100%" y2="100%">
    <stop offset="0%" stop-color="rgba(239, 68, 68, 0.25)" />
    <stop offset="100%" stop-color="rgba(239, 68, 68, 0.06)" />
  </linearGradient>
<style>
  .diagram {
  --diagram-arrow:        rgba(245, 244, 242, 0.18);
  --diagram-ink:          #f5f4f2;
  --diagram-edge:         rgba(245, 244, 242, 0.55);
  --diagram-teal:         #00bdad;
  --diagram-teal-border:  #5eead4;
  --diagram-cyan:         #22d3ee;
  --diagram-cyan-border:  #a5f3fc;
  --diagram-magenta:      #d6006f;
  --diagram-magenta-border: #f06292;
  --diagram-orange:       #ff6d1f;
  --diagram-orange-border: #ff9e5e;
  --diagram-yellow:       #ffd43b;
  --diagram-yellow-border: #ffe066;
  --diagram-success:      #22c55e;
  --diagram-success-border: #86efac;
  --diagram-error:        #ef4444;
  --diagram-error-border: #fca5a5;
  --diagram-surface:      rgba(255, 255, 255, 0.12);
  --diagram-bone:         #f5f4f2;

  }
</style>
<symbol id="image-1886b6c1744430b3ecdc697520906edc77e293593424cc440b9f5bf746a505d529197bded04480ad9e94d5a7a35c06fa" viewBox="0 0 24 24">
<path d="M13 2L3 14h9l-1 8 10-12h-9l1-8z" fill="var(--diagram-magenta)"/>
</symbol></defs><g stroke-linecap="round" transform="translate(10.000000088617071 536.4994017112246) rotate(0 428.21616700000004 143.80863750000003)"><path d="M32 0 C315.48 0, 598.96 0, 824.43 0 M32 0 C323.15 0, 614.3 0, 824.43 0 M824.43 0 C845.77 0, 856.43 10.67, 856.43 32 M824.43 0 C845.77 0, 856.43 10.67, 856.43 32 M856.43 32 C856.43 96.97, 856.43 161.94, 856.43 255.62 M856.43 32 C856.43 104.29, 856.43 176.58, 856.43 255.62 M856.43 255.62 C856.43 276.95, 845.77 287.62, 824.43 287.62 M856.43 255.62 C856.43 276.95, 845.77 287.62, 824.43 287.62 M824.43 287.62 C530.31 287.62, 236.18 287.62, 32 287.62 M824.43 287.62 C541.94 287.62, 259.45 287.62, 32 287.62 M32 287.62 C10.67 287.62, 0 276.95, 0 255.62 M32 287.62 C10.67 287.62, 0 276.95, 0 255.62 M0 255.62 C0 200.23, 0 144.84, 0 32 M0 255.62 C0 177.29, 0 98.97, 0 32 M0 32 C0 10.67, 10.67 0, 32 0 M0 32 C0 10.67, 10.67 0, 32 0" stroke="var(--diagram-cyan-border)" stroke-width="4" fill="none"></path></g><g stroke-linecap="round" transform="translate(77.74310098372212 255.215015521753) rotate(0 100.13905818996591 54.94743697260617)"><path d="M27.47 0 C59.13 0, 90.79 0, 172.8 0 C191.12 0, 200.28 9.16, 200.28 27.47 C200.28 40.41, 200.28 53.35, 200.28 82.42 C200.28 100.74, 191.12 109.89, 172.8 109.89 C122.33 109.89, 71.86 109.89, 27.47 109.89 C9.16 109.89, 0 100.74, 0 82.42 C0 66.99, 0 51.55, 0 27.47 C0 9.16, 9.16 0, 27.47 0" stroke="none" stroke-width="0" fill="url(#grad-teal)"></path><path d="M27.47 0 C61.11 0, 94.74 0, 172.8 0 M27.47 0 C81.17 0, 134.86 0, 172.8 0 M172.8 0 C191.12 0, 200.28 9.16, 200.28 27.47 M172.8 0 C191.12 0, 200.28 9.16, 200.28 27.47 M200.28 27.47 C200.28 46.14, 200.28 64.81, 200.28 82.42 M200.28 27.47 C200.28 41.26, 200.28 55.05, 200.28 82.42 M200.28 82.42 C200.28 100.74, 191.12 109.89, 172.8 109.89 M200.28 82.42 C200.28 100.74, 191.12 109.89, 172.8 109.89 M172.8 109.89 C119.61 109.89, 66.42 109.89, 27.47 109.89 M172.8 109.89 C131.23 109.89, 89.65 109.89, 27.47 109.89 M27.47 109.89 C9.16 109.89, 0 100.74, 0 82.42 M27.47 109.89 C9.16 109.89, 0 100.74, 0 82.42 M0 82.42 C0 66.29, 0 50.17, 0 27.47 M0 82.42 C0 68.11, 0 53.79, 0 27.47 M0 27.47 C0 9.16, 9.16 0, 27.47 0 M0 27.47 C0 9.16, 9.16 0, 27.47 0" stroke="var(--diagram-teal-border)" stroke-width="4" fill="none"></path></g><g transform="translate(122.51549428721341 287.6624524943593) rotate(0 55.36666488647461 22.5)"><text x="55.36666488647461" y="31.716" font-family="Excalifont, Xiaolai, sans-serif, Segoe UI Emoji" font-size="36px" fill="var(--diagram-teal)" text-anchor="middle" style="white-space: pre;" direction="ltr" dominant-baseline="alphabetic">Step 1</text></g><g stroke-linecap="round"><g transform="translate(278.0212166428282 310.5079786071808) rotate(0 30.02794586480877 -0.34552611282140333)"><path d="M0 0 C20.85 -0.24, 41.69 -0.48, 60.06 -0.69 M0 0 C12.34 -0.14, 24.69 -0.28, 60.06 -0.69" stroke="var(--diagram-edge)" stroke-width="4" fill="none"></path></g><g transform="translate(278.0212166428282 310.5079786071808) rotate(0 30.02794586480877 -0.34552611282140333)"><path d="M60.06 -0.69 L46.54 5.8 L46.39 -6.87 L60.06 -0.69" stroke="none" stroke-width="0" fill="#1e1e1e" fill-rule="evenodd"></path><path d="M60.06 -0.69 C55.36 1.56, 50.67 3.82, 46.54 5.8 M60.06 -0.69 C57.28 0.64, 54.5 1.98, 46.54 5.8 M46.54 5.8 C46.48 0.94, 46.42 -3.92, 46.39 -6.87 M46.54 5.8 C46.5 2.66, 46.46 -0.48, 46.39 -6.87 M46.39 -6.87 C51.77 -4.44, 57.15 -2.01, 60.06 -0.69 M46.39 -6.87 C49.5 -5.47, 52.61 -4.06, 60.06 -0.69 M60.06 -0.69 C60.06 -0.69, 60.06 -0.69, 60.06 -0.69 M60.06 -0.69 C60.06 -0.69, 60.06 -0.69, 60.06 -0.69" stroke="var(--diagram-edge)" stroke-width="4" fill="none"></path></g></g><mask></mask><g stroke-linecap="round" transform="translate(79.52792336614789 635.5578103343669) rotate(0 100.13905818996591 54.947436972606226)"><path d="M27.47 0 C80.73 0, 133.99 0, 172.8 0 C191.12 0, 200.28 9.16, 200.28 27.47 C200.28 45.28, 200.28 63.08, 200.28 82.42 C200.28 100.74, 191.12 109.89, 172.8 109.89 C120.83 109.89, 68.86 109.89, 27.47 109.89 C9.16 109.89, 0 100.74, 0 82.42 C0 69.21, 0 56.01, 0 27.47 C0 9.16, 9.16 0, 27.47 0" stroke="none" stroke-width="0" fill="url(#grad-cyan)"></path><path d="M27.47 0 C83.75 0, 140.03 0, 172.8 0 M27.47 0 C76.95 0, 126.43 0, 172.8 0 M172.8 0 C191.12 0, 200.28 9.16, 200.28 27.47 M172.8 0 C191.12 0, 200.28 9.16, 200.28 27.47 M200.28 27.47 C200.28 48.39, 200.28 69.31, 200.28 82.42 M200.28 27.47 C200.28 43.78, 200.28 60.09, 200.28 82.42 M200.28 82.42 C200.28 100.74, 191.12 109.89, 172.8 109.89 M200.28 82.42 C200.28 100.74, 191.12 109.89, 172.8 109.89 M172.8 109.89 C115.77 109.89, 58.73 109.89, 27.47 109.89 M172.8 109.89 C143.72 109.89, 114.64 109.89, 27.47 109.89 M27.47 109.89 C9.16 109.89, 0 100.74, 0 82.42 M27.47 109.89 C9.16 109.89, 0 100.74, 0 82.42 M0 82.42 C0 67.68, 0 52.93, 0 27.47 M0 82.42 C0 61.89, 0 41.37, 0 27.47 M0 27.47 C0 9.16, 9.16 0, 27.47 0 M0 27.47 C0 9.16, 9.16 0, 27.47 0" stroke="var(--diagram-cyan-border)" stroke-width="4" fill="none"></path></g><g transform="translate(124.08364949434622 668.005247306973) rotate(0 55.58333206176758 22.5)"><text x="55.58333206176758" y="31.716" font-family="Excalifont, Xiaolai, sans-serif, Segoe UI Emoji" font-size="36px" fill="var(--diagram-cyan)" text-anchor="middle" style="white-space: pre;" direction="ltr" dominant-baseline="alphabetic">Span 1</text></g><g stroke-linecap="round"><g transform="translate(279.80603902525377 698.2467214197947) rotate(0 30.027945864808657 -0.3455261128213465)"><path d="M0 0 C17.63 -0.2, 35.25 -0.41, 60.06 -0.69 M0 0 C15.64 -0.18, 31.29 -0.36, 60.06 -0.69" stroke="var(--diagram-edge)" stroke-width="4" fill="none"></path></g><g transform="translate(279.80603902525377 698.2467214197947) rotate(0 30.027945864808657 -0.3455261128213465)"><path d="M60.06 -0.69 L46.54 5.8 L46.39 -6.87 L60.06 -0.69" stroke="none" stroke-width="0" fill="#1e1e1e" fill-rule="evenodd"></path><path d="M60.06 -0.69 C56.09 1.22, 52.12 3.12, 46.54 5.8 M60.06 -0.69 C56.53 1, 53.01 2.69, 46.54 5.8 M46.54 5.8 C46.5 2.77, 46.47 -0.26, 46.39 -6.87 M46.54 5.8 C46.5 2.56, 46.46 -0.69, 46.39 -6.87 M46.39 -6.87 C50.31 -5.1, 54.23 -3.33, 60.06 -0.69 M46.39 -6.87 C50.55 -4.99, 54.7 -3.11, 60.06 -0.69 M60.06 -0.69 C60.06 -0.69, 60.06 -0.69, 60.06 -0.69 M60.06 -0.69 C60.06 -0.69, 60.06 -0.69, 60.06 -0.69" stroke="var(--diagram-edge)" stroke-width="4" fill="none"></path></g></g><mask></mask><g stroke-linecap="round" transform="translate(338.07710876688634 255.56054182805906) rotate(0 100.13905818996591 54.94743697260617)"><path d="M27.47 0 C77.35 0, 127.23 0, 172.8 0 C191.12 0, 200.28 9.16, 200.28 27.47 C200.28 41.03, 200.28 54.58, 200.28 82.42 C200.28 100.74, 191.12 109.89, 172.8 109.89 C143.52 109.89, 114.24 109.89, 27.47 109.89 C9.16 109.89, 0 100.74, 0 82.42 C0 61.11, 0 39.79, 0 27.47 C0 9.16, 9.16 0, 27.47 0" stroke="none" stroke-width="0" fill="url(#grad-teal)"></path><path d="M27.47 0 C76.79 0, 126.1 0, 172.8 0 M27.47 0 C57.56 0, 87.65 0, 172.8 0 M172.8 0 C191.12 0, 200.28 9.16, 200.28 27.47 M172.8 0 C191.12 0, 200.28 9.16, 200.28 27.47 M200.28 27.47 C200.28 45.72, 200.28 63.96, 200.28 82.42 M200.28 27.47 C200.28 49.33, 200.28 71.18, 200.28 82.42 M200.28 82.42 C200.28 100.74, 191.12 109.89, 172.8 109.89 M200.28 82.42 C200.28 100.74, 191.12 109.89, 172.8 109.89 M172.8 109.89 C140.07 109.89, 107.33 109.89, 27.47 109.89 M172.8 109.89 C119.14 109.89, 65.47 109.89, 27.47 109.89 M27.47 109.89 C9.16 109.89, 0 100.74, 0 82.42 M27.47 109.89 C9.16 109.89, 0 100.74, 0 82.42 M0 82.42 C0 65.68, 0 48.94, 0 27.47 M0 82.42 C0 62.23, 0 42.04, 0 27.47 M0 27.47 C0 9.16, 9.16 0, 27.47 0 M0 27.47 C0 9.16, 9.16 0, 27.47 0" stroke="var(--diagram-teal-border)" stroke-width="4" fill="none"></path></g><g transform="translate(377.9328341321452 288.00797880066534) rotate(0 60.28333282470703 22.5)"><text x="60.28333282470703" y="31.716" font-family="Excalifont, Xiaolai, sans-serif, Segoe UI Emoji" font-size="36px" fill="var(--diagram-teal)" text-anchor="middle" style="white-space: pre;" direction="ltr" dominant-baseline="alphabetic">Step 2</text></g><g stroke-linecap="round"><g transform="translate(538.3552244259922 310.85350491348686) rotate(0 30.02794586480877 -0.34552611282140333)"><path d="M0 0 C18.39 -0.21, 36.78 -0.42, 60.06 -0.69 M0 0 C15.58 -0.18, 31.15 -0.36, 60.06 -0.69" stroke="var(--diagram-edge)" stroke-width="4" fill="none"></path></g><g transform="translate(538.3552244259922 310.85350491348686) rotate(0 30.02794586480877 -0.34552611282140333)"><path d="M60.06 -0.69 L46.54 5.8 L46.39 -6.87 L60.06 -0.69" stroke="none" stroke-width="0" fill="#1e1e1e" fill-rule="evenodd"></path><path d="M60.06 -0.69 C55.92 1.3, 51.78 3.29, 46.54 5.8 M60.06 -0.69 C56.55 0.99, 53.04 2.68, 46.54 5.8 M46.54 5.8 C46.48 0.89, 46.42 -4.02, 46.39 -6.87 M46.54 5.8 C46.48 0.92, 46.42 -3.96, 46.39 -6.87 M46.39 -6.87 C49.42 -5.5, 52.45 -4.13, 60.06 -0.69 M46.39 -6.87 C50.15 -5.17, 53.92 -3.47, 60.06 -0.69 M60.06 -0.69 C60.06 -0.69, 60.06 -0.69, 60.06 -0.69 M60.06 -0.69 C60.06 -0.69, 60.06 -0.69, 60.06 -0.69" stroke="var(--diagram-edge)" stroke-width="4" fill="none"></path></g></g><mask></mask><g stroke-linecap="round" transform="translate(598.4111166469017 254.86948931370125) rotate(0 100.1390581899658 54.94743697260617)"><path d="M27.47 0 C69.03 0, 110.59 0, 172.8 0 C191.12 0, 200.28 9.16, 200.28 27.47 C200.28 48.68, 200.28 69.88, 200.28 82.42 C200.28 100.74, 191.12 109.89, 172.8 109.89 C135.3 109.89, 97.8 109.89, 27.47 109.89 C9.16 109.89, 0 100.74, 0 82.42 C0 66.54, 0 50.65, 0 27.47 C0 9.16, 9.16 0, 27.47 0" stroke="none" stroke-width="0" fill="url(#grad-teal)"></path><path d="M27.47 0 C69.06 0, 110.65 0, 172.8 0 M27.47 0 C74.26 0, 121.05 0, 172.8 0 M172.8 0 C191.12 0, 200.28 9.16, 200.28 27.47 M172.8 0 C191.12 0, 200.28 9.16, 200.28 27.47 M200.28 27.47 C200.28 46.65, 200.28 65.82, 200.28 82.42 M200.28 27.47 C200.28 45.82, 200.28 64.17, 200.28 82.42 M200.28 82.42 C200.28 100.74, 191.12 109.89, 172.8 109.89 M200.28 82.42 C200.28 100.74, 191.12 109.89, 172.8 109.89 M172.8 109.89 C114.93 109.89, 57.07 109.89, 27.47 109.89 M172.8 109.89 C134.16 109.89, 95.51 109.89, 27.47 109.89 M27.47 109.89 C9.16 109.89, 0 100.74, 0 82.42 M27.47 109.89 C9.16 109.89, 0 100.74, 0 82.42 M0 82.42 C0 67.61, 0 52.8, 0 27.47 M0 82.42 C0 70.69, 0 58.96, 0 27.47 M0 27.47 C0 9.16, 9.16 0, 27.47 0 M0 27.47 C0 9.16, 9.16 0, 27.47 0" stroke="var(--diagram-teal-border)" stroke-width="4" fill="none"></path></g><g transform="translate(639.9251748368677 287.31692628630753) rotate(0 58.625000000000114 22.5)"><text x="58.625" y="31.716" font-family="Excalifont, Xiaolai, sans-serif, Segoe UI Emoji" font-size="36px" fill="var(--diagram-teal)" text-anchor="middle" style="white-space: pre;" direction="ltr" dominant-baseline="alphabetic">Step 3</text></g><g transform="translate(893.6886168477613 10) rotate(0 43.43333435058594 22.5)"><text x="43.43333435058594" y="34.344" font-family="Nunito, sans-serif, Segoe UI Emoji" font-size="36px" fill="var(--diagram-magenta)" text-anchor="middle" style="white-space: pre;" direction="ltr" dominant-baseline="alphabetic">crash</text></g><g transform="translate(855.9076751677708 13.510196086309406) rotate(0 20.528645833333485 20.5286458333336)"><use href="#image-1886b6c1744430b3ecdc697520906edc77e293593424cc440b9f5bf746a505d529197bded04480ad9e94d5a7a35c06fa" width="41" height="41" opacity="1"></use></g><g stroke-linecap="round" transform="translate(994.6264927586485 254.52396371122472) rotate(0 157.10574129916358 54.947437153339365)"><path d="M27.47 0 C115.53 0, 203.58 0, 286.74 0 C305.05 0, 314.21 9.16, 314.21 27.47 C314.21 41.31, 314.21 55.14, 314.21 82.42 C314.21 100.74, 305.05 109.89, 286.74 109.89 C222.91 109.89, 159.08 109.89, 27.47 109.89 C9.16 109.89, 0 100.74, 0 82.42 C0 69.05, 0 55.69, 0 27.47 C0 9.16, 9.16 0, 27.47 0" stroke="none" stroke-width="0" fill="url(#grad-orange)"></path><path d="M27.47 0 C127.6 0, 227.73 0, 286.74 0 M27.47 0 C124.04 0, 220.6 0, 286.74 0 M286.74 0 C305.05 0, 314.21 9.16, 314.21 27.47 M286.74 0 C305.05 0, 314.21 9.16, 314.21 27.47 M314.21 27.47 C314.21 39.56, 314.21 51.66, 314.21 82.42 M314.21 27.47 C314.21 43.49, 314.21 59.5, 314.21 82.42 M314.21 82.42 C314.21 100.74, 305.05 109.89, 286.74 109.89 M314.21 82.42 C314.21 100.74, 305.05 109.89, 286.74 109.89 M286.74 109.89 C224.25 109.89, 161.76 109.89, 27.47 109.89 M286.74 109.89 C211.87 109.89, 137 109.89, 27.47 109.89 M27.47 109.89 C9.16 109.89, 0 100.74, 0 82.42 M27.47 109.89 C9.16 109.89, 0 100.74, 0 82.42 M0 82.42 C0 66.22, 0 50.02, 0 27.47 M0 82.42 C0 66.63, 0 50.83, 0 27.47 M0 27.47 C0 9.16, 9.16 0, 27.47 0 M0 27.47 C0 9.16, 9.16 0, 27.47 0" stroke="var(--diagram-orange-border)" stroke-width="4" fill="none"></path></g><g transform="translate(1068.2489042848624 286.9714008645642) rotate(0 83.48332977294922 22.5)"><text x="83.48332977294922" y="31.716" font-family="Excalifont, Xiaolai, sans-serif, Segoe UI Emoji" font-size="36px" fill="var(--diagram-orange)" text-anchor="middle" style="white-space: pre;" direction="ltr" dominant-baseline="alphabetic">Steps 1-3</text></g><g stroke-linecap="round" transform="translate(1376.0975022794078 253.4873843405985) rotate(0 100.13905818996591 54.94743697260617)"><path d="M27.47 0 C83.95 0, 140.43 0, 172.8 0 C191.12 0, 200.28 9.16, 200.28 27.47 C200.28 47.25, 200.28 67.02, 200.28 82.42 C200.28 100.74, 191.12 109.89, 172.8 109.89 C123.61 109.89, 74.42 109.89, 27.47 109.89 C9.16 109.89, 0 100.74, 0 82.42 C0 68.71, 0 55.01, 0 27.47 C0 9.16, 9.16 0, 27.47 0" stroke="none" stroke-width="0" fill="url(#grad-teal)"></path><path d="M27.47 0 C72.35 0, 117.23 0, 172.8 0 M27.47 0 C71.24 0, 115.01 0, 172.8 0 M172.8 0 C191.12 0, 200.28 9.16, 200.28 27.47 M172.8 0 C191.12 0, 200.28 9.16, 200.28 27.47 M200.28 27.47 C200.28 42.16, 200.28 56.84, 200.28 82.42 M200.28 27.47 C200.28 47.54, 200.28 67.6, 200.28 82.42 M200.28 82.42 C200.28 100.74, 191.12 109.89, 172.8 109.89 M200.28 82.42 C200.28 100.74, 191.12 109.89, 172.8 109.89 M172.8 109.89 C126.67 109.89, 80.54 109.89, 27.47 109.89 M172.8 109.89 C125.18 109.89, 77.55 109.89, 27.47 109.89 M27.47 109.89 C9.16 109.89, 0 100.74, 0 82.42 M27.47 109.89 C9.16 109.89, 0 100.74, 0 82.42 M0 82.42 C0 68.4, 0 54.38, 0 27.47 M0 82.42 C0 62.53, 0 42.64, 0 27.47 M0 27.47 C0 9.16, 9.16 0, 27.47 0 M0 27.47 C0 9.16, 9.16 0, 27.47 0" stroke="var(--diagram-teal-border)" stroke-width="4" fill="none"></path></g><g transform="translate(1418.0198932940807 285.9348213132048) rotate(0 58.21666717529297 22.5)"><text x="58.21666717529297" y="31.716" font-family="Excalifont, Xiaolai, sans-serif, Segoe UI Emoji" font-size="36px" fill="var(--diagram-teal)" text-anchor="middle" style="white-space: pre;" direction="ltr" dominant-baseline="alphabetic">Step 4</text></g><g stroke-linecap="round"><g transform="translate(1576.3756189385144 308.7803474260263) rotate(0 30.02794586480877 -0.34552611282140333)"><path d="M0 0 C22.73 -0.26, 45.45 -0.52, 60.06 -0.69 M0 0 C19.14 -0.22, 38.29 -0.44, 60.06 -0.69" stroke="var(--diagram-edge)" stroke-width="4" fill="none"></path></g><g transform="translate(1576.3756189385144 308.7803474260263) rotate(0 30.02794586480877 -0.34552611282140333)"><path d="M60.06 -0.69 L46.54 5.8 L46.39 -6.87 L60.06 -0.69" stroke="none" stroke-width="0" fill="#1e1e1e" fill-rule="evenodd"></path><path d="M60.06 -0.69 C54.94 1.77, 49.82 4.22, 46.54 5.8 M60.06 -0.69 C55.75 1.38, 51.44 3.45, 46.54 5.8 M46.54 5.8 C46.5 3.07, 46.47 0.34, 46.39 -6.87 M46.54 5.8 C46.49 1.7, 46.44 -2.4, 46.39 -6.87 M46.39 -6.87 C51.04 -4.77, 55.7 -2.66, 60.06 -0.69 M46.39 -6.87 C49.4 -5.51, 52.41 -4.15, 60.06 -0.69 M60.06 -0.69 C60.06 -0.69, 60.06 -0.69, 60.06 -0.69 M60.06 -0.69 C60.06 -0.69, 60.06 -0.69, 60.06 -0.69" stroke="var(--diagram-edge)" stroke-width="4" fill="none"></path></g></g><mask></mask><g stroke-linecap="round"><g transform="translate(1308.8379755711144 308.08929430431135) rotate(0 30.02794586480877 -0.34552611282140333)"><path d="M0 0 C14.29 -0.16, 28.58 -0.33, 60.06 -0.69 M0 0 C16.09 -0.19, 32.17 -0.37, 60.06 -0.69" stroke="var(--diagram-edge)" stroke-width="4" fill="none"></path></g><g transform="translate(1308.8379755711144 308.08929430431135) rotate(0 30.02794586480877 -0.34552611282140333)"><path d="M60.06 -0.69 L46.54 5.8 L46.39 -6.87 L60.06 -0.69" stroke="none" stroke-width="0" fill="#1e1e1e" fill-rule="evenodd"></path><path d="M60.06 -0.69 C56.84 0.85, 53.62 2.4, 46.54 5.8 M60.06 -0.69 C56.43 1.05, 52.81 2.79, 46.54 5.8 M46.54 5.8 C46.5 2.78, 46.47 -0.25, 46.39 -6.87 M46.54 5.8 C46.48 1.32, 46.43 -3.16, 46.39 -6.87 M46.39 -6.87 C50.84 -4.86, 55.29 -2.85, 60.06 -0.69 M46.39 -6.87 C51.28 -4.66, 56.17 -2.45, 60.06 -0.69 M60.06 -0.69 C60.06 -0.69, 60.06 -0.69, 60.06 -0.69 M60.06 -0.69 C60.06 -0.69, 60.06 -0.69, 60.06 -0.69" stroke="var(--diagram-edge)" stroke-width="4" fill="none"></path></g></g><mask></mask><g stroke-linecap="round"><g transform="translate(914.146599847043 54.56748722614543) rotate(0 3.034719256919743 418.16787082586626)"><path d="M0 0 C1.01 139.39, 5.06 696.95, 6.07 836.34" stroke="var(--diagram-magenta-border)" stroke-width="4.5" fill="none" stroke-dasharray="8 12"></path></g></g><mask></mask><g transform="translate(1000.2141708479921 393.93479824247925) rotate(0 375.8833312988281 35)"><text x="0" y="24.668" font-family="Excalifont, Xiaolai, sans-serif, Segoe UI Emoji" font-size="28px" fill="var(--diagram-orange)" text-anchor="start" style="white-space: pre;" direction="ltr" dominant-baseline="alphabetic">Completed steps return their saved result instead of</text><text x="0" y="59.668" font-family="Excalifont, Xiaolai, sans-serif, Segoe UI Emoji" font-size="28px" fill="var(--diagram-orange)" text-anchor="start" style="white-space: pre;" direction="ltr" dominant-baseline="alphabetic">executing again.</text></g><g stroke-linecap="round" transform="translate(1636.4315106368572 254.86948991344912) rotate(0 100.13905818996591 54.94743697260617)"><path d="M27.47 0 C78.3 0, 129.13 0, 172.8 0 C191.12 0, 200.28 9.16, 200.28 27.47 C200.28 39.57, 200.28 51.67, 200.28 82.42 C200.28 100.74, 191.12 109.89, 172.8 109.89 C120.95 109.89, 69.09 109.89, 27.47 109.89 C9.16 109.89, 0 100.74, 0 82.42 C0 68.88, 0 55.35, 0 27.47 C0 9.16, 9.16 0, 27.47 0" stroke="none" stroke-width="0" fill="url(#grad-teal)"></path><path d="M27.47 0 C62.87 0, 98.26 0, 172.8 0 M27.47 0 C84.24 0, 141 0, 172.8 0 M172.8 0 C191.12 0, 200.28 9.16, 200.28 27.47 M172.8 0 C191.12 0, 200.28 9.16, 200.28 27.47 M200.28 27.47 C200.28 40.82, 200.28 54.16, 200.28 82.42 M200.28 27.47 C200.28 38.97, 200.28 50.46, 200.28 82.42 M200.28 82.42 C200.28 100.74, 191.12 109.89, 172.8 109.89 M200.28 82.42 C200.28 100.74, 191.12 109.89, 172.8 109.89 M172.8 109.89 C129.63 109.89, 86.46 109.89, 27.47 109.89 M172.8 109.89 C131.29 109.89, 89.77 109.89, 27.47 109.89 M27.47 109.89 C9.16 109.89, 0 100.74, 0 82.42 M27.47 109.89 C9.16 109.89, 0 100.74, 0 82.42 M0 82.42 C0 61.59, 0 40.75, 0 27.47 M0 82.42 C0 61.64, 0 40.87, 0 27.47 M0 27.47 C0 9.16, 9.16 0, 27.47 0 M0 27.47 C0 9.16, 9.16 0, 27.47 0" stroke="var(--diagram-teal-border)" stroke-width="4" fill="none"></path></g><g transform="translate(1677.7622344762372 287.3169268860554) rotate(0 58.80833435058594 22.5)"><text x="58.80833435058594" y="31.716" font-family="Excalifont, Xiaolai, sans-serif, Segoe UI Emoji" font-size="36px" fill="var(--diagram-teal)" text-anchor="middle" style="white-space: pre;" direction="ltr" dominant-baseline="alphabetic">Step 5</text></g><g stroke-linecap="round" transform="translate(339.86193069450064 635.2122843219715) rotate(0 100.13905818996591 54.947436972606226)"><path d="M27.47 0 C67 0, 106.53 0, 172.8 0 C191.12 0, 200.28 9.16, 200.28 27.47 C200.28 49.22, 200.28 70.98, 200.28 82.42 C200.28 100.74, 191.12 109.89, 172.8 109.89 C119.76 109.89, 66.71 109.89, 27.47 109.89 C9.16 109.89, 0 100.74, 0 82.42 C0 67.53, 0 52.64, 0 27.47 C0 9.16, 9.16 0, 27.47 0" stroke="none" stroke-width="0" fill="url(#grad-cyan)"></path><path d="M27.47 0 C78.92 0, 130.37 0, 172.8 0 M27.47 0 C57.1 0, 86.73 0, 172.8 0 M172.8 0 C191.12 0, 200.28 9.16, 200.28 27.47 M172.8 0 C191.12 0, 200.28 9.16, 200.28 27.47 M200.28 27.47 C200.28 45.69, 200.28 63.9, 200.28 82.42 M200.28 27.47 C200.28 46.9, 200.28 66.32, 200.28 82.42 M200.28 82.42 C200.28 100.74, 191.12 109.89, 172.8 109.89 M200.28 82.42 C200.28 100.74, 191.12 109.89, 172.8 109.89 M172.8 109.89 C118.74 109.89, 64.68 109.89, 27.47 109.89 M172.8 109.89 C126.07 109.89, 79.34 109.89, 27.47 109.89 M27.47 109.89 C9.16 109.89, 0 100.74, 0 82.42 M27.47 109.89 C9.16 109.89, 0 100.74, 0 82.42 M0 82.42 C0 62.58, 0 42.73, 0 27.47 M0 82.42 C0 62.99, 0 43.55, 0 27.47 M0 27.47 C0 9.16, 9.16 0, 27.47 0 M0 27.47 C0 9.16, 9.16 0, 27.47 0" stroke="var(--diagram-cyan-border)" stroke-width="4" fill="none"></path></g><g transform="translate(379.50098888446655 667.6597212945777) rotate(0 60.5 22.5)"><text x="60.5" y="31.716" font-family="Excalifont, Xiaolai, sans-serif, Segoe UI Emoji" font-size="36px" fill="var(--diagram-cyan)" text-anchor="middle" style="white-space: pre;" direction="ltr" dominant-baseline="alphabetic">Span 2</text></g><g stroke-linecap="round"><g transform="translate(540.1400463536061 690.5052474073993) rotate(0 30.02794586480877 -0.3455261128213465)"><path d="M0 0 C23.54 -0.27, 47.08 -0.54, 60.06 -0.69 M0 0 C14.87 -0.17, 29.74 -0.34, 60.06 -0.69" stroke="var(--diagram-edge)" stroke-width="4" fill="none"></path></g><g transform="translate(540.1400463536061 690.5052474073993) rotate(0 30.02794586480877 -0.3455261128213465)"><path d="M60.06 -0.69 L46.54 5.8 L46.39 -6.87 L60.06 -0.69" stroke="none" stroke-width="0" fill="#1e1e1e" fill-rule="evenodd"></path><path d="M60.06 -0.69 C54.76 1.86, 49.46 4.4, 46.54 5.8 M60.06 -0.69 C56.71 0.92, 53.36 2.53, 46.54 5.8 M46.54 5.8 C46.48 0.85, 46.42 -4.1, 46.39 -6.87 M46.54 5.8 C46.5 2.32, 46.45 -1.16, 46.39 -6.87 M46.39 -6.87 C49.19 -5.61, 51.99 -4.34, 60.06 -0.69 M46.39 -6.87 C49.17 -5.62, 51.95 -4.36, 60.06 -0.69 M60.06 -0.69 C60.06 -0.69, 60.06 -0.69, 60.06 -0.69 M60.06 -0.69 C60.06 -0.69, 60.06 -0.69, 60.06 -0.69" stroke="var(--diagram-edge)" stroke-width="4" fill="none"></path></g></g><mask></mask><g stroke-linecap="round" transform="translate(600.1959385745158 634.521231807614) rotate(0 100.13905818996591 54.947436972606226)"><path d="M27.47 0 C81.4 0, 135.32 0, 172.8 0 C191.12 0, 200.28 9.16, 200.28 27.47 C200.28 48.53, 200.28 69.59, 200.28 82.42 C200.28 100.74, 191.12 109.89, 172.8 109.89 C140.88 109.89, 108.96 109.89, 27.47 109.89 C9.16 109.89, 0 100.74, 0 82.42 C0 69.5, 0 56.59, 0 27.47 C0 9.16, 9.16 0, 27.47 0" stroke="none" stroke-width="0" fill="url(#grad-cyan)"></path><path d="M27.47 0 C57.28 0, 87.08 0, 172.8 0 M27.47 0 C84.68 0, 141.89 0, 172.8 0 M172.8 0 C191.12 0, 200.28 9.16, 200.28 27.47 M172.8 0 C191.12 0, 200.28 9.16, 200.28 27.47 M200.28 27.47 C200.28 43.05, 200.28 58.62, 200.28 82.42 M200.28 27.47 C200.28 46.39, 200.28 65.3, 200.28 82.42 M200.28 82.42 C200.28 100.74, 191.12 109.89, 172.8 109.89 M200.28 82.42 C200.28 100.74, 191.12 109.89, 172.8 109.89 M172.8 109.89 C128.15 109.89, 83.5 109.89, 27.47 109.89 M172.8 109.89 C142 109.89, 111.2 109.89, 27.47 109.89 M27.47 109.89 C9.16 109.89, 0 100.74, 0 82.42 M27.47 109.89 C9.16 109.89, 0 100.74, 0 82.42 M0 82.42 C0 63.21, 0 44, 0 27.47 M0 82.42 C0 68.4, 0 54.38, 0 27.47 M0 27.47 C0 9.16, 9.16 0, 27.47 0 M0 27.47 C0 9.16, 9.16 0, 27.47 0" stroke="var(--diagram-cyan-border)" stroke-width="4" fill="none"></path></g><g transform="translate(641.4933295891888 666.9686687802201) rotate(0 58.84166717529297 22.5)"><text x="58.84166717529297" y="31.716" font-family="Excalifont, Xiaolai, sans-serif, Segoe UI Emoji" font-size="36px" fill="var(--diagram-cyan)" text-anchor="middle" style="white-space: pre;" direction="ltr" dominant-baseline="alphabetic">Span 3</text></g><g stroke-linecap="round" transform="translate(994.6264926862632 617.2495922051374) rotate(0 157.10574129916358 54.94743715333942)"><path d="M27.47 0 C80.99 0, 134.51 0, 286.74 0 C305.05 0, 314.21 9.16, 314.21 27.47 C314.21 42.2, 314.21 56.93, 314.21 82.42 C314.21 100.74, 305.05 109.89, 286.74 109.89 C205.1 109.89, 123.47 109.89, 27.47 109.89 C9.16 109.89, 0 100.74, 0 82.42 C0 66.02, 0 49.61, 0 27.47 C0 9.16, 9.16 0, 27.47 0" stroke="none" stroke-width="0" fill="url(#grad-magenta)"></path><path d="M27.47 0 C92.36 0, 157.25 0, 286.74 0 M27.47 0 C85.51 0, 143.55 0, 286.74 0 M286.74 0 C305.05 0, 314.21 9.16, 314.21 27.47 M286.74 0 C305.05 0, 314.21 9.16, 314.21 27.47 M314.21 27.47 C314.21 48.56, 314.21 69.65, 314.21 82.42 M314.21 27.47 C314.21 41.34, 314.21 55.2, 314.21 82.42 M314.21 82.42 C314.21 100.74, 305.05 109.89, 286.74 109.89 M314.21 82.42 C314.21 100.74, 305.05 109.89, 286.74 109.89 M286.74 109.89 C226.41 109.89, 166.09 109.89, 27.47 109.89 M286.74 109.89 C232.5 109.89, 178.26 109.89, 27.47 109.89 M27.47 109.89 C9.16 109.89, 0 100.74, 0 82.42 M27.47 109.89 C9.16 109.89, 0 100.74, 0 82.42 M0 82.42 C0 68.27, 0 54.12, 0 27.47 M0 82.42 C0 62.35, 0 42.27, 0 27.47 M0 27.47 C0 9.16, 9.16 0, 27.47 0 M0 27.47 C0 9.16, 9.16 0, 27.47 0" stroke="var(--diagram-magenta-border)" stroke-width="4" fill="none"></path></g><g transform="translate(1090.1489019236587 649.6970293584768) rotate(0 61.58333206176758 22.5)"><text x="61.58333206176758" y="31.716" font-family="Excalifont, Xiaolai, sans-serif, Segoe UI Emoji" font-size="36px" fill="var(--diagram-magenta)" text-anchor="middle" style="white-space: pre;" direction="ltr" dominant-baseline="alphabetic">Missing</text></g><g stroke-linecap="round" transform="translate(1376.0975022070234 616.213012834511) rotate(0 100.13905818996591 54.947436972606226)"><path d="M27.47 0 C85.58 0, 143.69 0, 172.8 0 C191.12 0, 200.28 9.16, 200.28 27.47 C200.28 38.54, 200.28 49.6, 200.28 82.42 C200.28 100.74, 191.12 109.89, 172.8 109.89 C138 109.89, 103.2 109.89, 27.47 109.89 C9.16 109.89, 0 100.74, 0 82.42 C0 63.69, 0 44.96, 0 27.47 C0 9.16, 9.16 0, 27.47 0" stroke="none" stroke-width="0" fill="url(#grad-cyan)"></path><path d="M27.47 0 C74.97 0, 122.46 0, 172.8 0 M27.47 0 C56.56 0, 85.65 0, 172.8 0 M172.8 0 C191.12 0, 200.28 9.16, 200.28 27.47 M172.8 0 C191.12 0, 200.28 9.16, 200.28 27.47 M200.28 27.47 C200.28 40.57, 200.28 53.67, 200.28 82.42 M200.28 27.47 C200.28 40.96, 200.28 54.45, 200.28 82.42 M200.28 82.42 C200.28 100.74, 191.12 109.89, 172.8 109.89 M200.28 82.42 C200.28 100.74, 191.12 109.89, 172.8 109.89 M172.8 109.89 C126.87 109.89, 80.93 109.89, 27.47 109.89 M172.8 109.89 C121.07 109.89, 69.34 109.89, 27.47 109.89 M27.47 109.89 C9.16 109.89, 0 100.74, 0 82.42 M27.47 109.89 C9.16 109.89, 0 100.74, 0 82.42 M0 82.42 C0 63.43, 0 44.45, 0 27.47 M0 82.42 C0 67.18, 0 51.93, 0 27.47 M0 27.47 C0 9.16, 9.16 0, 27.47 0 M0 27.47 C0 9.16, 9.16 0, 27.47 0" stroke="var(--diagram-cyan-border)" stroke-width="4" fill="none"></path></g><g transform="translate(1417.8032260464033 648.6604498071172) rotate(0 58.43333435058594 22.5)"><text x="58.43333435058594" y="31.716" font-family="Excalifont, Xiaolai, sans-serif, Segoe UI Emoji" font-size="36px" fill="var(--diagram-cyan)" text-anchor="middle" style="white-space: pre;" direction="ltr" dominant-baseline="alphabetic">Span 4</text></g><g stroke-linecap="round"><g transform="translate(1576.37561886613 671.5059759199388) rotate(0 30.02794586480877 -0.3455261128213465)"><path d="M0 0 C16.36 -0.19, 32.72 -0.38, 60.06 -0.69 M0 0 C15.88 -0.18, 31.76 -0.37, 60.06 -0.69" stroke="var(--diagram-edge)" stroke-width="4" fill="none"></path></g><g transform="translate(1576.37561886613 671.5059759199388) rotate(0 30.02794586480877 -0.3455261128213465)"><path d="M60.06 -0.69 L46.54 5.8 L46.39 -6.87 L60.06 -0.69" stroke="none" stroke-width="0" fill="#1e1e1e" fill-rule="evenodd"></path><path d="M60.06 -0.69 C56.37 1.08, 52.69 2.85, 46.54 5.8 M60.06 -0.69 C56.48 1.03, 52.91 2.74, 46.54 5.8 M46.54 5.8 C46.48 0.94, 46.42 -3.93, 46.39 -6.87 M46.54 5.8 C46.5 2.61, 46.46 -0.59, 46.39 -6.87 M46.39 -6.87 C51.7 -4.47, 57.02 -2.07, 60.06 -0.69 M46.39 -6.87 C49.31 -5.55, 52.24 -4.23, 60.06 -0.69 M60.06 -0.69 C60.06 -0.69, 60.06 -0.69, 60.06 -0.69 M60.06 -0.69 C60.06 -0.69, 60.06 -0.69, 60.06 -0.69" stroke="var(--diagram-edge)" stroke-width="4" fill="none"></path></g></g><mask></mask><g stroke-linecap="round"><g transform="translate(1308.83797549873 670.8149227982243) rotate(0 30.02794586480877 -0.3455261128213465)"><path d="M0 0 C19.91 -0.23, 39.81 -0.46, 60.06 -0.69 M0 0 C21.23 -0.24, 42.46 -0.49, 60.06 -0.69" stroke="var(--diagram-edge)" stroke-width="4" fill="none"></path></g><g transform="translate(1308.83797549873 670.8149227982243) rotate(0 30.02794586480877 -0.3455261128213465)"><path d="M60.06 -0.69 L46.54 5.8 L46.39 -6.87 L60.06 -0.69" stroke="none" stroke-width="0" fill="#1e1e1e" fill-rule="evenodd"></path><path d="M60.06 -0.69 C55.57 1.46, 51.09 3.61, 46.54 5.8 M60.06 -0.69 C55.28 1.61, 50.5 3.9, 46.54 5.8 M46.54 5.8 C46.49 1.9, 46.45 -2.01, 46.39 -6.87 M46.54 5.8 C46.5 2.78, 46.47 -0.24, 46.39 -6.87 M46.39 -6.87 C50.59 -4.97, 54.79 -3.07, 60.06 -0.69 M46.39 -6.87 C49.29 -5.56, 52.18 -4.25, 60.06 -0.69 M60.06 -0.69 C60.06 -0.69, 60.06 -0.69, 60.06 -0.69 M60.06 -0.69 C60.06 -0.69, 60.06 -0.69, 60.06 -0.69" stroke="var(--diagram-edge)" stroke-width="4" fill="none"></path></g></g><mask></mask><g stroke-linecap="round" transform="translate(1636.4315105644728 617.5951184073618) rotate(0 100.13905818996591 54.947436972606226)"><path d="M27.47 0 C82.46 0, 137.44 0, 172.8 0 C191.12 0, 200.28 9.16, 200.28 27.47 C200.28 41.92, 200.28 56.37, 200.28 82.42 C200.28 100.74, 191.12 109.89, 172.8 109.89 C133.66 109.89, 94.51 109.89, 27.47 109.89 C9.16 109.89, 0 100.74, 0 82.42 C0 65.58, 0 48.73, 0 27.47 C0 9.16, 9.16 0, 27.47 0" stroke="none" stroke-width="0" fill="url(#grad-cyan)"></path><path d="M27.47 0 C58.75 0, 90.03 0, 172.8 0 M27.47 0 C62.13 0, 96.78 0, 172.8 0 M172.8 0 C191.12 0, 200.28 9.16, 200.28 27.47 M172.8 0 C191.12 0, 200.28 9.16, 200.28 27.47 M200.28 27.47 C200.28 42.42, 200.28 57.36, 200.28 82.42 M200.28 27.47 C200.28 44.15, 200.28 60.82, 200.28 82.42 M200.28 82.42 C200.28 100.74, 191.12 109.89, 172.8 109.89 M200.28 82.42 C200.28 100.74, 191.12 109.89, 172.8 109.89 M172.8 109.89 C136.99 109.89, 101.18 109.89, 27.47 109.89 M172.8 109.89 C135.45 109.89, 98.09 109.89, 27.47 109.89 M27.47 109.89 C9.16 109.89, 0 100.74, 0 82.42 M27.47 109.89 C9.16 109.89, 0 100.74, 0 82.42 M0 82.42 C0 61.86, 0 41.3, 0 27.47 M0 82.42 C0 60.71, 0 39, 0 27.47 M0 27.47 C0 9.16, 9.16 0, 27.47 0 M0 27.47 C0 9.16, 9.16 0, 27.47 0" stroke="var(--diagram-cyan-border)" stroke-width="4" fill="none"></path></g><g transform="translate(1677.5455672285598 650.042555379968) rotate(0 59.025001525878906 22.5)"><text x="59.025001525878906" y="31.716" font-family="Excalifont, Xiaolai, sans-serif, Segoe UI Emoji" font-size="36px" fill="var(--diagram-cyan)" text-anchor="middle" style="white-space: pre;" direction="ltr" dominant-baseline="alphabetic">Span 5</text></g><g transform="translate(325.9165109882315 547.1081456791121) rotate(0 121.23332977294922 22.5)"><text x="121.23332977294922" y="31.716" font-family="Excalifont, Xiaolai, sans-serif, Segoe UI Emoji" font-size="36px" fill="var(--diagram-cyan)" text-anchor="middle" style="white-space: pre;" direction="ltr" dominant-baseline="alphabetic">Original Trace</text></g><g transform="translate(1000.2141714590143 760.5310000585448) rotate(0 311.70001220703125 17.5)"><text x="311.70001220703125" y="24.668" font-family="Excalifont, Xiaolai, sans-serif, Segoe UI Emoji" font-size="28px" fill="var(--diagram-magenta)" text-anchor="middle" style="white-space: pre;" direction="ltr" dominant-baseline="alphabetic">Spans of completed steps are not re-emitted.</text></g><g transform="translate(279.8060402056444 176.09207633514302) rotate(0 149.13333129882812 22.5)"><text x="149.13333129882812" y="31.716" font-family="Excalifont, Xiaolai, sans-serif, Segoe UI Emoji" font-size="36px" fill="var(--diagram-teal)" text-anchor="middle" style="white-space: pre;" direction="ltr" dominant-baseline="alphabetic">Original Workflow</text></g><g stroke-linecap="round" transform="translate(962.6381730886174 162.8961827112248) rotate(0 458.68305762812656 166.76966149999998)"><path d="M32 0 C314.56 0, 597.12 0, 885.37 0 M32 0 C349.4 0, 666.8 0, 885.37 0 M885.37 0 C906.7 0, 917.37 10.67, 917.37 32 M885.37 0 C906.7 0, 917.37 10.67, 917.37 32 M917.37 32 C917.37 117.69, 917.37 203.39, 917.37 301.54 M917.37 32 C917.37 90.93, 917.37 149.86, 917.37 301.54 M917.37 301.54 C917.37 322.87, 906.7 333.54, 885.37 333.54 M917.37 301.54 C917.37 322.87, 906.7 333.54, 885.37 333.54 M885.37 333.54 C556.63 333.54, 227.9 333.54, 32 333.54 M885.37 333.54 C666.45 333.54, 447.53 333.54, 32 333.54 M32 333.54 C10.67 333.54, 0 322.87, 0 301.54 M32 333.54 C10.67 333.54, 0 322.87, 0 301.54 M0 301.54 C0 216.31, 0 131.08, 0 32 M0 301.54 C0 228.45, 0 155.35, 0 32 M0 32 C0 10.67, 10.67 0, 32 0 M0 32 C0 10.67, 10.67 0, 32 0" stroke="var(--diagram-teal-border)" stroke-width="4" fill="none"></path></g><g transform="translate(1256.2899355317386 176.09207651059864) rotate(0 159.94166564941406 22.5)"><text x="159.94166564941406" y="31.716" font-family="Excalifont, Xiaolai, sans-serif, Segoe UI Emoji" font-size="36px" fill="var(--diagram-teal)" text-anchor="middle" style="white-space: pre;" direction="ltr" dominant-baseline="alphabetic">Resumed Workflow</text></g><g stroke-linecap="round" transform="translate(10 162.89618271122458) rotate(0 428.2161670443086 139.38221985935422)"><path d="M32 0 C336.02 0, 640.03 0, 824.43 0 M32 0 C344.08 0, 656.16 0, 824.43 0 M824.43 0 C845.77 0, 856.43 10.67, 856.43 32 M824.43 0 C845.77 0, 856.43 10.67, 856.43 32 M856.43 32 C856.43 111.45, 856.43 190.9, 856.43 246.76 M856.43 32 C856.43 108.35, 856.43 184.69, 856.43 246.76 M856.43 246.76 C856.43 268.1, 845.77 278.76, 824.43 278.76 M856.43 246.76 C856.43 268.1, 845.77 278.76, 824.43 278.76 M824.43 278.76 C592.88 278.76, 361.33 278.76, 32 278.76 M824.43 278.76 C534.89 278.76, 245.35 278.76, 32 278.76 M32 278.76 C10.67 278.76, 0 268.1, 0 246.76 M32 278.76 C10.67 278.76, 0 268.1, 0 246.76 M0 246.76 C0 201.96, 0 157.16, 0 32 M0 246.76 C0 175.02, 0 103.28, 0 32 M0 32 C0 10.67, 10.67 0, 32 0 M0 32 C0 10.67, 10.67 0, 32 0" stroke="var(--diagram-teal-border)" stroke-width="4" fill="none"></path></g><g transform="translate(1291.925624617396 539.9749191792769) rotate(0 132.0416717529297 22.5)"><text x="132.0416717529297" y="31.716" font-family="Excalifont, Xiaolai, sans-serif, Segoe UI Emoji" font-size="36px" fill="var(--diagram-cyan)" text-anchor="middle" style="white-space: pre;" direction="ltr" dominant-baseline="alphabetic">Resumed Trace</text></g><g stroke-linecap="round" transform="translate(967.9303042657052 528.0428655792847) rotate(0 456.0369919114562 152.26517452392721)"><path d="M32 0 C220.93 0, 409.85 0, 880.07 0 M32 0 C343.34 0, 654.68 0, 880.07 0 M880.07 0 C901.41 0, 912.07 10.67, 912.07 32 M880.07 0 C901.41 0, 912.07 10.67, 912.07 32 M912.07 32 C912.07 107.64, 912.07 183.28, 912.07 272.53 M912.07 32 C912.07 119.85, 912.07 207.7, 912.07 272.53 M912.07 272.53 C912.07 293.86, 901.41 304.53, 880.07 304.53 M912.07 272.53 C912.07 293.86, 901.41 304.53, 880.07 304.53 M880.07 304.53 C589.77 304.53, 299.48 304.53, 32 304.53 M880.07 304.53 C676.6 304.53, 473.13 304.53, 32 304.53 M32 304.53 C10.67 304.53, 0 293.86, 0 272.53 M32 304.53 C10.67 304.53, 0 293.86, 0 272.53 M0 272.53 C0 205.35, 0 138.17, 0 32 M0 272.53 C0 188.49, 0 104.45, 0 32 M0 32 C0 10.67, 10.67 0, 32 0 M0 32 C0 10.67, 10.67 0, 32 0" stroke="var(--diagram-cyan-border)" stroke-width="4" fill="none"></path></g><g stroke-linecap="round"><g transform="translate(873.4323340886172 302.2931326384571) rotate(0 45.49504193599182 -0.08544213309744464)"><path d="M0 0 C20.09 -0.04, 40.19 -0.08, 90.99 -0.17 M0 0 C31.73 -0.06, 63.47 -0.12, 90.99 -0.17" stroke="var(--diagram-teal-border)" stroke-width="4" fill="none"></path></g><g transform="translate(873.4323340886172 302.2931326384571) rotate(0 45.49504193599182 -0.08544213309744464)"><path d="M90.99 -0.17 L77.41 6.19 L77.38 -6.48 L90.99 -0.17" stroke="none" stroke-width="0" fill="var(--diagram-bone)" fill-rule="evenodd"></path><path d="M90.99 -0.17 C87.99 1.23, 84.99 2.64, 77.41 6.19 M90.99 -0.17 C86.25 2.05, 81.52 4.27, 77.41 6.19 M77.41 6.19 C77.4 1.84, 77.39 -2.52, 77.38 -6.48 M77.41 6.19 C77.4 2.22, 77.39 -1.75, 77.38 -6.48 M77.38 -6.48 C80.44 -5.07, 83.5 -3.65, 90.99 -0.17 M77.38 -6.48 C80.86 -4.87, 84.34 -3.26, 90.99 -0.17 M90.99 -0.17 C90.99 -0.17, 90.99 -0.17, 90.99 -0.17 M90.99 -0.17 C90.99 -0.17, 90.99 -0.17, 90.99 -0.17" stroke="var(--diagram-teal-border)" stroke-width="4" fill="none"></path></g></g><mask></mask></svg>
