<?xml version="1.0" encoding="UTF-8"?>
<svg class="diagram" version="1.1" xmlns="http://www.w3.org/2000/svg" viewBox="0 0 1065.5827501716085 413.065427974367"  ><defs>
<linearGradient id="grad-orange" x1="0%" y1="0%" x2="100%" y2="100%">
    <stop offset="0%" stop-color="rgba(255, 109, 31, 0.28)" />
    <stop offset="100%" stop-color="rgba(255, 109, 31, 0.08)" />
  </linearGradient>
  <linearGradient id="grad-yellow" x1="0%" y1="0%" x2="100%" y2="100%">
    <stop offset="0%" stop-color="rgba(255, 212, 59, 0.28)" />
    <stop offset="100%" stop-color="rgba(255, 212, 59, 0.08)" />
  </linearGradient>
  <linearGradient id="grad-teal" x1="0%" y1="0%" x2="100%" y2="100%">
    <stop offset="0%" stop-color="rgba(0, 189, 173, 0.28)" />
    <stop offset="100%" stop-color="rgba(0, 189, 173, 0.08)" />
  </linearGradient>
  <linearGradient id="grad-cyan" x1="0%" y1="0%" x2="100%" y2="100%">
    <stop offset="0%" stop-color="rgba(34, 211, 238, 0.25)" />
    <stop offset="100%" stop-color="rgba(34, 211, 238, 0.06)" />
  </linearGradient>
  <linearGradient id="grad-magenta" x1="0%" y1="0%" x2="100%" y2="100%">
    <stop offset="0%" stop-color="rgba(214, 0, 111, 0.25)" />
    <stop offset="100%" stop-color="rgba(214, 0, 111, 0.06)" />
  </linearGradient>
  <linearGradient id="grad-success" x1="0%" y1="0%" x2="100%" y2="100%">
    <stop offset="0%" stop-color="rgba(34, 197, 94, 0.25)" />
    <stop offset="100%" stop-color="rgba(34, 197, 94, 0.06)" />
  </linearGradient>
  <linearGradient id="grad-error" x1="0%" y1="0%" x2="100%" y2="100%">
    <stop offset="0%" stop-color="rgba(239, 68, 68, 0.25)" />
    <stop offset="100%" stop-color="rgba(239, 68, 68, 0.06)" />
  </linearGradient>
<style>
  .diagram {
  --diagram-arrow:        rgba(245, 244, 242, 0.18);
  --diagram-ink:          #f5f4f2;
  --diagram-edge:         rgba(245, 244, 242, 0.55);
  --diagram-teal:         #00bdad;
  --diagram-teal-border:  #5eead4;
  --diagram-cyan:         #22d3ee;
  --diagram-cyan-border:  #a5f3fc;
  --diagram-magenta:      #d6006f;
  --diagram-magenta-border: #f06292;
  --diagram-orange:       #ff6d1f;
  --diagram-orange-border: #ff9e5e;
  --diagram-yellow:       #ffd43b;
  --diagram-yellow-border: #ffe066;
  --diagram-success:      #22c55e;
  --diagram-success-border: #86efac;
  --diagram-error:        #ef4444;
  --diagram-error-border: #fca5a5;
  --diagram-surface:      rgba(255, 255, 255, 0.12);
  --diagram-bone:         #f5f4f2;

  }
</style>
<symbol id="image-a7cb0b8c7806d63cc682f5885d9ed2195b43f138e636f4c7a49b742e4e0789fd8cbef075c5fb8e05acc17d5dca07d576" viewBox="0 0 256 256">
<path fill="var(--diagram-teal)" d="M80,64a8,8,0,0,1,8-8H216a8,8,0,0,1,0,16H88A8,8,0,0,1,80,64Zm136,56H88a8,8,0,0,0,0,16H216a8,8,0,0,0,0-16Zm0,64H88a8,8,0,0,0,0,16H216a8,8,0,0,0,0-16ZM44,52A12,12,0,1,0,56,64,12,12,0,0,0,44,52Zm0,64a12,12,0,1,0,12,12A12,12,0,0,0,44,116Zm0,64a12,12,0,1,0,12,12A12,12,0,0,0,44,180Z"/>
</symbol><symbol id="image-ff80a12788a01e639fee6fc8bb60f96294875b4292de98ff26d7e4abf37cd55849da5fcfee0b896537d7f1bc3e4f9a5e" viewBox="0 0 256 256">
<path fill="#f59e0b" d="M80,64a8,8,0,0,1,8-8H216a8,8,0,0,1,0,16H88A8,8,0,0,1,80,64Zm136,56H88a8,8,0,0,0,0,16H216a8,8,0,0,0,0-16Zm0,64H88a8,8,0,0,0,0,16H216a8,8,0,0,0,0-16ZM44,52A12,12,0,1,0,56,64,12,12,0,0,0,44,52Zm0,64a12,12,0,1,0,12,12A12,12,0,0,0,44,116Zm0,64a12,12,0,1,0,12,12A12,12,0,0,0,44,180Z"/>
</symbol><symbol id="image-19e7d6d8e8bcae12e3fc9099c2eff40bb35353189d3db9880a8d36cb03c14493d5f2506fa54526fff50b057560a83db4" viewBox="0 0 256 256">
<path fill="#f59e0b" d="M229.66,218.34l-50.07-50.06a88.11,88.11,0,1,0-11.31,11.31l50.06,50.07a8,8,0,0,0,11.32-11.32ZM40,112a72,72,0,1,1,72,72A72.08,72.08,0,0,1,40,112Z"/>
</symbol><symbol id="image-2c948f9849d1df4e55b9d8870a0f2269fe73c26fc573c2a2c2646b15c3e0f9af5b6054fe4abe65b66adce51cf53b75b1" viewBox="0 0 256 256">
<path fill="var(--diagram-teal)" d="M229.66,218.34l-50.07-50.06a88.11,88.11,0,1,0-11.31,11.31l50.06,50.07a8,8,0,0,0,11.32-11.32ZM40,112a72,72,0,1,1,72,72A72.08,72.08,0,0,1,40,112Z"/>
</symbol><symbol id="image-6338738e0bcf5e62e2559fd74b4d278c30036bf5de5da303ad8d915613d25fe2d3669fb1b28d2f4459c5a0cb52998b1e" viewBox="0 0 256 256">
<path fill="var(--diagram-yellow)" d="M128,24A104,104,0,1,0,232,128,104.11,104.11,0,0,0,128,24Zm0,192a88,88,0,1,1,88-88A88.1,88.1,0,0,1,128,216Zm12-88a12,12,0,1,1-12-12A12,12,0,0,1,140,128Zm44,0a12,12,0,1,1-12-12A12,12,0,0,1,184,128Zm-88,0a12,12,0,1,1-12-12A12,12,0,0,1,96,128Z"/>
</symbol></defs><g stroke-linecap="round"><g transform="translate(138.93043299931742 303.38229936026767) rotate(0 37.00000000000023 0.847139089238965)"><path d="M0 0 C24.21 0.55, 48.43 1.11, 74 1.69" stroke="var(--diagram-teal-border)" stroke-width="4.5" fill="none" stroke-dasharray="8 12"></path></g><g transform="translate(138.93043299931742 303.38229936026767) rotate(0 37.00000000000023 0.847139089238965)"><path d="M74 1.69 L60.26 7.72 L60.55 -4.95 L74 1.69" stroke="none" stroke-width="0" fill="var(--diagram-bone)" fill-rule="evenodd"></path><path d="M74 1.69 C69.51 3.67, 65.01 5.64, 60.26 7.72 M60.26 7.72 C60.33 4.62, 60.41 1.51, 60.55 -4.95 M60.55 -4.95 C65.49 -2.51, 70.43 -0.07, 74 1.69 M74 1.69 C74 1.69, 74 1.69, 74 1.69" stroke="var(--diagram-teal-border)" stroke-width="4.5" fill="none"></path></g></g><mask></mask><g stroke-linecap="round" transform="translate(557.941301575403 71.5852765218848) rotate(0 100.13905818996591 54.947436972606226)"><path d="M27.47 0 C83.65 0, 139.83 0, 172.8 0 C191.12 0, 200.28 9.16, 200.28 27.47 C200.28 39.79, 200.28 52.1, 200.28 82.42 C200.28 100.74, 191.12 109.89, 172.8 109.89 C132.38 109.89, 91.95 109.89, 27.47 109.89 C9.16 109.89, 0 100.74, 0 82.42 C0 61.1, 0 39.78, 0 27.47 C0 9.16, 9.16 0, 27.47 0" stroke="none" stroke-width="0" fill="url(#grad-yellow)"></path><path d="M27.47 0 C66.98 0, 106.48 0, 172.8 0 M27.47 0 C79.14 0, 130.81 0, 172.8 0 M172.8 0 C191.12 0, 200.28 9.16, 200.28 27.47 M172.8 0 C191.12 0, 200.28 9.16, 200.28 27.47 M200.28 27.47 C200.28 39.27, 200.28 51.07, 200.28 82.42 M200.28 27.47 C200.28 42.61, 200.28 57.74, 200.28 82.42 M200.28 82.42 C200.28 100.74, 191.12 109.89, 172.8 109.89 M200.28 82.42 C200.28 100.74, 191.12 109.89, 172.8 109.89 M172.8 109.89 C127.34 109.89, 81.87 109.89, 27.47 109.89 M172.8 109.89 C135.11 109.89, 97.42 109.89, 27.47 109.89 M27.47 109.89 C9.16 109.89, 0 100.74, 0 82.42 M27.47 109.89 C9.16 109.89, 0 100.74, 0 82.42 M0 82.42 C0 63.86, 0 45.3, 0 27.47 M0 82.42 C0 61.5, 0 40.57, 0 27.47 M0 27.47 C0 9.16, 9.16 0, 27.47 0 M0 27.47 C0 9.16, 9.16 0, 27.47 0" stroke="var(--diagram-yellow-border)" stroke-width="4" fill="none"></path></g><g transform="translate(606.8303597653689 109.03271349449096) rotate(0 51.25 17.5)"><text x="51.25" y="24.668" font-family="Excalifont, Xiaolai, sans-serif, Segoe UI Emoji" font-size="28px" fill="var(--diagram-yellow)" text-anchor="middle" style="white-space: pre;" direction="ltr" dominant-baseline="alphabetic">Pending</text></g><g transform="translate(718.9304329993174 71.5852765218848) rotate(0 20 20.000000000000114)"><use href="#image-6338738e0bcf5e62e2559fd74b4d278c30036bf5de5da303ad8d915613d25fe2d3669fb1b28d2f4459c5a0cb52998b1e" width="40" height="40" opacity="1"></use></g><g stroke-linecap="round"><g transform="translate(238.93043299931742 131.5852765218848) rotate(0 33.86094181003409 0.686025776169572)"><path d="M0 0 C22.88 0.46, 45.75 0.93, 67.72 1.37 M0 0 C25.79 0.52, 51.58 1.04, 67.72 1.37" stroke="var(--diagram-edge)" stroke-width="4" fill="none"></path></g><g transform="translate(238.93043299931742 131.5852765218848) rotate(0 33.86094181003409 0.686025776169572)"><path d="M67.72 1.37 L54 7.43 L54.26 -5.24 L67.72 1.37" stroke="none" stroke-width="0" fill="#1e1e1e" fill-rule="evenodd"></path><path d="M67.72 1.37 C63.09 3.42, 58.45 5.47, 54 7.43 M67.72 1.37 C62.5 3.68, 57.27 5.99, 54 7.43 M54 7.43 C54.09 2.96, 54.18 -1.52, 54.26 -5.24 M54 7.43 C54.07 3.93, 54.14 0.43, 54.26 -5.24 M54.26 -5.24 C58.55 -3.13, 62.85 -1.02, 67.72 1.37 M54.26 -5.24 C57.3 -3.75, 60.34 -2.26, 67.72 1.37 M67.72 1.37 C67.72 1.37, 67.72 1.37, 67.72 1.37 M67.72 1.37 C67.72 1.37, 67.72 1.37, 67.72 1.37" stroke="var(--diagram-edge)" stroke-width="4" fill="none"></path></g></g><mask></mask><g stroke-linecap="round"><g transform="translate(498.9304329993174 131.5852765218848) rotate(0 33.86094181003409 0.686025776169572)"><path d="M0 0 C14.15 0.29, 28.3 0.57, 67.72 1.37 M0 0 C16.67 0.34, 33.34 0.68, 67.72 1.37" stroke="var(--diagram-edge)" stroke-width="4" fill="none"></path></g><g transform="translate(498.9304329993174 131.5852765218848) rotate(0 33.86094181003409 0.686025776169572)"><path d="M67.72 1.37 L54 7.43 L54.26 -5.24 L67.72 1.37" stroke="none" stroke-width="0" fill="#1e1e1e" fill-rule="evenodd"></path><path d="M67.72 1.37 C64.86 2.64, 61.99 3.91, 54 7.43 M67.72 1.37 C64.34 2.86, 60.97 4.36, 54 7.43 M54 7.43 C54.06 4.78, 54.11 2.13, 54.26 -5.24 M54 7.43 C54.08 3.61, 54.16 -0.21, 54.26 -5.24 M54.26 -5.24 C58.55 -3.13, 62.84 -1.03, 67.72 1.37 M54.26 -5.24 C58.01 -3.4, 61.76 -1.56, 67.72 1.37 M67.72 1.37 C67.72 1.37, 67.72 1.37, 67.72 1.37 M67.72 1.37 C67.72 1.37, 67.72 1.37, 67.72 1.37" stroke="var(--diagram-edge)" stroke-width="4" fill="none"></path></g></g><mask></mask><g stroke-linecap="round"><g transform="translate(138.93043299931742 191.5852765218848) rotate(0 0 55.440222831527194)"><path d="M0 0 C0 18.48, 0 92.4, 0 110.88" stroke="var(--diagram-teal-border)" stroke-width="4.5" fill="none" stroke-dasharray="8 12"></path></g></g><mask></mask><g stroke-linecap="round" transform="translate(10.913851814268128 12.471146012110012) rotate(359.72845805431535 521.8775232715361 194.0615679750735)"><path d="M32 0 C416.47 0, 800.93 0, 1011.76 0 M1011.76 0 C1033.09 0, 1043.76 10.67, 1043.76 32 M1043.76 32 C1043.76 114.21, 1043.76 196.42, 1043.76 356.12 M1043.76 356.12 C1043.76 377.46, 1033.09 388.12, 1011.76 388.12 M1011.76 388.12 C783.89 388.12, 556.02 388.12, 32 388.12 M32 388.12 C10.67 388.12, 0 377.46, 0 356.12 M0 356.12 C0 257.55, 0 158.98, 0 32 M0 32 C0 10.67, 10.67 0, 32 0" stroke="transparent" stroke-width="4.5" fill="none" stroke-dasharray="8 12"></path></g><g stroke-linecap="round"><g transform="translate(399.19806715056666 188.48015046709725) rotate(0 0.48189129570801015 33.31237402739373)"><path d="M0 0 C0.35 24.33, 0.7 48.65, 0.96 66.62" stroke="var(--diagram-teal-border)" stroke-width="4.5" fill="none" stroke-dasharray="8 12"></path></g><g transform="translate(399.19806715056666 188.48015046709725) rotate(0 0.48189129570801015 33.31237402739373)"><path d="M0.96 66.62 L-5.57 53.12 L7.11 52.94 L0.96 66.62" stroke="none" stroke-width="0" fill="var(--diagram-bone)" fill-rule="evenodd"></path><path d="M0.96 66.62 C-1.42 61.69, -3.81 56.77, -5.57 53.12 M-5.57 53.12 C-1.27 53.06, 3.02 53, 7.11 52.94 M7.11 52.94 C5.05 57.53, 2.99 62.11, 0.96 66.62 M0.96 66.62 C0.96 66.62, 0.96 66.62, 0.96 66.62" stroke="var(--diagram-teal-border)" stroke-width="4.5" fill="none"></path></g></g><mask></mask><g stroke-linecap="round" transform="translate(38.69359667521803 72.72192342156052) rotate(0 98.06757314782908 53.8107896358938)"><path d="M26.91 0 C74.56 0, 122.21 0, 169.23 0 C187.17 0, 196.14 8.97, 196.14 26.91 C196.14 45.59, 196.14 64.28, 196.14 80.72 C196.14 98.65, 187.17 107.62, 169.23 107.62 C133.85 107.62, 98.46 107.62, 26.91 107.62 C8.97 107.62, 0 98.65, 0 80.72 C0 62.14, 0 43.56, 0 26.91 C0 8.97, 8.97 0, 26.91 0" stroke="none" stroke-width="0" fill="url(#grad-teal)"></path><path d="M26.91 0 C58.07 0, 89.23 0, 169.23 0 M26.91 0 C77.23 0, 127.55 0, 169.23 0 M169.23 0 C187.17 0, 196.14 8.97, 196.14 26.91 M169.23 0 C187.17 0, 196.14 8.97, 196.14 26.91 M196.14 26.91 C196.14 39.18, 196.14 51.45, 196.14 80.72 M196.14 26.91 C196.14 40.96, 196.14 55.02, 196.14 80.72 M196.14 80.72 C196.14 98.65, 187.17 107.62, 169.23 107.62 M196.14 80.72 C196.14 98.65, 187.17 107.62, 169.23 107.62 M169.23 107.62 C125.98 107.62, 82.74 107.62, 26.91 107.62 M169.23 107.62 C136.86 107.62, 104.5 107.62, 26.91 107.62 M26.91 107.62 C8.97 107.62, 0 98.65, 0 80.72 M26.91 107.62 C8.97 107.62, 0 98.65, 0 80.72 M0 80.72 C0 64.88, 0 49.05, 0 26.91 M0 80.72 C0 62.67, 0 44.62, 0 26.91 M0 26.91 C0 8.97, 8.97 0, 26.91 0 M0 26.91 C0 8.97, 8.97 0, 26.91 0" stroke="var(--diagram-teal-border)" stroke-width="4" fill="none"></path></g><g transform="translate(106.90645993612725 98.36525068765343) rotate(0 29.438191533492954 29.43819153349301)"><use href="#image-2c948f9849d1df4e55b9d8870a0f2269fe73c26fc573c2a2c2646b15c3e0f9af5b6054fe4abe65b66adce51cf53b75b1" width="59" height="59" opacity="1"></use></g><g transform="translate(160.5349453118929 78.68734699929416) rotate(0 33.16089691981779 12.87920879590314)"><text x="0" y="18.15453271870503" font-family="Excalifont, Xiaolai, sans-serif, Segoe UI Emoji" font-size="20.606734073444983px" fill="var(--diagram-teal)" text-anchor="start" style="white-space: pre;" direction="ltr" dominant-baseline="alphabetic">Search</text></g><g stroke-linecap="round" transform="translate(306.6523171733302 72.72192394880858) rotate(0 98.06757314782908 53.810789635893855)"><path d="M26.91 0 C69.9 0, 112.89 0, 169.23 0 C187.17 0, 196.14 8.97, 196.14 26.91 C196.14 37.95, 196.14 48.99, 196.14 80.72 C196.14 98.65, 187.17 107.62, 169.23 107.62 C132.19 107.62, 95.15 107.62, 26.91 107.62 C8.97 107.62, 0 98.65, 0 80.72 C0 59.91, 0 39.1, 0 26.91 C0 8.97, 8.97 0, 26.91 0" stroke="none" stroke-width="0" fill="url(#grad-teal)"></path><path d="M26.91 0 C70.49 0, 114.08 0, 169.23 0 M26.91 0 C69.04 0, 111.17 0, 169.23 0 M169.23 0 C187.17 0, 196.14 8.97, 196.14 26.91 M169.23 0 C187.17 0, 196.14 8.97, 196.14 26.91 M196.14 26.91 C196.14 40.13, 196.14 53.35, 196.14 80.72 M196.14 26.91 C196.14 39.54, 196.14 52.18, 196.14 80.72 M196.14 80.72 C196.14 98.65, 187.17 107.62, 169.23 107.62 M196.14 80.72 C196.14 98.65, 187.17 107.62, 169.23 107.62 M169.23 107.62 C121.32 107.62, 73.42 107.62, 26.91 107.62 M169.23 107.62 C127.78 107.62, 86.33 107.62, 26.91 107.62 M26.91 107.62 C8.97 107.62, 0 98.65, 0 80.72 M26.91 107.62 C8.97 107.62, 0 98.65, 0 80.72 M0 80.72 C0 59.76, 0 38.81, 0 26.91 M0 80.72 C0 59.95, 0 39.18, 0 26.91 M0 26.91 C0 8.97, 8.97 0, 26.91 0 M0 26.91 C0 8.97, 8.97 0, 26.91 0" stroke="var(--diagram-teal-border)" stroke-width="4" fill="none"></path></g><g stroke-linecap="round" transform="translate(214.92914579729768 262.1048985218848) rotate(0 273.5581080403954 52.834300605490455)"><path d="M26.42 0 C142.1 0, 257.79 0, 520.7 0 C538.31 0, 547.12 8.81, 547.12 26.42 C547.12 43.71, 547.12 61.01, 547.12 79.25 C547.12 96.86, 538.31 105.67, 520.7 105.67 C369.72 105.67, 218.75 105.67, 26.42 105.67 C8.81 105.67, 0 96.86, 0 79.25 C0 60.05, 0 40.85, 0 26.42 C0 8.81, 8.81 0, 26.42 0" stroke="none" stroke-width="0" fill="url(#grad-orange)"></path><path d="M26.42 0 C130.83 0, 235.24 0, 520.7 0 M26.42 0 C176.34 0, 326.27 0, 520.7 0 M520.7 0 C538.31 0, 547.12 8.81, 547.12 26.42 M520.7 0 C538.31 0, 547.12 8.81, 547.12 26.42 M547.12 26.42 C547.12 43.25, 547.12 60.09, 547.12 79.25 M547.12 26.42 C547.12 40.81, 547.12 55.21, 547.12 79.25 M547.12 79.25 C547.12 96.86, 538.31 105.67, 520.7 105.67 M547.12 79.25 C547.12 96.86, 538.31 105.67, 520.7 105.67 M520.7 105.67 C374.92 105.67, 229.14 105.67, 26.42 105.67 M520.7 105.67 C391.98 105.67, 263.27 105.67, 26.42 105.67 M26.42 105.67 C8.81 105.67, 0 96.86, 0 79.25 M26.42 105.67 C8.81 105.67, 0 96.86, 0 79.25 M0 79.25 C0 60.06, 0 40.87, 0 26.42 M0 79.25 C0 59.42, 0 39.59, 0 26.42 M0 26.42 C0 8.81, 8.81 0, 26.42 0 M0 26.42 C0 8.81, 8.81 0, 26.42 0" stroke="#f59e0b" stroke-width="4" fill="none"></path></g><g transform="translate(285.29692065973177 324.04474111430227) rotate(0 213.21980120039984 17.383626189425)"><text x="213.2198012003998" y="24.337076665194978" font-family="Comic Shanns, monospace, Segoe UI Emoji" font-size="27.813801903079973px" fill="#f59e0b" text-anchor="middle" style="white-space: pre;" direction="ltr" dominant-baseline="alphabetic">Completed steps checkpointed</text></g><g transform="translate(284.6988407008257 273.7326986112354) rotate(0 25.173531154988495 25.17353115498844)"><use href="#image-19e7d6d8e8bcae12e3fc9099c2eff40bb35353189d3db9880a8d36cb03c14493d5f2506fa54526fff50b057560a83db4" width="50" height="50" opacity="1"></use></g><g transform="translate(360.21943416579006 273.7326986112354) rotate(0 25.173531154988495 25.173531154988382)"><use href="#image-ff80a12788a01e639fee6fc8bb60f96294875b4292de98ff26d7e4abf37cd55849da5fcfee0b896537d7f1bc3e4f9a5e" width="50" height="50" opacity="1"></use></g><g transform="translate(374.14096697081686 98.36525068765343) rotate(0 30.578922693273853 30.57892269327374)"><use href="#image-a7cb0b8c7806d63cc682f5885d9ed2195b43f138e636f4c7a49b742e4e0789fd8cbef075c5fb8e05acc17d5dca07d576" width="61" height="61" opacity="1"></use></g><g transform="translate(392.3055810985684 78.68734658558344) rotate(0 50.051057066203384 12.87920879590314)"><text x="0" y="18.15453271870503" font-family="Excalifont, Xiaolai, sans-serif, Segoe UI Emoji" font-size="20.606734073444983px" fill="var(--diagram-teal)" text-anchor="start" style="white-space: pre;" direction="ltr" dominant-baseline="alphabetic">Summarize</text></g></svg>
