<?xml version="1.0" encoding="UTF-8"?>
<svg class="diagram" version="1.1" xmlns="http://www.w3.org/2000/svg" viewBox="0 0 1065.5827501716085 413.065427974367"  ><defs>
<linearGradient id="grad-orange" x1="0%" y1="0%" x2="100%" y2="100%">
    <stop offset="0%" stop-color="rgba(255, 109, 31, 0.28)" />
    <stop offset="100%" stop-color="rgba(255, 109, 31, 0.08)" />
  </linearGradient>
  <linearGradient id="grad-yellow" x1="0%" y1="0%" x2="100%" y2="100%">
    <stop offset="0%" stop-color="rgba(255, 212, 59, 0.28)" />
    <stop offset="100%" stop-color="rgba(255, 212, 59, 0.08)" />
  </linearGradient>
  <linearGradient id="grad-teal" x1="0%" y1="0%" x2="100%" y2="100%">
    <stop offset="0%" stop-color="rgba(0, 189, 173, 0.28)" />
    <stop offset="100%" stop-color="rgba(0, 189, 173, 0.08)" />
  </linearGradient>
  <linearGradient id="grad-cyan" x1="0%" y1="0%" x2="100%" y2="100%">
    <stop offset="0%" stop-color="rgba(34, 211, 238, 0.25)" />
    <stop offset="100%" stop-color="rgba(34, 211, 238, 0.06)" />
  </linearGradient>
  <linearGradient id="grad-magenta" x1="0%" y1="0%" x2="100%" y2="100%">
    <stop offset="0%" stop-color="rgba(214, 0, 111, 0.25)" />
    <stop offset="100%" stop-color="rgba(214, 0, 111, 0.06)" />
  </linearGradient>
  <linearGradient id="grad-success" x1="0%" y1="0%" x2="100%" y2="100%">
    <stop offset="0%" stop-color="rgba(34, 197, 94, 0.25)" />
    <stop offset="100%" stop-color="rgba(34, 197, 94, 0.06)" />
  </linearGradient>
  <linearGradient id="grad-error" x1="0%" y1="0%" x2="100%" y2="100%">
    <stop offset="0%" stop-color="rgba(239, 68, 68, 0.25)" />
    <stop offset="100%" stop-color="rgba(239, 68, 68, 0.06)" />
  </linearGradient>
<style>
  .diagram {
  --diagram-arrow:        rgba(245, 244, 242, 0.18);
  --diagram-ink:          #f5f4f2;
  --diagram-edge:         rgba(245, 244, 242, 0.55);
  --diagram-teal:         #00bdad;
  --diagram-teal-border:  #5eead4;
  --diagram-cyan:         #22d3ee;
  --diagram-cyan-border:  #a5f3fc;
  --diagram-magenta:      #d6006f;
  --diagram-magenta-border: #f06292;
  --diagram-orange:       #ff6d1f;
  --diagram-orange-border: #ff9e5e;
  --diagram-yellow:       #ffd43b;
  --diagram-yellow-border: #ffe066;
  --diagram-success:      #22c55e;
  --diagram-success-border: #86efac;
  --diagram-error:        #ef4444;
  --diagram-error-border: #fca5a5;
  --diagram-surface:      rgba(255, 255, 255, 0.12);
  --diagram-bone:         #f5f4f2;

  }
</style>
<symbol id="image-6338738e0bcf5e62e2559fd74b4d278c30036bf5de5da303ad8d915613d25fe2d3669fb1b28d2f4459c5a0cb52998b1e" viewBox="0 0 256 256">
<path fill="var(--diagram-yellow)" d="M128,24A104,104,0,1,0,232,128,104.11,104.11,0,0,0,128,24Zm0,192a88,88,0,1,1,88-88A88.1,88.1,0,0,1,128,216Zm12-88a12,12,0,1,1-12-12A12,12,0,0,1,140,128Zm44,0a12,12,0,1,1-12-12A12,12,0,0,1,184,128Zm-88,0a12,12,0,1,1-12-12A12,12,0,0,1,96,128Z"/>
</symbol><symbol id="image-705e603ac9a5d65b1c488e04a24cf17a16b16a63e8eb2d3fc7b426e490cb93a8955b871f1dafd06dfdce8bead77388eb" viewBox="0 0 256 256">
<path fill="var(--diagram-teal)" d="M173.66,98.34a8,8,0,0,1,0,11.32l-56,56a8,8,0,0,1-11.32,0l-24-24a8,8,0,0,1,11.32-11.32L112,148.69l50.34-50.35A8,8,0,0,1,173.66,98.34ZM232,128A104,104,0,1,1,128,24,104.11,104.11,0,0,1,232,128Zm-16,0a88,88,0,1,0-88,88A88.1,88.1,0,0,0,216,128Z"/>
</symbol><symbol id="image-02a0fe2fe71ce7c3fef4f54a386fcf1b27ef41efd8440dd8adc8244f20dd277d26852f475300be1f5e75d82af6cd79f6" viewBox="0 0 256 256">
<path fill="var(--diagram-cyan)" d="M128,24C74.17,24,32,48.6,32,80v96c0,31.4,42.17,56,96,56s96-24.6,96-56V80C224,48.6,181.83,24,128,24Zm80,104c0,9.62-7.88,19.43-21.61,26.92C170.93,163.35,150.19,168,128,168s-42.93-4.65-58.39-13.08C55.88,147.43,48,137.62,48,128V111.36c17.06,15,46.23,24.64,80,24.64s62.94-9.68,80-24.64ZM69.61,53.08C85.07,44.65,105.81,40,128,40s42.93,4.65,58.39,13.08C200.12,60.57,208,70.38,208,80s-7.88,19.43-21.61,26.92C170.93,115.35,150.19,120,128,120s-42.93-4.65-58.39-13.08C55.88,99.43,48,89.62,48,80S55.88,60.57,69.61,53.08ZM186.39,202.92C170.93,211.35,150.19,216,128,216s-42.93-4.65-58.39-13.08C55.88,195.43,48,185.62,48,176V159.36c17.06,15,46.23,24.64,80,24.64s62.94-9.68,80-24.64V176C208,185.62,200.12,195.43,186.39,202.92Z"/>
</symbol></defs><g stroke-linecap="round" transform="translate(218.93043299931742 251.5852765218848) rotate(0 210.4945657119572 53.95652569565618)"><path d="M26.98 0 C169.79 0, 312.61 0, 394.01 0 C412 0, 420.99 8.99, 420.99 26.98 C420.99 43.79, 420.99 60.6, 420.99 80.93 C420.99 98.92, 412 107.91, 394.01 107.91 C311.57 107.91, 229.12 107.91, 26.98 107.91 C8.99 107.91, 0 98.92, 0 80.93 C0 63.77, 0 46.61, 0 26.98 C0 8.99, 8.99 0, 26.98 0" stroke="none" stroke-width="0" fill="url(#grad-cyan)"></path><path d="M26.98 0 C157.91 0, 288.84 0, 394.01 0 M26.98 0 C137.16 0, 247.35 0, 394.01 0 M394.01 0 C412 0, 420.99 8.99, 420.99 26.98 M394.01 0 C412 0, 420.99 8.99, 420.99 26.98 M420.99 26.98 C420.99 44.06, 420.99 61.14, 420.99 80.93 M420.99 26.98 C420.99 38.92, 420.99 50.87, 420.99 80.93 M420.99 80.93 C420.99 98.92, 412 107.91, 394.01 107.91 M420.99 80.93 C420.99 98.92, 412 107.91, 394.01 107.91 M394.01 107.91 C318.82 107.91, 243.63 107.91, 26.98 107.91 M394.01 107.91 C258.13 107.91, 122.26 107.91, 26.98 107.91 M26.98 107.91 C8.99 107.91, 0 98.92, 0 80.93 M26.98 107.91 C8.99 107.91, 0 98.92, 0 80.93 M0 80.93 C0 66.93, 0 52.92, 0 26.98 M0 80.93 C0 67.77, 0 54.61, 0 26.98 M0 26.98 C0 8.99, 8.99 0, 26.98 0 M0 26.98 C0 8.99, 8.99 0, 26.98 0" stroke="var(--diagram-cyan-border)" stroke-width="4" fill="none"></path></g><g transform="translate(218.93043299931742 271.5852765218848) rotate(0 48 33.62195053311723)"><use href="#image-02a0fe2fe71ce7c3fef4f54a386fcf1b27ef41efd8440dd8adc8244f20dd277d26852f475300be1f5e75d82af6cd79f6" width="96" height="67" opacity="1"></use></g><g stroke-linecap="round"><g transform="translate(138.93043299931742 303.38229936026767) rotate(0 37.00000000000023 0.847139089238965)"><path d="M0 0 C24.21 0.55, 48.43 1.11, 74 1.69" stroke="var(--diagram-cyan-border)" stroke-width="4.5" fill="none" stroke-dasharray="8 12"></path></g><g transform="translate(138.93043299931742 303.38229936026767) rotate(0 37.00000000000023 0.847139089238965)"><path d="M74 1.69 L60.26 7.72 L60.55 -4.95 L74 1.69" stroke="none" stroke-width="0" fill="var(--diagram-bone)" fill-rule="evenodd"></path><path d="M74 1.69 C69.51 3.67, 65.01 5.64, 60.26 7.72 M60.26 7.72 C60.33 4.62, 60.41 1.51, 60.55 -4.95 M60.55 -4.95 C65.49 -2.51, 70.43 -0.07, 74 1.69 M74 1.69 C74 1.69, 74 1.69, 74 1.69" stroke="var(--diagram-cyan-border)" stroke-width="4.5" fill="none"></path></g></g><mask></mask><g stroke-linecap="round"><g transform="translate(399.19806715056666 188.48015046709725) rotate(0 0.43500768705848714 28.052563027393774)"><path d="M0 0 C0.32 20.49, 0.64 40.97, 0.87 56.11" stroke="var(--diagram-cyan-border)" stroke-width="4.5" fill="none" stroke-dasharray="8 12"></path></g><g transform="translate(399.19806715056666 188.48015046709725) rotate(0 0.43500768705848714 28.052563027393774)"><path d="M0.87 56.11 L-5.68 42.61 L7 42.41 L0.87 56.11" stroke="none" stroke-width="0" fill="var(--diagram-bone)" fill-rule="evenodd"></path><path d="M0.87 56.11 C-1.52 51.18, -3.91 46.25, -5.68 42.61 M-5.68 42.61 C-1.38 42.54, 2.92 42.48, 7 42.41 M7 42.41 C4.94 47, 2.89 51.59, 0.87 56.11 M0.87 56.11 C0.87 56.11, 0.87 56.11, 0.87 56.11" stroke="var(--diagram-cyan-border)" stroke-width="4.5" fill="none"></path></g></g><mask></mask><g transform="translate(306.0717244884354 291.5852765218848) rotate(0 150.56666564941406 12.5)"><text x="150.56666564941406" y="17.619999999999997" font-family="Excalifont, Xiaolai, sans-serif, Segoe UI Emoji" font-size="20px" fill="var(--diagram-cyan)" text-anchor="middle" style="white-space: pre;" direction="ltr" dominant-baseline="alphabetic">Completed steps check-pointed</text></g><g stroke-linecap="round" transform="translate(38.93043299931742 71.5852765218848) rotate(0 100.13905818996591 54.947436972606226)"><path d="M27.47 0 C68.59 0, 109.7 0, 172.8 0 C191.12 0, 200.28 9.16, 200.28 27.47 C200.28 40.82, 200.28 54.17, 200.28 82.42 C200.28 100.74, 191.12 109.89, 172.8 109.89 C132.9 109.89, 92.99 109.89, 27.47 109.89 C9.16 109.89, 0 100.74, 0 82.42 C0 60.61, 0 38.81, 0 27.47 C0 9.16, 9.16 0, 27.47 0" stroke="none" stroke-width="0" fill="url(#grad-teal)"></path><path d="M27.47 0 C56.77 0, 86.07 0, 172.8 0 M27.47 0 C70.4 0, 113.32 0, 172.8 0 M172.8 0 C191.12 0, 200.28 9.16, 200.28 27.47 M172.8 0 C191.12 0, 200.28 9.16, 200.28 27.47 M200.28 27.47 C200.28 44.35, 200.28 61.23, 200.28 82.42 M200.28 27.47 C200.28 42.46, 200.28 57.44, 200.28 82.42 M200.28 82.42 C200.28 100.74, 191.12 109.89, 172.8 109.89 M200.28 82.42 C200.28 100.74, 191.12 109.89, 172.8 109.89 M172.8 109.89 C139 109.89, 105.19 109.89, 27.47 109.89 M172.8 109.89 C138.24 109.89, 103.68 109.89, 27.47 109.89 M27.47 109.89 C9.16 109.89, 0 100.74, 0 82.42 M27.47 109.89 C9.16 109.89, 0 100.74, 0 82.42 M0 82.42 C0 60.53, 0 38.63, 0 27.47 M0 82.42 C0 66.65, 0 50.88, 0 27.47 M0 27.47 C0 9.16, 9.16 0, 27.47 0 M0 27.47 C0 9.16, 9.16 0, 27.47 0" stroke="var(--diagram-teal-border)" stroke-width="4" fill="none"></path></g><g transform="translate(96.01115683869739 109.03271349449096) rotate(0 43.05833435058594 17.5)"><text x="43.05833435058594" y="24.668" font-family="Excalifont, Xiaolai, sans-serif, Segoe UI Emoji" font-size="28px" fill="var(--diagram-teal)" text-anchor="middle" style="white-space: pre;" direction="ltr" dominant-baseline="alphabetic">Step 1</text></g><g transform="translate(198.93043299931742 71.5852765218848) rotate(0 20 20)"><use href="#image-705e603ac9a5d65b1c488e04a24cf17a16b16a63e8eb2d3fc7b426e490cb93a8955b871f1dafd06dfdce8bead77388eb" width="40" height="40" opacity="1"></use></g><g stroke-linecap="round" transform="translate(298.9304329993174 71.5852765218848) rotate(0 100.13905818996591 54.947436972606226)"><path d="M27.47 0 C81.57 0, 135.67 0, 172.8 0 C191.12 0, 200.28 9.16, 200.28 27.47 C200.28 41.73, 200.28 55.98, 200.28 82.42 C200.28 100.74, 191.12 109.89, 172.8 109.89 C117.83 109.89, 62.85 109.89, 27.47 109.89 C9.16 109.89, 0 100.74, 0 82.42 C0 61.5, 0 40.57, 0 27.47 C0 9.16, 9.16 0, 27.47 0" stroke="none" stroke-width="0" fill="url(#grad-teal)"></path><path d="M27.47 0 C57.23 0, 86.99 0, 172.8 0 M27.47 0 C68.59 0, 109.7 0, 172.8 0 M172.8 0 C191.12 0, 200.28 9.16, 200.28 27.47 M172.8 0 C191.12 0, 200.28 9.16, 200.28 27.47 M200.28 27.47 C200.28 42.47, 200.28 57.47, 200.28 82.42 M200.28 27.47 C200.28 42.56, 200.28 57.65, 200.28 82.42 M200.28 82.42 C200.28 100.74, 191.12 109.89, 172.8 109.89 M200.28 82.42 C200.28 100.74, 191.12 109.89, 172.8 109.89 M172.8 109.89 C121 109.89, 69.19 109.89, 27.47 109.89 M172.8 109.89 C139.94 109.89, 107.08 109.89, 27.47 109.89 M27.47 109.89 C9.16 109.89, 0 100.74, 0 82.42 M27.47 109.89 C9.16 109.89, 0 100.74, 0 82.42 M0 82.42 C0 67.67, 0 52.92, 0 27.47 M0 82.42 C0 65.56, 0 48.7, 0 27.47 M0 27.47 C0 9.16, 9.16 0, 27.47 0 M0 27.47 C0 9.16, 9.16 0, 27.47 0" stroke="var(--diagram-teal-border)" stroke-width="4" fill="none"></path></g><g transform="translate(352.18615607575794 109.03271349449096) rotate(0 46.88333511352539 17.5)"><text x="46.88333511352539" y="24.668" font-family="Excalifont, Xiaolai, sans-serif, Segoe UI Emoji" font-size="28px" fill="var(--diagram-teal)" text-anchor="middle" style="white-space: pre;" direction="ltr" dominant-baseline="alphabetic">Step 2</text></g><g transform="translate(458.9304329993174 71.5852765218848) rotate(0 20 20)"><use href="#image-705e603ac9a5d65b1c488e04a24cf17a16b16a63e8eb2d3fc7b426e490cb93a8955b871f1dafd06dfdce8bead77388eb" width="40" height="40" opacity="1"></use></g><g stroke-linecap="round" transform="translate(557.941301575403 71.5852765218848) rotate(0 100.13905818996591 54.947436972606226)"><path d="M27.47 0 C83.65 0, 139.83 0, 172.8 0 C191.12 0, 200.28 9.16, 200.28 27.47 C200.28 39.79, 200.28 52.1, 200.28 82.42 C200.28 100.74, 191.12 109.89, 172.8 109.89 C132.38 109.89, 91.95 109.89, 27.47 109.89 C9.16 109.89, 0 100.74, 0 82.42 C0 61.1, 0 39.78, 0 27.47 C0 9.16, 9.16 0, 27.47 0" stroke="none" stroke-width="0" fill="url(#grad-yellow)"></path><path d="M27.47 0 C66.98 0, 106.48 0, 172.8 0 M27.47 0 C79.14 0, 130.81 0, 172.8 0 M172.8 0 C191.12 0, 200.28 9.16, 200.28 27.47 M172.8 0 C191.12 0, 200.28 9.16, 200.28 27.47 M200.28 27.47 C200.28 39.27, 200.28 51.07, 200.28 82.42 M200.28 27.47 C200.28 42.61, 200.28 57.74, 200.28 82.42 M200.28 82.42 C200.28 100.74, 191.12 109.89, 172.8 109.89 M200.28 82.42 C200.28 100.74, 191.12 109.89, 172.8 109.89 M172.8 109.89 C127.34 109.89, 81.87 109.89, 27.47 109.89 M172.8 109.89 C135.11 109.89, 97.42 109.89, 27.47 109.89 M27.47 109.89 C9.16 109.89, 0 100.74, 0 82.42 M27.47 109.89 C9.16 109.89, 0 100.74, 0 82.42 M0 82.42 C0 63.86, 0 45.3, 0 27.47 M0 82.42 C0 61.5, 0 40.57, 0 27.47 M0 27.47 C0 9.16, 9.16 0, 27.47 0 M0 27.47 C0 9.16, 9.16 0, 27.47 0" stroke="var(--diagram-yellow-border)" stroke-width="4" fill="none"></path></g><g transform="translate(606.8303597653689 109.03271349449096) rotate(0 51.25 17.5)"><text x="51.25" y="24.668" font-family="Excalifont, Xiaolai, sans-serif, Segoe UI Emoji" font-size="28px" fill="var(--diagram-yellow)" text-anchor="middle" style="white-space: pre;" direction="ltr" dominant-baseline="alphabetic">Pending</text></g><g transform="translate(718.9304329993174 71.5852765218848) rotate(0 20 20.000000000000114)"><use href="#image-6338738e0bcf5e62e2559fd74b4d278c30036bf5de5da303ad8d915613d25fe2d3669fb1b28d2f4459c5a0cb52998b1e" width="40" height="40" opacity="1"></use></g><g stroke-linecap="round"><g transform="translate(238.93043299931742 131.5852765218848) rotate(0 33.86094181003409 0.686025776169572)"><path d="M0 0 C22.88 0.46, 45.75 0.93, 67.72 1.37 M0 0 C25.79 0.52, 51.58 1.04, 67.72 1.37" stroke="var(--diagram-edge)" stroke-width="4" fill="none"></path></g><g transform="translate(238.93043299931742 131.5852765218848) rotate(0 33.86094181003409 0.686025776169572)"><path d="M67.72 1.37 L54 7.43 L54.26 -5.24 L67.72 1.37" stroke="none" stroke-width="0" fill="#1e1e1e" fill-rule="evenodd"></path><path d="M67.72 1.37 C63.09 3.42, 58.45 5.47, 54 7.43 M67.72 1.37 C62.5 3.68, 57.27 5.99, 54 7.43 M54 7.43 C54.09 2.96, 54.18 -1.52, 54.26 -5.24 M54 7.43 C54.07 3.93, 54.14 0.43, 54.26 -5.24 M54.26 -5.24 C58.55 -3.13, 62.85 -1.02, 67.72 1.37 M54.26 -5.24 C57.3 -3.75, 60.34 -2.26, 67.72 1.37 M67.72 1.37 C67.72 1.37, 67.72 1.37, 67.72 1.37 M67.72 1.37 C67.72 1.37, 67.72 1.37, 67.72 1.37" stroke="var(--diagram-edge)" stroke-width="4" fill="none"></path></g></g><mask></mask><g stroke-linecap="round"><g transform="translate(498.9304329993174 131.5852765218848) rotate(0 33.86094181003409 0.686025776169572)"><path d="M0 0 C14.15 0.29, 28.3 0.57, 67.72 1.37 M0 0 C16.67 0.34, 33.34 0.68, 67.72 1.37" stroke="var(--diagram-edge)" stroke-width="4" fill="none"></path></g><g transform="translate(498.9304329993174 131.5852765218848) rotate(0 33.86094181003409 0.686025776169572)"><path d="M67.72 1.37 L54 7.43 L54.26 -5.24 L67.72 1.37" stroke="none" stroke-width="0" fill="#1e1e1e" fill-rule="evenodd"></path><path d="M67.72 1.37 C64.86 2.64, 61.99 3.91, 54 7.43 M67.72 1.37 C64.34 2.86, 60.97 4.36, 54 7.43 M54 7.43 C54.06 4.78, 54.11 2.13, 54.26 -5.24 M54 7.43 C54.08 3.61, 54.16 -0.21, 54.26 -5.24 M54.26 -5.24 C58.55 -3.13, 62.84 -1.03, 67.72 1.37 M54.26 -5.24 C58.01 -3.4, 61.76 -1.56, 67.72 1.37 M67.72 1.37 C67.72 1.37, 67.72 1.37, 67.72 1.37 M67.72 1.37 C67.72 1.37, 67.72 1.37, 67.72 1.37" stroke="var(--diagram-edge)" stroke-width="4" fill="none"></path></g></g><mask></mask><g stroke-linecap="round"><g transform="translate(138.93043299931742 191.5852765218848) rotate(0 0 55.440222831527194)"><path d="M0 0 C0 18.48, 0 92.4, 0 110.88" stroke="var(--diagram-cyan-border)" stroke-width="4.5" fill="none" stroke-dasharray="8 12"></path></g></g><mask></mask><g stroke-linecap="round" transform="translate(10.913851814268128 12.471146012110012) rotate(359.72845805431535 521.8775232715361 194.0615679750735)"><path d="M32 0 C416.47 0, 800.93 0, 1011.76 0 M1011.76 0 C1033.09 0, 1043.76 10.67, 1043.76 32 M1043.76 32 C1043.76 114.21, 1043.76 196.42, 1043.76 356.12 M1043.76 356.12 C1043.76 377.46, 1033.09 388.12, 1011.76 388.12 M1011.76 388.12 C783.89 388.12, 556.02 388.12, 32 388.12 M32 388.12 C10.67 388.12, 0 377.46, 0 356.12 M0 356.12 C0 257.55, 0 158.98, 0 32 M0 32 C0 10.67, 10.67 0, 32 0" stroke="transparent" stroke-width="4.5" fill="none" stroke-dasharray="8 12"></path></g></svg>
