<?xml version="1.0" encoding="UTF-8"?>
<svg class="diagram" version="1.1" xmlns="http://www.w3.org/2000/svg" viewBox="0 0 1065.5827501716083 440.00000010563167"  ><defs>
<linearGradient id="grad-orange" x1="0%" y1="0%" x2="100%" y2="100%">
    <stop offset="0%" stop-color="rgba(255, 109, 31, 0.28)" />
    <stop offset="100%" stop-color="rgba(255, 109, 31, 0.08)" />
  </linearGradient>
  <linearGradient id="grad-yellow" x1="0%" y1="0%" x2="100%" y2="100%">
    <stop offset="0%" stop-color="rgba(255, 212, 59, 0.28)" />
    <stop offset="100%" stop-color="rgba(255, 212, 59, 0.08)" />
  </linearGradient>
  <linearGradient id="grad-teal" x1="0%" y1="0%" x2="100%" y2="100%">
    <stop offset="0%" stop-color="rgba(0, 189, 173, 0.28)" />
    <stop offset="100%" stop-color="rgba(0, 189, 173, 0.08)" />
  </linearGradient>
  <linearGradient id="grad-cyan" x1="0%" y1="0%" x2="100%" y2="100%">
    <stop offset="0%" stop-color="rgba(34, 211, 238, 0.25)" />
    <stop offset="100%" stop-color="rgba(34, 211, 238, 0.06)" />
  </linearGradient>
  <linearGradient id="grad-magenta" x1="0%" y1="0%" x2="100%" y2="100%">
    <stop offset="0%" stop-color="rgba(214, 0, 111, 0.25)" />
    <stop offset="100%" stop-color="rgba(214, 0, 111, 0.06)" />
  </linearGradient>
  <linearGradient id="grad-success" x1="0%" y1="0%" x2="100%" y2="100%">
    <stop offset="0%" stop-color="rgba(34, 197, 94, 0.25)" />
    <stop offset="100%" stop-color="rgba(34, 197, 94, 0.06)" />
  </linearGradient>
  <linearGradient id="grad-error" x1="0%" y1="0%" x2="100%" y2="100%">
    <stop offset="0%" stop-color="rgba(239, 68, 68, 0.25)" />
    <stop offset="100%" stop-color="rgba(239, 68, 68, 0.06)" />
  </linearGradient>
<style>
  .diagram {
  --diagram-arrow:        rgba(245, 244, 242, 0.18);
  --diagram-ink:          #f5f4f2;
  --diagram-edge:         rgba(245, 244, 242, 0.55);
  --diagram-teal:         #00bdad;
  --diagram-teal-border:  #5eead4;
  --diagram-cyan:         #22d3ee;
  --diagram-cyan-border:  #a5f3fc;
  --diagram-magenta:      #d6006f;
  --diagram-magenta-border: #f06292;
  --diagram-orange:       #ff6d1f;
  --diagram-orange-border: #ff9e5e;
  --diagram-yellow:       #ffd43b;
  --diagram-yellow-border: #ffe066;
  --diagram-success:      #22c55e;
  --diagram-success-border: #86efac;
  --diagram-error:        #ef4444;
  --diagram-error-border: #fca5a5;
  --diagram-surface:      rgba(255, 255, 255, 0.12);
  --diagram-bone:         #f5f4f2;

  }
</style>
<symbol id="image-6338738e0bcf5e62e2559fd74b4d278c30036bf5de5da303ad8d915613d25fe2d3669fb1b28d2f4459c5a0cb52998b1e" viewBox="0 0 256 256">
<path fill="var(--diagram-yellow)" d="M128,24A104,104,0,1,0,232,128,104.11,104.11,0,0,0,128,24Zm0,192a88,88,0,1,1,88-88A88.1,88.1,0,0,1,128,216Zm12-88a12,12,0,1,1-12-12A12,12,0,0,1,140,128Zm44,0a12,12,0,1,1-12-12A12,12,0,0,1,184,128Zm-88,0a12,12,0,1,1-12-12A12,12,0,0,1,96,128Z"/>
</symbol><symbol id="image-705e603ac9a5d65b1c488e04a24cf17a16b16a63e8eb2d3fc7b426e490cb93a8955b871f1dafd06dfdce8bead77388eb" viewBox="0 0 256 256">
<path fill="var(--diagram-teal)" d="M173.66,98.34a8,8,0,0,1,0,11.32l-56,56a8,8,0,0,1-11.32,0l-24-24a8,8,0,0,1,11.32-11.32L112,148.69l50.34-50.35A8,8,0,0,1,173.66,98.34ZM232,128A104,104,0,1,1,128,24,104.11,104.11,0,0,1,232,128Zm-16,0a88,88,0,1,0-88,88A88.1,88.1,0,0,0,216,128Z"/>
</symbol></defs><g transform="translate(458.9304333081843 90) rotate(0 77.69166564941406 22.5)"><text x="0" y="31.716" font-family="Excalifont, Xiaolai, sans-serif, Segoe UI Emoji" font-size="36px" fill="var(--diagram-ink)" text-anchor="start" style="white-space: pre;" direction="ltr" dominant-baseline="alphabetic">Workflow</text></g><g stroke-linecap="round" transform="translate(358.9304333081843 130) rotate(0 40 25)"><path d="M0 0 C28.92 0, 57.83 0, 80 0 M0 0 C22.45 0, 44.9 0, 80 0 M80 0 C80 18.87, 80 37.74, 80 50 M80 0 C80 18.81, 80 37.61, 80 50 M80 50 C52.5 50, 24.99 50, 0 50 M80 50 C48.29 50, 16.58 50, 0 50 M0 50 C0 31.72, 0 13.43, 0 0 M0 50 C0 30.36, 0 10.72, 0 0" stroke="transparent" stroke-width="2" fill="none"></path></g><g transform="translate(365.44709972053784 142.5) rotate(0 33.483333587646484 12.5)"><text x="33.483333587646484" y="17.619999999999997" font-family="Excalifont, Xiaolai, sans-serif, Segoe UI Emoji" font-size="20px" fill="var(--diagram-teal)" text-anchor="middle" style="white-space: pre;" direction="ltr" dominant-baseline="alphabetic">Step 2</text></g><g stroke-linecap="round" transform="translate(618.9304333081843 130) rotate(0 40 25)"><path d="M0 0 C17.3 0, 34.59 0, 80 0 M0 0 C28.91 0, 57.81 0, 80 0 M80 0 C80 19.17, 80 38.33, 80 50 M80 0 C80 13.61, 80 27.22, 80 50 M80 50 C58.45 50, 36.91 50, 0 50 M80 50 C62.3 50, 44.59 50, 0 50 M0 50 C0 35.85, 0 21.7, 0 0 M0 50 C0 32.66, 0 15.33, 0 0" stroke="transparent" stroke-width="2" fill="none"></path></g><g transform="translate(626.3637676587703 142.5) rotate(0 32.56666564941406 12.5)"><text x="32.56666564941406" y="17.619999999999997" font-family="Excalifont, Xiaolai, sans-serif, Segoe UI Emoji" font-size="20px" fill="var(--diagram-teal)" text-anchor="middle" style="white-space: pre;" direction="ltr" dominant-baseline="alphabetic">Step 3</text></g><g stroke-linecap="round" transform="translate(98.93043330818432 130) rotate(0 40 25)"><path d="M0 0 C19.67 0, 39.35 0, 80 0 M0 0 C18.59 0, 37.18 0, 80 0 M80 0 C80 17.55, 80 35.09, 80 50 M80 0 C80 12.1, 80 24.21, 80 50 M80 50 C61.36 50, 42.72 50, 0 50 M80 50 C56.22 50, 32.44 50, 0 50 M0 50 C0 32.18, 0 14.36, 0 0 M0 50 C0 34, 0 18, 0 0" stroke="transparent" stroke-width="2" fill="none"></path></g><g transform="translate(108.18043330818432 142.5) rotate(0 30.75 12.5)"><text x="30.75" y="17.619999999999997" font-family="Excalifont, Xiaolai, sans-serif, Segoe UI Emoji" font-size="20px" fill="var(--diagram-teal)" text-anchor="middle" style="white-space: pre;" direction="ltr" dominant-baseline="alphabetic">Step 1</text></g><g stroke-linecap="round" transform="translate(878.9304333081843 130) rotate(0 40 25)"><path d="M0 0 C20.44 0, 40.87 0, 80 0 M0 0 C20.59 0, 41.17 0, 80 0 M80 0 C80 15.81, 80 31.63, 80 50 M80 0 C80 13.34, 80 26.67, 80 50 M80 50 C54.92 50, 29.83 50, 0 50 M80 50 C54.79 50, 29.58 50, 0 50 M0 50 C0 36.34, 0 22.68, 0 0 M0 50 C0 33.17, 0 16.34, 0 0" stroke="transparent" stroke-width="2" fill="none"></path></g><g transform="translate(886.5971012464167 142.5) rotate(0 32.33333206176758 12.5)"><text x="32.33333206176758" y="17.619999999999997" font-family="Excalifont, Xiaolai, sans-serif, Segoe UI Emoji" font-size="20px" fill="var(--diagram-yellow)" text-anchor="middle" style="white-space: pre;" direction="ltr" dominant-baseline="alphabetic">Step 4</text></g><g stroke-linecap="round" transform="translate(38.93043330818432 190) rotate(0 100.13905818996591 54.947436972606226)"><path d="M27.47 0 C77.4 0, 127.33 0, 172.8 0 C191.12 0, 200.28 9.16, 200.28 27.47 C200.28 40.33, 200.28 53.19, 200.28 82.42 C200.28 100.74, 191.12 109.89, 172.8 109.89 C130.11 109.89, 87.42 109.89, 27.47 109.89 C9.16 109.89, 0 100.74, 0 82.42 C0 64.19, 0 45.96, 0 27.47 C0 9.16, 9.16 0, 27.47 0" stroke="none" stroke-width="0" fill="url(#grad-teal)"></path><path d="M27.47 0 C60.32 0, 93.17 0, 172.8 0 M27.47 0 C61.03 0, 94.59 0, 172.8 0 M172.8 0 C191.12 0, 200.28 9.16, 200.28 27.47 M172.8 0 C191.12 0, 200.28 9.16, 200.28 27.47 M200.28 27.47 C200.28 46.59, 200.28 65.7, 200.28 82.42 M200.28 27.47 C200.28 48.87, 200.28 70.26, 200.28 82.42 M200.28 82.42 C200.28 100.74, 191.12 109.89, 172.8 109.89 M200.28 82.42 C200.28 100.74, 191.12 109.89, 172.8 109.89 M172.8 109.89 C124.72 109.89, 76.63 109.89, 27.47 109.89 M172.8 109.89 C118.52 109.89, 64.23 109.89, 27.47 109.89 M27.47 109.89 C9.16 109.89, 0 100.74, 0 82.42 M27.47 109.89 C9.16 109.89, 0 100.74, 0 82.42 M0 82.42 C0 61.69, 0 40.96, 0 27.47 M0 82.42 C0 70.41, 0 58.4, 0 27.47 M0 27.47 C0 9.16, 9.16 0, 27.47 0 M0 27.47 C0 9.16, 9.16 0, 27.47 0" stroke="var(--diagram-teal-border)" stroke-width="4" fill="none"></path></g><g transform="translate(94.01115714756429 227.44743697260617) rotate(0 45.05833435058594 17.5)"><text x="45.05833435058594" y="24.668" font-family="Excalifont, Xiaolai, sans-serif, Segoe UI Emoji" font-size="28px" fill="var(--diagram-teal)" text-anchor="middle" style="white-space: pre;" direction="ltr" dominant-baseline="alphabetic">Search</text></g><g transform="translate(198.93043330818432 190) rotate(0 20 20)"><use href="#image-705e603ac9a5d65b1c488e04a24cf17a16b16a63e8eb2d3fc7b426e490cb93a8955b871f1dafd06dfdce8bead77388eb" width="40" height="40" opacity="1"></use></g><g stroke-linecap="round" transform="translate(298.9304333081843 190) rotate(0 100.13905818996568 56.7460390842088)"><path d="M28.37 0 C75.22 0, 122.06 0, 171.91 0 C190.82 0, 200.28 9.46, 200.28 28.37 C200.28 46.81, 200.28 65.24, 200.28 85.12 C200.28 104.03, 190.82 113.49, 171.91 113.49 C118.58 113.49, 65.25 113.49, 28.37 113.49 C9.46 113.49, 0 104.03, 0 85.12 C0 71.68, 0 58.23, 0 28.37 C0 9.46, 9.46 0, 28.37 0" stroke="none" stroke-width="0" fill="url(#grad-teal)"></path><path d="M28.37 0 C70.65 0, 112.93 0, 171.91 0 M28.37 0 C63.78 0, 99.19 0, 171.91 0 M171.91 0 C190.82 0, 200.28 9.46, 200.28 28.37 M171.91 0 C190.82 0, 200.28 9.46, 200.28 28.37 M200.28 28.37 C200.28 49.87, 200.28 71.37, 200.28 85.12 M200.28 28.37 C200.28 44.49, 200.28 60.61, 200.28 85.12 M200.28 85.12 C200.28 104.03, 190.82 113.49, 171.91 113.49 M200.28 85.12 C200.28 104.03, 190.82 113.49, 171.91 113.49 M171.91 113.49 C121.15 113.49, 70.4 113.49, 28.37 113.49 M171.91 113.49 C122.54 113.49, 73.17 113.49, 28.37 113.49 M28.37 113.49 C9.46 113.49, 0 104.03, 0 85.12 M28.37 113.49 C9.46 113.49, 0 104.03, 0 85.12 M0 85.12 C0 66.43, 0 47.74, 0 28.37 M0 85.12 C0 70.24, 0 55.35, 0 28.37 M0 28.37 C0 9.46, 9.46 0, 28.37 0 M0 28.37 C0 9.46, 9.46 0, 28.37 0" stroke="var(--diagram-teal-border)" stroke-width="4" fill="none"></path></g><g transform="translate(331.0611601993219 229.24603908420886) rotate(0 68.00833129882812 17.5)"><text x="68.00833129882812" y="24.668" font-family="Excalifont, Xiaolai, sans-serif, Segoe UI Emoji" font-size="28px" fill="var(--diagram-teal)" text-anchor="middle" style="white-space: pre;" direction="ltr" dominant-baseline="alphabetic">Summarize</text></g><g stroke-linecap="round" transform="translate(558.9304333081843 190) rotate(0 100.13905818996591 54.947436972606226)"><path d="M27.47 0 C61.64 0, 95.81 0, 172.8 0 C191.12 0, 200.28 9.16, 200.28 27.47 C200.28 39.59, 200.28 51.7, 200.28 82.42 C200.28 100.74, 191.12 109.89, 172.8 109.89 C122.14 109.89, 71.47 109.89, 27.47 109.89 C9.16 109.89, 0 100.74, 0 82.42 C0 65.63, 0 48.84, 0 27.47 C0 9.16, 9.16 0, 27.47 0" stroke="none" stroke-width="0" fill="url(#grad-teal)"></path><path d="M27.47 0 C67.35 0, 107.22 0, 172.8 0 M27.47 0 C80.8 0, 134.12 0, 172.8 0 M172.8 0 C191.12 0, 200.28 9.16, 200.28 27.47 M172.8 0 C191.12 0, 200.28 9.16, 200.28 27.47 M200.28 27.47 C200.28 38.63, 200.28 49.79, 200.28 82.42 M200.28 27.47 C200.28 48.43, 200.28 69.38, 200.28 82.42 M200.28 82.42 C200.28 100.74, 191.12 109.89, 172.8 109.89 M200.28 82.42 C200.28 100.74, 191.12 109.89, 172.8 109.89 M172.8 109.89 C135.09 109.89, 97.38 109.89, 27.47 109.89 M172.8 109.89 C131.78 109.89, 90.76 109.89, 27.47 109.89 M27.47 109.89 C9.16 109.89, 0 100.74, 0 82.42 M27.47 109.89 C9.16 109.89, 0 100.74, 0 82.42 M0 82.42 C0 70.14, 0 57.87, 0 27.47 M0 82.42 C0 69.43, 0 56.43, 0 27.47 M0 27.47 C0 9.16, 9.16 0, 27.47 0 M0 27.47 C0 9.16, 9.16 0, 27.47 0" stroke="var(--diagram-teal-border)" stroke-width="4" fill="none"></path></g><g transform="translate(623.6194907352108 227.44743697260617) rotate(0 35.45000076293945 17.5)"><text x="35.45000076293945" y="24.668" font-family="Excalifont, Xiaolai, sans-serif, Segoe UI Emoji" font-size="28px" fill="var(--diagram-teal)" text-anchor="middle" style="white-space: pre;" direction="ltr" dominant-baseline="alphabetic">Write</text></g><g stroke-linecap="round" transform="translate(818.9304333081843 190) rotate(0 100.13905818996591 54.947436972606226)"><path d="M27.47 0 C71.75 0, 116.02 0, 172.8 0 C191.12 0, 200.28 9.16, 200.28 27.47 C200.28 48.01, 200.28 68.54, 200.28 82.42 C200.28 100.74, 191.12 109.89, 172.8 109.89 C122.13 109.89, 71.46 109.89, 27.47 109.89 C9.16 109.89, 0 100.74, 0 82.42 C0 68.14, 0 53.86, 0 27.47 C0 9.16, 9.16 0, 27.47 0" stroke="none" stroke-width="0" fill="url(#grad-yellow)"></path><path d="M27.47 0 C82.48 0, 137.49 0, 172.8 0 M27.47 0 C81.92 0, 136.37 0, 172.8 0 M172.8 0 C191.12 0, 200.28 9.16, 200.28 27.47 M172.8 0 C191.12 0, 200.28 9.16, 200.28 27.47 M200.28 27.47 C200.28 44.5, 200.28 61.53, 200.28 82.42 M200.28 27.47 C200.28 39.34, 200.28 51.22, 200.28 82.42 M200.28 82.42 C200.28 100.74, 191.12 109.89, 172.8 109.89 M200.28 82.42 C200.28 100.74, 191.12 109.89, 172.8 109.89 M172.8 109.89 C121.93 109.89, 71.06 109.89, 27.47 109.89 M172.8 109.89 C121.71 109.89, 70.61 109.89, 27.47 109.89 M27.47 109.89 C9.16 109.89, 0 100.74, 0 82.42 M27.47 109.89 C9.16 109.89, 0 100.74, 0 82.42 M0 82.42 C0 68.13, 0 53.84, 0 27.47 M0 82.42 C0 71.03, 0 59.64, 0 27.47 M0 27.47 C0 9.16, 9.16 0, 27.47 0 M0 27.47 C0 9.16, 9.16 0, 27.47 0" stroke="var(--diagram-yellow-border)" stroke-width="4" fill="none"></path></g><g transform="translate(875.0861579105037 227.44743697260617) rotate(0 43.983333587646484 17.5)"><text x="43.983333587646484" y="24.668" font-family="Excalifont, Xiaolai, sans-serif, Segoe UI Emoji" font-size="28px" fill="var(--diagram-yellow)" text-anchor="middle" style="white-space: pre;" direction="ltr" dominant-baseline="alphabetic">Result</text></g><g stroke-linecap="round"><g transform="translate(238.93043330818432 250) rotate(0 33.860941810034205 0.686025776169572)"><path d="M0 0 C16.77 0.34, 33.53 0.68, 67.72 1.37 M0 0 C20.53 0.42, 41.07 0.83, 67.72 1.37" stroke="var(--diagram-edge)" stroke-width="4" fill="none"></path></g><g transform="translate(238.93043330818432 250) rotate(0 33.860941810034205 0.686025776169572)"><path d="M67.72 1.37 L54 7.43 L54.26 -5.24 L67.72 1.37" stroke="none" stroke-width="0" fill="#1e1e1e" fill-rule="evenodd"></path><path d="M67.72 1.37 C64.32 2.87, 60.93 4.37, 54 7.43 M67.72 1.37 C63.56 3.21, 59.4 5.05, 54 7.43 M54 7.43 C54.05 4.87, 54.11 2.3, 54.26 -5.24 M54 7.43 C54.07 4.1, 54.14 0.76, 54.26 -5.24 M54.26 -5.24 C58.25 -3.28, 62.25 -1.32, 67.72 1.37 M54.26 -5.24 C57.71 -3.54, 61.17 -1.85, 67.72 1.37 M67.72 1.37 C67.72 1.37, 67.72 1.37, 67.72 1.37 M67.72 1.37 C67.72 1.37, 67.72 1.37, 67.72 1.37" stroke="var(--diagram-edge)" stroke-width="4" fill="none"></path></g></g><mask></mask><g stroke-linecap="round"><g transform="translate(498.9304333081843 250) rotate(0 33.860941810034205 0.686025776169572)"><path d="M0 0 C17.89 0.36, 35.78 0.72, 67.72 1.37 M0 0 C19.05 0.39, 38.09 0.77, 67.72 1.37" stroke="var(--diagram-edge)" stroke-width="4" fill="none"></path></g><g transform="translate(498.9304333081843 250) rotate(0 33.860941810034205 0.686025776169572)"><path d="M67.72 1.37 L54 7.43 L54.26 -5.24 L67.72 1.37" stroke="none" stroke-width="0" fill="#1e1e1e" fill-rule="evenodd"></path><path d="M67.72 1.37 C64.1 2.97, 60.47 4.58, 54 7.43 M67.72 1.37 C63.86 3.08, 60 4.78, 54 7.43 M54 7.43 C54.1 2.37, 54.21 -2.7, 54.26 -5.24 M54 7.43 C54.07 4.14, 54.14 0.85, 54.26 -5.24 M54.26 -5.24 C57.18 -3.81, 60.11 -2.37, 67.72 1.37 M54.26 -5.24 C57.53 -3.63, 60.8 -2.03, 67.72 1.37 M67.72 1.37 C67.72 1.37, 67.72 1.37, 67.72 1.37 M67.72 1.37 C67.72 1.37, 67.72 1.37, 67.72 1.37" stroke="var(--diagram-edge)" stroke-width="4" fill="none"></path></g></g><mask></mask><g stroke-linecap="round"><g transform="translate(758.9304333081843 250) rotate(0 33.86094181003409 0.686025776169572)"><path d="M0 0 C25.04 0.51, 50.07 1.01, 67.72 1.37 M0 0 C15.71 0.32, 31.42 0.64, 67.72 1.37" stroke="var(--diagram-edge)" stroke-width="4" fill="none"></path></g><g transform="translate(758.9304333081843 250) rotate(0 33.86094181003409 0.686025776169572)"><path d="M67.72 1.37 L54 7.43 L54.26 -5.24 L67.72 1.37" stroke="none" stroke-width="0" fill="#1e1e1e" fill-rule="evenodd"></path><path d="M67.72 1.37 C62.65 3.61, 57.58 5.85, 54 7.43 M67.72 1.37 C64.54 2.78, 61.36 4.18, 54 7.43 M54 7.43 C54.06 4.72, 54.11 2.01, 54.26 -5.24 M54 7.43 C54.08 3.47, 54.16 -0.5, 54.26 -5.24 M54.26 -5.24 C58.08 -3.36, 61.91 -1.48, 67.72 1.37 M54.26 -5.24 C57.86 -3.47, 61.46 -1.7, 67.72 1.37 M67.72 1.37 C67.72 1.37, 67.72 1.37, 67.72 1.37 M67.72 1.37 C67.72 1.37, 67.72 1.37, 67.72 1.37" stroke="var(--diagram-edge)" stroke-width="4" fill="none"></path></g></g><mask></mask><g transform="translate(978.9304333081843 190) rotate(0 20 20.000000000000114)"><use href="#image-6338738e0bcf5e62e2559fd74b4d278c30036bf5de5da303ad8d915613d25fe2d3669fb1b28d2f4459c5a0cb52998b1e" width="40" height="40" opacity="1"></use></g><g transform="translate(873.3304334035518 10) rotate(0 5.599999904632568 17.5)"><text x="5.599999904632568" y="24.668" font-family="Excalifont, Xiaolai, sans-serif, Segoe UI Emoji" font-size="28px" fill="var(--diagram-yellow)" text-anchor="middle" style="white-space: pre;" direction="ltr" dominant-baseline="alphabetic"></text></g><g transform="translate(458.9304333081843 190) rotate(0 20 20)"><use href="#image-705e603ac9a5d65b1c488e04a24cf17a16b16a63e8eb2d3fc7b426e490cb93a8955b871f1dafd06dfdce8bead77388eb" width="40" height="40" opacity="1"></use></g><g transform="translate(718.9304333081843 190) rotate(0 20 20)"><use href="#image-705e603ac9a5d65b1c488e04a24cf17a16b16a63e8eb2d3fc7b426e490cb93a8955b871f1dafd06dfdce8bead77388eb" width="40" height="40" opacity="1"></use></g><g stroke-linecap="round" transform="translate(10.9138518142679 39.40571814337454) rotate(359.72845805431535 521.8775232715361 194.06156797507356)"><path d="M32 0 C329.7 0, 627.4 0, 1011.76 0 M1011.76 0 C1033.09 0, 1043.76 10.67, 1043.76 32 M1043.76 32 C1043.76 139.12, 1043.76 246.24, 1043.76 356.12 M1043.76 356.12 C1043.76 377.46, 1033.09 388.12, 1011.76 388.12 M1011.76 388.12 C724.54 388.12, 437.32 388.12, 32 388.12 M32 388.12 C10.67 388.12, 0 377.46, 0 356.12 M0 356.12 C0 234.4, 0 112.68, 0 32 M0 32 C0 10.67, 10.67 0, 32 0" stroke="transparent" stroke-width="4.5" fill="none" stroke-dasharray="8 12"></path></g></svg>
