<?xml version="1.0" encoding="UTF-8"?>
<svg class="diagram" version="1.1" xmlns="http://www.w3.org/2000/svg" viewBox="0 0 1065.5827501716083 413.06542797436714"  ><defs>
<linearGradient id="grad-orange" x1="0%" y1="0%" x2="100%" y2="100%">
    <stop offset="0%" stop-color="rgba(255, 109, 31, 0.28)" />
    <stop offset="100%" stop-color="rgba(255, 109, 31, 0.08)" />
  </linearGradient>
  <linearGradient id="grad-yellow" x1="0%" y1="0%" x2="100%" y2="100%">
    <stop offset="0%" stop-color="rgba(255, 212, 59, 0.28)" />
    <stop offset="100%" stop-color="rgba(255, 212, 59, 0.08)" />
  </linearGradient>
  <linearGradient id="grad-teal" x1="0%" y1="0%" x2="100%" y2="100%">
    <stop offset="0%" stop-color="rgba(0, 189, 173, 0.28)" />
    <stop offset="100%" stop-color="rgba(0, 189, 173, 0.08)" />
  </linearGradient>
  <linearGradient id="grad-cyan" x1="0%" y1="0%" x2="100%" y2="100%">
    <stop offset="0%" stop-color="rgba(34, 211, 238, 0.25)" />
    <stop offset="100%" stop-color="rgba(34, 211, 238, 0.06)" />
  </linearGradient>
  <linearGradient id="grad-magenta" x1="0%" y1="0%" x2="100%" y2="100%">
    <stop offset="0%" stop-color="rgba(214, 0, 111, 0.25)" />
    <stop offset="100%" stop-color="rgba(214, 0, 111, 0.06)" />
  </linearGradient>
  <linearGradient id="grad-success" x1="0%" y1="0%" x2="100%" y2="100%">
    <stop offset="0%" stop-color="rgba(34, 197, 94, 0.25)" />
    <stop offset="100%" stop-color="rgba(34, 197, 94, 0.06)" />
  </linearGradient>
  <linearGradient id="grad-error" x1="0%" y1="0%" x2="100%" y2="100%">
    <stop offset="0%" stop-color="rgba(239, 68, 68, 0.25)" />
    <stop offset="100%" stop-color="rgba(239, 68, 68, 0.06)" />
  </linearGradient>
<style>
  .diagram {
  --diagram-arrow:        rgba(245, 244, 242, 0.18);
  --diagram-ink:          #f5f4f2;
  --diagram-edge:         rgba(245, 244, 242, 0.55);
  --diagram-teal:         #00bdad;
  --diagram-teal-border:  #5eead4;
  --diagram-cyan:         #22d3ee;
  --diagram-cyan-border:  #a5f3fc;
  --diagram-magenta:      #d6006f;
  --diagram-magenta-border: #f06292;
  --diagram-orange:       #ff6d1f;
  --diagram-orange-border: #ff9e5e;
  --diagram-yellow:       #ffd43b;
  --diagram-yellow-border: #ffe066;
  --diagram-success:      #22c55e;
  --diagram-success-border: #86efac;
  --diagram-error:        #ef4444;
  --diagram-error-border: #fca5a5;
  --diagram-surface:      rgba(255, 255, 255, 0.12);
  --diagram-bone:         #f5f4f2;

  }
</style>
<symbol id="image-68cebb1ca44a9bc73c8cfb34500940c40e3067e645135e4403468abf97d62de4cfbcdac64216ae01317fcc5b115b2a8a" viewBox="0 0 256 256">
<path fill="var(--diagram-teal)" d="M229.66,58.34l-32-32a8,8,0,0,0-11.32,0l-96,96A8,8,0,0,0,88,128v32a8,8,0,0,0,8,8h32a8,8,0,0,0,5.66-2.34l96-96A8,8,0,0,0,229.66,58.34ZM124.69,152H104V131.31l64-64L188.69,88ZM200,76.69,179.31,56,192,43.31,212.69,64ZM224,128v80a16,16,0,0,1-16,16H48a16,16,0,0,1-16-16V48A16,16,0,0,1,48,32h80a8,8,0,0,1,0,16H48V208H208V128a8,8,0,0,1,16,0Z"/>
</symbol><symbol id="image-a7cb0b8c7806d63cc682f5885d9ed2195b43f138e636f4c7a49b742e4e0789fd8cbef075c5fb8e05acc17d5dca07d576" viewBox="0 0 256 256">
<path fill="var(--diagram-teal)" d="M80,64a8,8,0,0,1,8-8H216a8,8,0,0,1,0,16H88A8,8,0,0,1,80,64Zm136,56H88a8,8,0,0,0,0,16H216a8,8,0,0,0,0-16Zm0,64H88a8,8,0,0,0,0,16H216a8,8,0,0,0,0-16ZM44,52A12,12,0,1,0,56,64,12,12,0,0,0,44,52Zm0,64a12,12,0,1,0,12,12A12,12,0,0,0,44,116Zm0,64a12,12,0,1,0,12,12A12,12,0,0,0,44,180Z"/>
</symbol><symbol id="image-2c948f9849d1df4e55b9d8870a0f2269fe73c26fc573c2a2c2646b15c3e0f9af5b6054fe4abe65b66adce51cf53b75b1" viewBox="0 0 256 256">
<path fill="var(--diagram-teal)" d="M229.66,218.34l-50.07-50.06a88.11,88.11,0,1,0-11.31,11.31l50.06,50.07a8,8,0,0,0,11.32-11.32ZM40,112a72,72,0,1,1,72,72A72.08,72.08,0,0,1,40,112Z"/>
</symbol><symbol id="image-6338738e0bcf5e62e2559fd74b4d278c30036bf5de5da303ad8d915613d25fe2d3669fb1b28d2f4459c5a0cb52998b1e" viewBox="0 0 256 256">
<path fill="var(--diagram-yellow)" d="M128,24A104,104,0,1,0,232,128,104.11,104.11,0,0,0,128,24Zm0,192a88,88,0,1,1,88-88A88.1,88.1,0,0,1,128,216Zm12-88a12,12,0,1,1-12-12A12,12,0,0,1,140,128Zm44,0a12,12,0,1,1-12-12A12,12,0,0,1,184,128Zm-88,0a12,12,0,1,1-12-12A12,12,0,0,1,96,128Z"/>
</symbol></defs><g transform="translate(458.9304333081843 63.06542786873547) rotate(0 77.69166564941406 22.5)"><text x="0" y="31.716" font-family="Excalifont, Xiaolai, sans-serif, Segoe UI Emoji" font-size="36px" fill="var(--diagram-ink)" text-anchor="start" style="white-space: pre;" direction="ltr" dominant-baseline="alphabetic">Workflow</text></g><g stroke-linecap="round" transform="translate(358.9304333081843 103.06542786873547) rotate(0 40 25)"><path d="M0 0 C28.92 0, 57.83 0, 80 0 M0 0 C22.45 0, 44.9 0, 80 0 M80 0 C80 18.87, 80 37.74, 80 50 M80 0 C80 18.81, 80 37.61, 80 50 M80 50 C52.5 50, 24.99 50, 0 50 M80 50 C48.29 50, 16.58 50, 0 50 M0 50 C0 31.72, 0 13.43, 0 0 M0 50 C0 30.36, 0 10.72, 0 0" stroke="transparent" stroke-width="2" fill="none"></path></g><g transform="translate(365.44709972053784 115.56542786873547) rotate(0 33.483333587646484 12.5)"><text x="33.483333587646484" y="17.619999999999997" font-family="Excalifont, Xiaolai, sans-serif, Segoe UI Emoji" font-size="20px" fill="var(--diagram-teal)" text-anchor="middle" style="white-space: pre;" direction="ltr" dominant-baseline="alphabetic">Step 2</text></g><g stroke-linecap="round" transform="translate(606.2412423081844 103.06542786873547) rotate(0 40 25)"><path d="M0 0 C17.3 0, 34.59 0, 80 0 M0 0 C28.91 0, 57.81 0, 80 0 M80 0 C80 19.17, 80 38.33, 80 50 M80 0 C80 13.61, 80 27.22, 80 50 M80 50 C58.45 50, 36.91 50, 0 50 M80 50 C62.3 50, 44.59 50, 0 50 M0 50 C0 35.85, 0 21.7, 0 0 M0 50 C0 32.66, 0 15.33, 0 0" stroke="transparent" stroke-width="2" fill="none"></path></g><g transform="translate(613.6745766587703 115.56542786873547) rotate(0 32.56666564941406 12.5)"><text x="32.56666564941406" y="17.619999999999997" font-family="Excalifont, Xiaolai, sans-serif, Segoe UI Emoji" font-size="20px" fill="var(--diagram-teal)" text-anchor="middle" style="white-space: pre;" direction="ltr" dominant-baseline="alphabetic">Step 3</text></g><g stroke-linecap="round" transform="translate(98.93043330818432 103.06542786873547) rotate(0 40 25)"><path d="M0 0 C19.67 0, 39.35 0, 80 0 M0 0 C18.59 0, 37.18 0, 80 0 M80 0 C80 17.55, 80 35.09, 80 50 M80 0 C80 12.1, 80 24.21, 80 50 M80 50 C61.36 50, 42.72 50, 0 50 M80 50 C56.22 50, 32.44 50, 0 50 M0 50 C0 32.18, 0 14.36, 0 0 M0 50 C0 34, 0 18, 0 0" stroke="transparent" stroke-width="2" fill="none"></path></g><g transform="translate(108.18043330818432 115.56542786873547) rotate(0 30.75 12.5)"><text x="30.75" y="17.619999999999997" font-family="Excalifont, Xiaolai, sans-serif, Segoe UI Emoji" font-size="20px" fill="var(--diagram-teal)" text-anchor="middle" style="white-space: pre;" direction="ltr" dominant-baseline="alphabetic">Step 1</text></g><g stroke-linecap="round" transform="translate(10.9138518142679 12.471146012110012) rotate(359.72845805431535 521.8775232715361 194.06156797507356)"><path d="M32 0 C329.7 0, 627.4 0, 1011.76 0 M1011.76 0 C1033.09 0, 1043.76 10.67, 1043.76 32 M1043.76 32 C1043.76 139.12, 1043.76 246.24, 1043.76 356.12 M1043.76 356.12 C1043.76 377.46, 1033.09 388.12, 1011.76 388.12 M1011.76 388.12 C724.54 388.12, 437.32 388.12, 32 388.12 M32 388.12 C10.67 388.12, 0 377.46, 0 356.12 M0 356.12 C0 234.4, 0 112.68, 0 32 M0 32 C0 10.67, 10.67 0, 32 0" stroke="transparent" stroke-width="4.5" fill="none" stroke-dasharray="8 12"></path></g><g stroke-linecap="round" transform="translate(38.93043309910013 162.4406788883034) rotate(0 98.06757314782897 53.8107896358938)"><path d="M26.91 0 C60.63 0, 94.36 0, 169.23 0 C187.17 0, 196.14 8.97, 196.14 26.91 C196.14 46.53, 196.14 66.16, 196.14 80.72 C196.14 98.65, 187.17 107.62, 169.23 107.62 C123.15 107.62, 77.08 107.62, 26.91 107.62 C8.97 107.62, 0 98.65, 0 80.72 C0 63.16, 0 45.6, 0 26.91 C0 8.97, 8.97 0, 26.91 0" stroke="none" stroke-width="0" fill="url(#grad-teal)"></path><path d="M26.91 0 C66.76 0, 106.62 0, 169.23 0 M26.91 0 C77.26 0, 127.6 0, 169.23 0 M169.23 0 C187.17 0, 196.14 8.97, 196.14 26.91 M169.23 0 C187.17 0, 196.14 8.97, 196.14 26.91 M196.14 26.91 C196.14 41.26, 196.14 55.62, 196.14 80.72 M196.14 26.91 C196.14 39.05, 196.14 51.2, 196.14 80.72 M196.14 80.72 C196.14 98.65, 187.17 107.62, 169.23 107.62 M196.14 80.72 C196.14 98.65, 187.17 107.62, 169.23 107.62 M169.23 107.62 C140.72 107.62, 112.21 107.62, 26.91 107.62 M169.23 107.62 C127.25 107.62, 85.27 107.62, 26.91 107.62 M26.91 107.62 C8.97 107.62, 0 98.65, 0 80.72 M26.91 107.62 C8.97 107.62, 0 98.65, 0 80.72 M0 80.72 C0 62.37, 0 44.01, 0 26.91 M0 80.72 C0 68.22, 0 55.73, 0 26.91 M0 26.91 C0 8.97, 8.97 0, 26.91 0 M0 26.91 C0 8.97, 8.97 0, 26.91 0" stroke="var(--diagram-teal-border)" stroke-width="4" fill="none"></path></g><g stroke-linecap="round" transform="translate(293.55205107024494 162.4406788883034) rotate(0 98.06757314782885 55.57218571182682)"><path d="M27.79 0 C71.5 0, 115.21 0, 168.35 0 C186.87 0, 196.14 9.26, 196.14 27.79 C196.14 40.66, 196.14 53.54, 196.14 83.36 C196.14 101.88, 186.87 111.14, 168.35 111.14 C117.8 111.14, 67.25 111.14, 27.79 111.14 C9.26 111.14, 0 101.88, 0 83.36 C0 65.39, 0 47.42, 0 27.79 C0 9.26, 9.26 0, 27.79 0" stroke="none" stroke-width="0" fill="url(#grad-teal)"></path><path d="M27.79 0 C66.15 0, 104.52 0, 168.35 0 M27.79 0 C77.71 0, 127.63 0, 168.35 0 M168.35 0 C186.87 0, 196.14 9.26, 196.14 27.79 M168.35 0 C186.87 0, 196.14 9.26, 196.14 27.79 M196.14 27.79 C196.14 45.57, 196.14 63.36, 196.14 83.36 M196.14 27.79 C196.14 42.99, 196.14 58.2, 196.14 83.36 M196.14 83.36 C196.14 101.88, 186.87 111.14, 168.35 111.14 M196.14 83.36 C196.14 101.88, 186.87 111.14, 168.35 111.14 M168.35 111.14 C119.78 111.14, 71.22 111.14, 27.79 111.14 M168.35 111.14 C118.94 111.14, 69.54 111.14, 27.79 111.14 M27.79 111.14 C9.26 111.14, 0 101.88, 0 83.36 M27.79 111.14 C9.26 111.14, 0 101.88, 0 83.36 M0 83.36 C0 68.23, 0 53.09, 0 27.79 M0 83.36 C0 61.3, 0 39.24, 0 27.79 M0 27.79 C0 9.26, 9.26 0, 27.79 0 M0 27.79 C0 9.26, 9.26 0, 27.79 0" stroke="var(--diagram-teal-border)" stroke-width="4" fill="none"></path></g><g stroke-linecap="round" transform="translate(548.1736690413816 162.4406788883034) rotate(0 98.06757314782908 53.8107896358938)"><path d="M26.91 0 C74.1 0, 121.29 0, 169.23 0 C187.17 0, 196.14 8.97, 196.14 26.91 C196.14 45.91, 196.14 64.91, 196.14 80.72 C196.14 98.65, 187.17 107.62, 169.23 107.62 C121.27 107.62, 73.3 107.62, 26.91 107.62 C8.97 107.62, 0 98.65, 0 80.72 C0 68.01, 0 55.3, 0 26.91 C0 8.97, 8.97 0, 26.91 0" stroke="none" stroke-width="0" fill="url(#grad-teal)"></path><path d="M26.91 0 C70.7 0, 114.5 0, 169.23 0 M26.91 0 C63.93 0, 100.96 0, 169.23 0 M169.23 0 C187.17 0, 196.14 8.97, 196.14 26.91 M169.23 0 C187.17 0, 196.14 8.97, 196.14 26.91 M196.14 26.91 C196.14 40.9, 196.14 54.9, 196.14 80.72 M196.14 26.91 C196.14 46.36, 196.14 65.81, 196.14 80.72 M196.14 80.72 C196.14 98.65, 187.17 107.62, 169.23 107.62 M196.14 80.72 C196.14 98.65, 187.17 107.62, 169.23 107.62 M169.23 107.62 C139.35 107.62, 109.48 107.62, 26.91 107.62 M169.23 107.62 C112.76 107.62, 56.28 107.62, 26.91 107.62 M26.91 107.62 C8.97 107.62, 0 98.65, 0 80.72 M26.91 107.62 C8.97 107.62, 0 98.65, 0 80.72 M0 80.72 C0 62.27, 0 43.83, 0 26.91 M0 80.72 C0 63.94, 0 47.16, 0 26.91 M0 26.91 C0 8.97, 8.97 0, 26.91 0 M0 26.91 C0 8.97, 8.97 0, 26.91 0" stroke="var(--diagram-teal-border)" stroke-width="4" fill="none"></path></g><g stroke-linecap="round" transform="translate(802.7952870125262 162.4406788883034) rotate(0 98.06757314782908 53.8107896358938)"><path d="M26.91 0 C74.37 0, 121.83 0, 169.23 0 C187.17 0, 196.14 8.97, 196.14 26.91 C196.14 41.05, 196.14 55.2, 196.14 80.72 C196.14 98.65, 187.17 107.62, 169.23 107.62 C133.2 107.62, 97.17 107.62, 26.91 107.62 C8.97 107.62, 0 98.65, 0 80.72 C0 68, 0 55.29, 0 26.91 C0 8.97, 8.97 0, 26.91 0" stroke="none" stroke-width="0" fill="url(#grad-yellow)"></path><path d="M26.91 0 C79.45 0, 131.99 0, 169.23 0 M26.91 0 C59.32 0, 91.74 0, 169.23 0 M169.23 0 C187.17 0, 196.14 8.97, 196.14 26.91 M169.23 0 C187.17 0, 196.14 8.97, 196.14 26.91 M196.14 26.91 C196.14 39.51, 196.14 52.11, 196.14 80.72 M196.14 26.91 C196.14 42.28, 196.14 57.66, 196.14 80.72 M196.14 80.72 C196.14 98.65, 187.17 107.62, 169.23 107.62 M196.14 80.72 C196.14 98.65, 187.17 107.62, 169.23 107.62 M169.23 107.62 C126.06 107.62, 82.9 107.62, 26.91 107.62 M169.23 107.62 C131.53 107.62, 93.83 107.62, 26.91 107.62 M26.91 107.62 C8.97 107.62, 0 98.65, 0 80.72 M26.91 107.62 C8.97 107.62, 0 98.65, 0 80.72 M0 80.72 C0 68.63, 0 56.55, 0 26.91 M0 80.72 C0 67.36, 0 53.99, 0 26.91 M0 26.91 C0 8.97, 8.97 0, 26.91 0 M0 26.91 C0 8.97, 8.97 0, 26.91 0" stroke="var(--diagram-yellow-border)" stroke-width="4" fill="none"></path></g><g transform="translate(857.6711945109407 199.11347500690863) rotate(0 43.19166564941406 17.137993517288464)"><text x="43.19166564941406" y="24.157715661969824" font-family="Excalifont, Xiaolai, sans-serif, Segoe UI Emoji" font-size="27.42078962766155px" fill="var(--diagram-yellow)" text-anchor="middle" style="white-space: pre;" direction="ltr" dominant-baseline="alphabetic">Result</text></g><g stroke-linecap="round"><g transform="translate(234.7932161538256 221.19951380472094) rotate(0 33.16049149883702 0.6718345888392605)"><path d="M0 0 C23.12 0.47, 46.23 0.94, 66.32 1.34 M0 0 C23.16 0.47, 46.32 0.94, 66.32 1.34" stroke="var(--diagram-edge)" stroke-width="4" fill="none"></path></g><g transform="translate(234.7932161538256 221.19951380472094) rotate(0 33.16049149883702 0.6718345888392605)"><path d="M66.32 1.34 L52.6 7.41 L52.86 -5.27 L66.32 1.34" stroke="none" stroke-width="0" fill="#1e1e1e" fill-rule="evenodd"></path><path d="M66.32 1.34 C61.54 3.46, 56.76 5.57, 52.6 7.41 M66.32 1.34 C61.53 3.46, 56.74 5.58, 52.6 7.41 M52.6 7.41 C52.68 3.35, 52.77 -0.71, 52.86 -5.27 M52.6 7.41 C52.67 3.94, 52.74 0.47, 52.86 -5.27 M52.86 -5.27 C56.83 -3.32, 60.8 -1.37, 66.32 1.34 M52.86 -5.27 C55.63 -3.91, 58.4 -2.55, 66.32 1.34 M66.32 1.34 C66.32 1.34, 66.32 1.34, 66.32 1.34 M66.32 1.34 C66.32 1.34, 66.32 1.34, 66.32 1.34" stroke="var(--diagram-edge)" stroke-width="4" fill="none"></path></g></g><mask></mask><g stroke-linecap="round"><g transform="translate(489.4148341249677 221.19951380472094) rotate(0 33.16049149883702 0.6718345888392605)"><path d="M0 0 C18.14 0.37, 36.28 0.74, 66.32 1.34 M0 0 C25.44 0.52, 50.88 1.03, 66.32 1.34" stroke="var(--diagram-edge)" stroke-width="4" fill="none"></path></g><g transform="translate(489.4148341249677 221.19951380472094) rotate(0 33.16049149883702 0.6718345888392605)"><path d="M66.32 1.34 L52.6 7.41 L52.86 -5.27 L66.32 1.34" stroke="none" stroke-width="0" fill="#1e1e1e" fill-rule="evenodd"></path><path d="M66.32 1.34 C62.57 3, 58.82 4.66, 52.6 7.41 M66.32 1.34 C61.06 3.67, 55.79 5.99, 52.6 7.41 M52.6 7.41 C52.67 4.11, 52.73 0.81, 52.86 -5.27 M52.6 7.41 C52.69 2.82, 52.79 -1.76, 52.86 -5.27 M52.86 -5.27 C56.44 -3.51, 60.02 -1.75, 66.32 1.34 M52.86 -5.27 C57.9 -2.79, 62.95 -0.31, 66.32 1.34 M66.32 1.34 C66.32 1.34, 66.32 1.34, 66.32 1.34 M66.32 1.34 C66.32 1.34, 66.32 1.34, 66.32 1.34" stroke="var(--diagram-edge)" stroke-width="4" fill="none"></path></g></g><mask></mask><g stroke-linecap="round"><g transform="translate(744.0364520961073 221.19951380472094) rotate(0 33.16049149883702 0.6718345888392605)"><path d="M0 0 C15.86 0.32, 31.73 0.64, 66.32 1.34 M0 0 C16.02 0.32, 32.03 0.65, 66.32 1.34" stroke="var(--diagram-edge)" stroke-width="4" fill="none"></path></g><g transform="translate(744.0364520961073 221.19951380472094) rotate(0 33.16049149883702 0.6718345888392605)"><path d="M66.32 1.34 L52.6 7.41 L52.86 -5.27 L66.32 1.34" stroke="none" stroke-width="0" fill="#1e1e1e" fill-rule="evenodd"></path><path d="M66.32 1.34 C63.04 2.79, 59.76 4.24, 52.6 7.41 M66.32 1.34 C63.01 2.81, 59.69 4.27, 52.6 7.41 M52.6 7.41 C52.66 4.44, 52.72 1.47, 52.86 -5.27 M52.6 7.41 C52.67 3.78, 52.75 0.16, 52.86 -5.27 M52.86 -5.27 C57.6 -2.94, 62.34 -0.61, 66.32 1.34 M52.86 -5.27 C56.97 -3.25, 61.09 -1.23, 66.32 1.34 M66.32 1.34 C66.32 1.34, 66.32 1.34, 66.32 1.34 M66.32 1.34 C66.32 1.34, 66.32 1.34, 66.32 1.34" stroke="var(--diagram-edge)" stroke-width="4" fill="none"></path></g></g><mask></mask><g transform="translate(959.4855134563056 162.4406788883034) rotate(0 19.58627830547266 19.58627830547266)"><use href="#image-6338738e0bcf5e62e2559fd74b4d278c30036bf5de5da303ad8d915613d25fe2d3669fb1b28d2f4459c5a0cb52998b1e" width="39" height="39" opacity="1"></use></g><g transform="translate(107.14329636000934 188.08400615439632) rotate(0 29.438191533492954 29.43819153349301)"><use href="#image-2c948f9849d1df4e55b9d8870a0f2269fe73c26fc573c2a2c2646b15c3e0f9af5b6054fe4abe65b66adce51cf53b75b1" width="59" height="59" opacity="1"></use></g><g transform="translate(357.36792439469855 188.08400615439632) rotate(0 30.57892269327374 30.57892269327374)"><use href="#image-a7cb0b8c7806d63cc682f5885d9ed2195b43f138e636f4c7a49b742e4e0789fd8cbef075c5fb8e05acc17d5dca07d576" width="61" height="61" opacity="1"></use></g><g transform="translate(616.4935570240675 188.08400615439632) rotate(0 29.438191533492954 29.43819153349284)"><use href="#image-68cebb1ca44a9bc73c8cfb34500940c40e3067e645135e4403468abf97d62de4cfbcdac64216ae01317fcc5b115b2a8a" width="59" height="59" opacity="1"></use></g><g transform="translate(161.39823073577531 167.6122734660371) rotate(0 33.160896919817674 12.87920879590314)"><text x="0" y="18.15453271870503" font-family="Excalifont, Xiaolai, sans-serif, Segoe UI Emoji" font-size="20.606734073444983px" fill="var(--diagram-teal)" text-anchor="start" style="white-space: pre;" direction="ltr" dominant-baseline="alphabetic">Search</text></g><g transform="translate(380.5941812871615 167.61227320883563) rotate(0 50.0510570662035 12.87920879590314)"><text x="0" y="18.15453271870503" font-family="Excalifont, Xiaolai, sans-serif, Segoe UI Emoji" font-size="20.606734073444983px" fill="var(--diagram-teal)" text-anchor="start" style="white-space: pre;" direction="ltr" dominant-baseline="alphabetic">Summarize</text></g><g transform="translate(685.2776174802455 167.6122735591464) rotate(0 26.089597808047074 12.87920879590314)"><text x="26.089597808046967" y="18.15453271870503" font-family="Excalifont, Xiaolai, sans-serif, Segoe UI Emoji" font-size="20.606734073444983px" fill="var(--diagram-teal)" text-anchor="middle" style="white-space: pre;" direction="ltr" dominant-baseline="alphabetic">Write</text></g></svg>
