<?xml version="1.0" encoding="UTF-8"?>
<svg class="diagram" version="1.1" xmlns="http://www.w3.org/2000/svg" viewBox="0 0 1186.6292051250002 731.7562681607141"  ><defs>
<linearGradient id="grad-orange" x1="0%" y1="0%" x2="100%" y2="100%">
    <stop offset="0%" stop-color="rgba(255, 109, 31, 0.28)" />
    <stop offset="100%" stop-color="rgba(255, 109, 31, 0.08)" />
  </linearGradient>
  <linearGradient id="grad-yellow" x1="0%" y1="0%" x2="100%" y2="100%">
    <stop offset="0%" stop-color="rgba(255, 212, 59, 0.28)" />
    <stop offset="100%" stop-color="rgba(255, 212, 59, 0.08)" />
  </linearGradient>
  <linearGradient id="grad-teal" x1="0%" y1="0%" x2="100%" y2="100%">
    <stop offset="0%" stop-color="rgba(0, 189, 173, 0.28)" />
    <stop offset="100%" stop-color="rgba(0, 189, 173, 0.08)" />
  </linearGradient>
  <linearGradient id="grad-cyan" x1="0%" y1="0%" x2="100%" y2="100%">
    <stop offset="0%" stop-color="rgba(34, 211, 238, 0.25)" />
    <stop offset="100%" stop-color="rgba(34, 211, 238, 0.06)" />
  </linearGradient>
  <linearGradient id="grad-magenta" x1="0%" y1="0%" x2="100%" y2="100%">
    <stop offset="0%" stop-color="rgba(214, 0, 111, 0.25)" />
    <stop offset="100%" stop-color="rgba(214, 0, 111, 0.06)" />
  </linearGradient>
  <linearGradient id="grad-success" x1="0%" y1="0%" x2="100%" y2="100%">
    <stop offset="0%" stop-color="rgba(34, 197, 94, 0.25)" />
    <stop offset="100%" stop-color="rgba(34, 197, 94, 0.06)" />
  </linearGradient>
  <linearGradient id="grad-error" x1="0%" y1="0%" x2="100%" y2="100%">
    <stop offset="0%" stop-color="rgba(239, 68, 68, 0.25)" />
    <stop offset="100%" stop-color="rgba(239, 68, 68, 0.06)" />
  </linearGradient>
<style>
  .diagram {
  --diagram-arrow:        rgba(245, 244, 242, 0.18);
  --diagram-ink:          #f5f4f2;
  --diagram-edge:         rgba(245, 244, 242, 0.55);
  --diagram-teal:         #00bdad;
  --diagram-teal-border:  #5eead4;
  --diagram-cyan:         #22d3ee;
  --diagram-cyan-border:  #a5f3fc;
  --diagram-magenta:      #d6006f;
  --diagram-magenta-border: #f06292;
  --diagram-orange:       #ff6d1f;
  --diagram-orange-border: #ff9e5e;
  --diagram-yellow:       #ffd43b;
  --diagram-yellow-border: #ffe066;
  --diagram-success:      #22c55e;
  --diagram-success-border: #86efac;
  --diagram-error:        #ef4444;
  --diagram-error-border: #fca5a5;
  --diagram-surface:      rgba(255, 255, 255, 0.12);
  --diagram-bone:         #f5f4f2;

  }
</style>
</defs><g stroke-linecap="round" transform="translate(623.89992539881 10.00000089880973) rotate(0 276.36463986309514 287.8581616249999)"><path d="M32 0 C156.61 0, 281.22 0, 520.73 0 C542.06 0, 552.73 10.67, 552.73 32 C552.73 182.57, 552.73 333.13, 552.73 543.72 C552.73 565.05, 542.06 575.72, 520.73 575.72 C367.12 575.72, 213.51 575.72, 32 575.72 C10.67 575.72, 0 565.05, 0 543.72 C0 357.93, 0 172.14, 0 32 C0 10.67, 10.67 0, 32 0" stroke="none" stroke-width="0" fill="url(#grad-teal)"></path><path d="M32 0 C161.89 0, 291.77 0, 520.73 0 M32 0 C207.86 0, 383.71 0, 520.73 0 M520.73 0 C542.06 0, 552.73 10.67, 552.73 32 M520.73 0 C542.06 0, 552.73 10.67, 552.73 32 M552.73 32 C552.73 134.37, 552.73 236.74, 552.73 543.72 M552.73 32 C552.73 223.2, 552.73 414.4, 552.73 543.72 M552.73 543.72 C552.73 565.05, 542.06 575.72, 520.73 575.72 M552.73 543.72 C552.73 565.05, 542.06 575.72, 520.73 575.72 M520.73 575.72 C410.02 575.72, 299.3 575.72, 32 575.72 M520.73 575.72 C410.72 575.72, 300.71 575.72, 32 575.72 M32 575.72 C10.67 575.72, 0 565.05, 0 543.72 M32 575.72 C10.67 575.72, 0 565.05, 0 543.72 M0 543.72 C0 382.49, 0 221.26, 0 32 M0 543.72 C0 344.23, 0 144.74, 0 32 M0 32 C0 10.67, 10.67 0, 32 0 M0 32 C0 10.67, 10.67 0, 32 0" stroke="var(--diagram-teal-border)" stroke-width="4" fill="none"></path></g><g transform="translate(682.6864525134865 50.156684660713836) rotate(0 214.03793334960938 22.5)"><text x="214.03793334960938" y="34.344" font-family="Nunito, sans-serif, Segoe UI Emoji" font-size="36px" fill="var(--diagram-teal)" text-anchor="middle" style="white-space: pre;" direction="ltr" dominant-baseline="alphabetic">Durable Execution System</text></g><g stroke-linecap="round"><g transform="translate(623.8999248630948 156.54838399404753) rotate(0 274.3684895833335 -0.3535156250001137)"><path d="M0 0 C91.46 -0.12, 457.28 -0.59, 548.74 -0.71 M0 0 C91.46 -0.12, 457.28 -0.59, 548.74 -0.71" stroke="var(--diagram-teal-border)" stroke-width="4" fill="none"></path></g></g><mask></mask><g transform="translate(660.2347186716902 108.3948526607137) rotate(0 240.02984619140625 17.5)"><text x="240.02984619140625" y="26.712" font-family="Nunito, sans-serif, Segoe UI Emoji" font-size="28px" fill="var(--diagram-teal)" text-anchor="middle" style="white-space: pre;" direction="ltr" dominant-baseline="alphabetic">Records workflow state and progress </text></g><g transform="translate(754.5854548379662 215.63799889880966) rotate(0 142.13893127441406 202.41871938095215)"><text x="142.13893127441406" y="34.33021480700949" font-family="Nunito, sans-serif, Segoe UI Emoji" font-size="35.98555011216927px" fill="var(--diagram-teal)" text-anchor="middle" style="white-space: pre;" direction="ltr" dominant-baseline="alphabetic">Workflow State</text><text x="142.13893127441406" y="79.31215244722108" font-family="Nunito, sans-serif, Segoe UI Emoji" font-size="35.98555011216927px" fill="var(--diagram-teal)" text-anchor="middle" style="white-space: pre;" direction="ltr" dominant-baseline="alphabetic"></text><text x="142.13893127441406" y="124.29409008743266" font-family="Nunito, sans-serif, Segoe UI Emoji" font-size="35.98555011216927px" fill="var(--diagram-teal)" text-anchor="middle" style="white-space: pre;" direction="ltr" dominant-baseline="alphabetic">Step Checkpoints</text><text x="142.13893127441406" y="169.27602772764428" font-family="Nunito, sans-serif, Segoe UI Emoji" font-size="35.98555011216927px" fill="var(--diagram-teal)" text-anchor="middle" style="white-space: pre;" direction="ltr" dominant-baseline="alphabetic"></text><text x="142.13893127441406" y="214.25796536785586" font-family="Nunito, sans-serif, Segoe UI Emoji" font-size="35.98555011216927px" fill="var(--diagram-teal)" text-anchor="middle" style="white-space: pre;" direction="ltr" dominant-baseline="alphabetic">Retry / Recovery</text><text x="142.13893127441406" y="259.2399030080674" font-family="Nunito, sans-serif, Segoe UI Emoji" font-size="35.98555011216927px" fill="var(--diagram-teal)" text-anchor="middle" style="white-space: pre;" direction="ltr" dominant-baseline="alphabetic"></text><text x="142.13893127441406" y="304.22184064827906" font-family="Nunito, sans-serif, Segoe UI Emoji" font-size="35.98555011216927px" fill="var(--diagram-teal)" text-anchor="middle" style="white-space: pre;" direction="ltr" dominant-baseline="alphabetic">Queue State</text><text x="142.13893127441406" y="349.20377828849064" font-family="Nunito, sans-serif, Segoe UI Emoji" font-size="35.98555011216927px" fill="var(--diagram-teal)" text-anchor="middle" style="white-space: pre;" direction="ltr" dominant-baseline="alphabetic"></text><text x="142.13893127441406" y="394.1857159287022" font-family="Nunito, sans-serif, Segoe UI Emoji" font-size="35.98555011216927px" fill="var(--diagram-teal)" text-anchor="middle" style="white-space: pre;" direction="ltr" dominant-baseline="alphabetic">      </text></g><g stroke-linecap="round" transform="translate(10 10) rotate(0 276.36463986309514 287.858161744048)"><path d="M32 0 C170.67 0, 309.33 0, 520.73 0 C542.06 0, 552.73 10.67, 552.73 32 C552.73 219.25, 552.73 406.5, 552.73 543.72 C552.73 565.05, 542.06 575.72, 520.73 575.72 C388.45 575.72, 256.17 575.72, 32 575.72 C10.67 575.72, 0 565.05, 0 543.72 C0 437.74, 0 331.77, 0 32 C0 10.67, 10.67 0, 32 0" stroke="none" stroke-width="0" fill="url(#grad-cyan)"></path><path d="M32 0 C164.35 0, 296.7 0, 520.73 0 M32 0 C163.16 0, 294.31 0, 520.73 0 M520.73 0 C542.06 0, 552.73 10.67, 552.73 32 M520.73 0 C542.06 0, 552.73 10.67, 552.73 32 M552.73 32 C552.73 164.78, 552.73 297.55, 552.73 543.72 M552.73 32 C552.73 217.56, 552.73 403.13, 552.73 543.72 M552.73 543.72 C552.73 565.05, 542.06 575.72, 520.73 575.72 M552.73 543.72 C552.73 565.05, 542.06 575.72, 520.73 575.72 M520.73 575.72 C334.83 575.72, 148.94 575.72, 32 575.72 M520.73 575.72 C352.38 575.72, 184.02 575.72, 32 575.72 M32 575.72 C10.67 575.72, 0 565.05, 0 543.72 M32 575.72 C10.67 575.72, 0 565.05, 0 543.72 M0 543.72 C0 426.82, 0 309.91, 0 32 M0 543.72 C0 370.8, 0 197.87, 0 32 M0 32 C0 10.67, 10.67 0, 32 0 M0 32 C0 10.67, 10.67 0, 32 0" stroke="var(--diagram-cyan-border)" stroke-width="4" fill="none"></path></g><g stroke-linecap="round"><g transform="translate(11.996150464286075 156.5483833333342) rotate(0 274.3684895833335 -0.3535156250001137)"><path d="M0 0 C91.46 -0.12, 457.28 -0.59, 548.74 -0.71 M0 0 C91.46 -0.12, 457.28 -0.59, 548.74 -0.71" stroke="var(--diagram-cyan-border)" stroke-width="4" fill="none"></path></g></g><mask></mask><g transform="translate(59.70685907998586 50.15668616071366) rotate(0 228.6539306640625 22.5)"><text x="228.6539306640625" y="34.344" font-family="Nunito, sans-serif, Segoe UI Emoji" font-size="36px" fill="var(--diagram-cyan)" text-anchor="middle" style="white-space: pre;" direction="ltr" dominant-baseline="alphabetic">Agent Observability System</text></g><g transform="translate(96.82809980157253 108.39485266071347) rotate(0 174.42588806152344 17.5)"><text x="174.42588806152344" y="26.712" font-family="Nunito, sans-serif, Segoe UI Emoji" font-size="28px" fill="var(--diagram-cyan)" text-anchor="middle" style="white-space: pre;" direction="ltr" dominant-baseline="alphabetic">Records what the agent did</text></g><g transform="translate(159.20227863031369 215.63799889880966) rotate(0 127.16236114501953 253.0591346309522)"><text x="127.16236114501953" y="35.11540573642595" font-family="Nunito, sans-serif, Segoe UI Emoji" font-size="36.808601400865776px" fill="var(--diagram-cyan)" text-anchor="middle" style="white-space: pre;" direction="ltr" dominant-baseline="alphabetic">Traces &amp; Spans</text><text x="127.16236114501953" y="81.12615748750817" font-family="Nunito, sans-serif, Segoe UI Emoji" font-size="36.808601400865776px" fill="var(--diagram-cyan)" text-anchor="middle" style="white-space: pre;" direction="ltr" dominant-baseline="alphabetic"></text><text x="127.16236114501953" y="127.13690923859039" font-family="Nunito, sans-serif, Segoe UI Emoji" font-size="36.808601400865776px" fill="var(--diagram-cyan)" text-anchor="middle" style="white-space: pre;" direction="ltr" dominant-baseline="alphabetic">LLM Calls</text><text x="127.16236114501953" y="173.1476609896726" font-family="Nunito, sans-serif, Segoe UI Emoji" font-size="36.808601400865776px" fill="var(--diagram-cyan)" text-anchor="middle" style="white-space: pre;" direction="ltr" dominant-baseline="alphabetic"></text><text x="127.16236114501953" y="219.1584127407548" font-family="Nunito, sans-serif, Segoe UI Emoji" font-size="36.808601400865776px" fill="var(--diagram-cyan)" text-anchor="middle" style="white-space: pre;" direction="ltr" dominant-baseline="alphabetic">Tool Calls</text><text x="127.16236114501953" y="265.169164491837" font-family="Nunito, sans-serif, Segoe UI Emoji" font-size="36.808601400865776px" fill="var(--diagram-cyan)" text-anchor="middle" style="white-space: pre;" direction="ltr" dominant-baseline="alphabetic"></text><text x="127.16236114501953" y="311.17991624291926" font-family="Nunito, sans-serif, Segoe UI Emoji" font-size="36.808601400865776px" fill="var(--diagram-cyan)" text-anchor="middle" style="white-space: pre;" direction="ltr" dominant-baseline="alphabetic">Token Usage</text><text x="127.16236114501953" y="357.19066799400144" font-family="Nunito, sans-serif, Segoe UI Emoji" font-size="36.808601400865776px" fill="var(--diagram-cyan)" text-anchor="middle" style="white-space: pre;" direction="ltr" dominant-baseline="alphabetic"></text><text x="127.16236114501953" y="403.2014197450837" font-family="Nunito, sans-serif, Segoe UI Emoji" font-size="36.808601400865776px" fill="var(--diagram-cyan)" text-anchor="middle" style="white-space: pre;" direction="ltr" dominant-baseline="alphabetic"></text><text x="127.16236114501953" y="449.2121714961659" font-family="Nunito, sans-serif, Segoe UI Emoji" font-size="36.808601400865776px" fill="var(--diagram-cyan)" text-anchor="middle" style="white-space: pre;" direction="ltr" dominant-baseline="alphabetic"></text><text x="127.16236114501953" y="495.2229232472481" font-family="Nunito, sans-serif, Segoe UI Emoji" font-size="36.808601400865776px" fill="var(--diagram-cyan)" text-anchor="middle" style="white-space: pre;" direction="ltr" dominant-baseline="alphabetic"></text></g></svg>
